<svg width="40" height="40" viewBox="0 0 40 40" fill="none" xmlns="http://www.w3.org/2000/svg">
<rect width="38.4811" height="39.1987" fill="black" fill-opacity="0" transform="translate(0.976929)"/>
<rect width="38.4811" height="39.1987" fill="black" fill-opacity="0" transform="translate(0.976929)"/>
<rect width="17.0212" height="3.74273" fill="black" fill-opacity="0" transform="translate(11.2267 14.0352)"/>
<path d="M12.2902 17.2432C12.9496 17.2432 13.3452 16.5749 13.3452 16.0402V15.9065H13.2133C12.6858 15.9065 11.6308 15.9065 11.6308 16.7085C11.6308 16.9759 11.8945 17.2432 12.2902 17.2432ZM13.2133 15.5055H13.3452C13.3452 14.8372 13.0814 14.5698 12.422 14.5698C12.2902 14.5698 11.7626 14.5698 11.7626 14.8372V14.9708H11.4989V14.7035C11.4989 14.1688 12.2902 14.1688 12.5539 14.1688C13.609 14.1688 13.8727 14.7035 13.8727 15.5055V17.1095C13.8727 17.2432 13.8727 17.2432 14.0046 17.2432H14.2684V17.6442H13.8727C13.609 17.6442 13.4771 17.5106 13.4771 17.2432C13.4771 17.1095 13.4771 16.9759 13.4771 16.9759C13.4771 16.9759 13.2133 17.6442 12.422 17.6442C11.8945 17.6442 11.2351 17.3769 11.2351 16.7085C11.1032 15.5055 12.5539 15.5055 13.2133 15.5055ZM15.1916 14.7035C15.1916 14.5698 15.1916 14.5698 15.0597 14.5698H14.7959V14.1688H15.3234C15.5872 14.1688 15.7191 14.3025 15.7191 14.5698V14.8372C15.7191 14.9708 15.7191 15.1045 15.7191 15.1045C15.851 14.5698 16.2466 14.1688 16.7741 14.1688C16.906 14.1688 16.906 14.1688 16.906 14.1688V14.5698H16.7741C16.2466 14.5698 15.9829 14.9708 15.851 15.5055C15.7191 15.7729 15.7191 15.9065 15.7191 16.1739V17.6442H15.3234V14.7035H15.1916ZM19.8074 15.5055C19.8074 14.8372 19.4118 14.4362 18.8843 14.4362C18.3567 14.4362 17.8292 14.8372 17.6973 15.5055H19.8074ZM18.8843 14.0352C19.8074 14.0352 20.3349 14.7035 20.3349 15.6392C20.3349 15.7729 20.3349 15.9065 20.3349 15.9065H17.8292C17.8292 16.7085 18.4886 17.2432 19.148 17.2432C19.8074 17.2432 20.2031 16.8422 20.2031 16.8422L20.4668 17.2432C20.4668 17.2432 19.9393 17.7779 19.2799 17.7779C18.3567 17.7779 17.5654 17.1095 17.5654 16.0402C17.3017 14.7035 17.9611 14.0352 18.8843 14.0352ZM21.39 14.7035C21.39 14.5698 21.39 14.5698 21.2581 14.5698H20.9944V14.1688H21.5219C21.7857 14.1688 21.9175 14.3025 21.9175 14.5698V14.7035C21.9175 14.8372 21.9175 14.9708 21.9175 14.9708C22.0494 14.7035 22.445 14.1688 23.2363 14.1688C24.0276 14.1688 24.2914 14.7035 24.2914 15.5055V17.1095C24.2914 17.2432 24.2914 17.2432 24.4233 17.2432H24.687V17.6442H24.1595C23.8958 17.6442 23.7639 17.5106 23.7639 17.2432V15.6392C23.7639 15.1045 23.632 14.7035 23.1045 14.7035C22.5769 14.7035 22.0494 15.1045 21.9175 15.6392C21.9175 15.7729 21.9175 15.9065 21.9175 16.0402V17.6442H21.5219V14.7035H21.39ZM26.4015 17.2432C27.0609 17.2432 27.4566 16.5749 27.4566 16.0402V15.9065H27.3247C26.7972 15.9065 25.7421 15.9065 25.7421 16.7085C25.7421 16.9759 25.874 17.2432 26.4015 17.2432ZM27.3247 15.5055H27.4566C27.4566 14.8372 27.1928 14.5698 26.5334 14.5698C26.4015 14.5698 25.874 14.5698 25.874 14.8372V14.9708H25.4783V14.7035C25.4783 14.1688 26.2696 14.1688 26.5334 14.1688C27.5884 14.1688 27.8522 14.7035 27.8522 15.5055V17.1095C27.8522 17.2432 27.8522 17.2432 27.9841 17.2432H28.2479V17.6442H27.8522C27.5884 17.6442 27.4566 17.5106 27.4566 17.2432C27.4566 17.1095 27.4566 16.9759 27.4566 16.9759C27.4566 16.9759 27.1928 17.6442 26.4015 17.6442C25.874 17.6442 25.2146 17.3769 25.2146 16.7085C25.2146 15.5055 26.6653 15.5055 27.3247 15.5055Z" fill="white"/>
<rect width="17.4084" height="5.07942" fill="black" fill-opacity="0" transform="translate(11.1034 21.5205)"/>
<path d="M15.0598 25.9316H15.4555V23.1245H15.0598V22.4562H16.5106V23.1245H16.1149V25.9316H16.5106V26.5999H15.0598V25.9316ZM12.1585 25.9316C12.1585 25.9316 12.0266 25.9316 12.1585 25.9316L12.0266 23.1245H12.5541C13.3454 23.1245 13.8729 23.6592 13.8729 24.4612C13.8729 25.3969 13.3454 25.7979 12.5541 25.7979H12.1585V25.9316ZM11.3672 26.1989C11.3672 26.4663 11.499 26.5999 11.7628 26.5999H12.686C13.8729 26.5999 14.6642 25.7979 14.6642 24.5949C14.6642 23.2582 13.8729 22.5899 12.686 22.5899H11.1034V23.2582H11.499V26.1989H11.3672ZM18.8844 22.4562C17.6975 22.4562 16.9062 23.3919 16.9062 24.4612C16.9062 25.6642 17.6975 26.5999 19.0163 26.5999C20.0714 26.5999 20.5989 25.9316 20.5989 25.9316L20.2032 25.3969C20.2032 25.3969 19.8076 25.9316 19.0163 25.9316C18.3569 25.9316 17.6975 25.2632 17.6975 24.4612C17.6975 23.6592 18.225 23.1245 19.0163 23.1245C19.4119 23.1245 19.8076 23.2582 19.8076 23.5255V23.7929H20.467V23.3919C20.467 22.7235 19.412 22.4562 18.8844 22.4562ZM21.9177 24.4612V23.2582H22.5771C22.9728 23.2582 23.1046 23.5255 23.1046 23.9265C23.1046 24.3276 22.8409 24.5949 22.5771 24.5949H21.9177V24.4612ZM21.2583 26.5999H22.0496V25.1296H22.4452C22.709 25.1296 22.709 25.1296 22.8409 25.2632L23.3684 26.3326C23.5003 26.5999 23.6322 26.5999 23.8959 26.5999H24.2916V25.9316H24.1597C24.0278 25.9316 23.8959 25.9316 23.8959 25.7979L23.5003 24.9959C23.3684 24.8622 23.3684 24.7286 23.3684 24.7286C23.5003 24.7286 24.0278 24.3276 24.0278 23.6592C24.0278 22.8572 23.5003 22.4562 22.8409 22.4562H20.9945V23.1245H21.3902V26.5999H21.2583ZM26.1379 22.3225H26.6655L27.193 21.5205H26.5336L26.1379 22.3225ZM26.4017 25.9316C25.7423 25.9316 25.0829 25.2632 25.0829 24.4612C25.0829 23.6592 25.6104 23.1245 26.4017 23.1245C27.0611 23.1245 27.7205 23.6592 27.7205 24.4612C27.7205 25.3969 27.193 25.9316 26.4017 25.9316ZM26.4017 22.4562C25.2148 22.4562 24.2916 23.3919 24.2916 24.4612C24.2916 25.6642 25.2148 26.5999 26.4017 26.5999C27.5886 26.5999 28.5118 25.6642 28.5118 24.4612C28.5118 23.3919 27.5886 22.4562 26.4017 22.4562Z" fill="white"/>
<rect width="21.3648" height="21.387" fill="black" fill-opacity="0" transform="translate(18.0931)"/>
<path d="M37.216 21.387V21.2534L33.2595 7.48547C33.1277 6.81712 32.3364 6.14878 31.8088 6.01511L18.0931 2.53971L18.6207 0L33.3914 3.74273C34.1827 3.8764 34.974 4.67842 35.1059 5.48043L39.458 20.8524L37.216 21.387ZM33.5233 7.3518L37.4798 20.986L39.1942 20.4514L34.974 5.48043C34.8421 4.81209 34.0508 4.14374 33.5233 4.01007L19.0163 0.401009L18.6207 2.27237L31.9407 5.6141C32.4683 5.88144 33.2595 6.54978 33.5233 7.3518Z" fill="white"/>
<rect width="37.002" height="37.3618" fill="black" fill-opacity="0" transform="translate(0.976929 1.83691)"/>
<path d="M23.3684 33.9516L9.78459 30.4762L5.82814 16.8419L15.5874 6.54939L29.1712 10.0248L33.1277 23.659L23.3684 33.9516ZM37.216 21.253L33.2596 7.48508C32.9958 6.81673 32.3364 6.01472 31.677 5.88105L18.225 2.53932L15.3236 1.87098C14.6642 1.73731 13.6092 2.00465 13.2135 2.53932L1.60793 14.8369C1.0804 15.3716 0.816642 16.3072 1.08041 17.1092L5.69627 33.4169C5.96003 34.0852 6.61944 34.8872 7.27885 35.0209L23.6322 39.1646C24.2916 39.2983 25.3467 39.031 25.7423 38.4963L37.3479 26.1987C37.8754 25.6641 38.1392 24.7284 37.8754 23.9264L37.216 21.253Z" fill="white"/>
<rect width="17.1446" height="2.94072" fill="black" fill-opacity="0" transform="translate(10.9714 18.4458)"/>
<path d="M18.7525 21.1192H19.0162V18.8468H18.7525V18.5795H19.5438V18.8468H19.28V21.1192H19.5438V21.3865H18.7525V21.1192ZM12.2903 18.5795C11.499 18.5795 10.9714 19.1141 10.9714 19.9162C10.9714 20.7182 11.499 21.3865 12.2903 21.3865C12.9497 21.3865 13.3453 20.9855 13.3453 20.9855L13.2134 20.8518C13.2134 20.8518 12.9497 21.2529 12.2903 21.2529C11.6308 21.2529 11.2352 20.7182 11.2352 20.0498C11.2352 19.3815 11.6308 18.9805 12.2903 18.9805C12.554 18.9805 13.0815 19.1141 13.0815 19.3815V19.5152H13.3453V19.2478C13.3453 18.7131 12.6859 18.5795 12.2903 18.5795ZM14.4004 20.1835L14.796 19.2478C14.796 19.1141 14.9279 18.8468 14.9279 18.8468C14.9279 18.8468 14.9279 19.1141 15.0598 19.2478L15.4554 20.1835H14.4004ZM13.6091 21.2529C13.8728 21.2529 14.0047 21.2529 14.0047 20.9855L14.2685 20.3172H15.3235L15.5873 20.9855C15.7192 21.1192 15.7192 21.2529 15.8511 21.2529H15.9829V20.9855C15.851 20.9855 15.8511 20.9855 15.8511 20.8518L14.9279 18.4458H14.6641L13.7409 20.8518C13.7409 20.9855 13.6091 20.9855 13.6091 20.9855V21.2529ZM16.9061 19.9162V18.8468H17.5655C17.8293 18.8468 18.093 19.1141 18.093 19.3815C18.093 19.7825 17.8293 19.9162 17.5655 19.9162H16.9061ZM16.6423 21.2529H16.9061V20.0498H17.3017C17.4336 20.0498 17.5655 20.0498 17.5655 20.1835L17.9612 20.9855C18.093 21.1192 18.093 21.2529 18.3568 21.2529H18.4887V20.9855C18.3568 20.9855 18.3568 20.9855 18.3568 20.8518L17.9612 20.0498C17.9612 19.9162 17.8293 19.9162 17.8293 19.9162C18.093 19.9162 18.3568 19.6488 18.3568 19.2478C18.3568 18.7131 18.0931 18.4458 17.5655 18.4458H16.3786V18.7131H16.6423V21.2529ZM21.3901 21.1192C20.7307 21.1192 20.335 20.5845 20.335 19.9162C20.335 19.2478 20.8626 18.8468 21.3901 18.8468C22.0495 18.8468 22.4451 19.3815 22.4451 19.9162C22.4451 20.5845 21.9176 21.1192 21.3901 21.1192ZM21.3901 18.5795C20.5988 18.5795 20.0713 19.2478 20.0713 19.9162C20.0713 20.7182 20.7307 21.3865 21.3901 21.3865C22.1814 21.3865 22.7089 20.7182 22.7089 19.9162C22.7089 19.1141 22.0495 18.5795 21.3901 18.5795ZM24.4234 18.5795C23.6321 18.5795 23.1046 19.1141 23.1046 19.9162C23.1046 20.7182 23.6321 21.3865 24.4234 21.3865C25.0828 21.3865 25.4784 20.9855 25.4784 20.9855L25.3465 20.8518C25.3465 20.8518 25.0828 21.2529 24.4234 21.2529C23.764 21.2529 23.3683 20.7182 23.3683 20.0498C23.3683 19.3815 23.764 18.9805 24.4234 18.9805C24.6871 18.9805 25.2147 19.1141 25.2147 19.3815V19.5152H25.4784V19.2478C25.4784 18.7131 24.819 18.5795 24.4234 18.5795ZM26.5335 20.1835L26.9291 19.2478C26.9291 19.1141 27.061 18.8468 27.061 18.8468C27.061 18.8468 27.061 19.1141 27.1929 19.2478L27.5885 20.1835H26.5335ZM25.7422 21.2529C26.006 21.2529 26.1378 21.2529 26.1378 20.9855L26.4016 20.3172H27.4567L27.7204 20.9855C27.8523 21.1192 27.8523 21.2529 27.9842 21.2529H28.1161V20.9855C27.9842 20.9855 27.9842 20.9855 27.9842 20.8518L27.061 18.4458H26.7973L25.8741 20.8518C25.8741 20.9855 25.7422 20.9855 25.7422 20.9855V21.2529Z" fill="white"/>
</svg>
