<svg width="58" height="39" viewBox="0 0 58 39" fill="none" xmlns="http://www.w3.org/2000/svg">
<rect width="56.5771" height="38.1297" fill="black" fill-opacity="0" transform="translate(0.796143)"/>
<path d="M0.928032 0.702409C1.32368 0.167732 1.85117 -0.0996056 2.3787 0.0340634C3.03811 0.301401 3.82942 0.3014 4.62071 0.3014C5.93953 0.3014 7.25835 0.16773 8.70905 0.16773C9.76411 0.16773 10.6873 0.167731 11.7423 0.3014C12.5336 0.3014 13.3249 0.3014 14.1162 0.435069C15.1713 0.435069 16.0944 0.435069 17.1495 0.3014C17.9408 0.3014 18.732 0.3014 19.5233 0.3014C21.3697 0.3014 23.0842 0.435069 24.9305 0.435069C25.1943 0.435069 25.3261 0.435069 25.5899 0.435069C25.9856 0.435069 26.2493 0.568738 26.3812 0.969745C26.645 1.37075 26.7768 1.90543 26.7768 2.30644C26.7768 2.57377 26.7768 2.70744 26.7768 2.97478C26.7768 4.1778 26.7768 5.38083 26.7768 6.71751C26.7768 7.6532 26.7768 8.45521 26.7768 9.3909C26.7768 10.0592 26.7768 10.5939 26.9087 11.2623C26.9087 11.9306 27.0406 12.4653 27.0406 13.1336C27.1725 13.9356 27.1725 14.604 27.3044 15.406C27.4363 15.9407 27.4362 16.4754 27.4362 17.01C27.4362 18.213 27.5681 19.5497 27.5681 20.7528C27.5681 21.8221 27.7 22.8915 27.7 23.9608C27.8319 24.8965 27.8319 25.9659 27.8319 26.9015C27.8319 28.1046 27.8319 29.1739 27.9638 30.3769C27.9638 30.7779 27.9638 31.3126 27.9638 31.7136C27.9638 32.382 27.9638 33.184 27.9638 33.8523C27.9638 34.6543 28.0957 35.4564 28.0957 36.2584C28.0957 36.5257 28.0957 36.6594 28.0957 36.9267C28.0957 37.1941 27.9638 37.3277 27.5681 37.4614C27.4363 37.4614 27.1725 37.4614 27.0406 37.4614C25.5899 37.4614 24.1392 37.3277 22.8204 37.3277C21.3697 37.3277 19.919 37.1941 18.4683 37.1941C18.2045 37.1941 17.9408 37.1941 17.677 37.1941C17.4132 37.1941 17.2814 37.1941 17.0176 37.1941C16.6219 37.1941 16.0944 37.3277 15.6988 37.3277C14.7756 37.3277 13.8524 37.4614 13.0611 37.4614C12.138 37.4614 11.0829 37.5951 10.1598 37.5951C9.23659 37.5951 8.31341 37.7287 7.39023 37.8624C6.46706 37.9961 5.54388 37.9961 4.62071 38.1297H4.48882C4.35694 38.1297 4.09318 38.1297 3.9613 38.1297C3.9613 38.1297 3.82941 38.1297 3.82941 37.9961C3.56564 37.8624 3.43377 37.7287 3.30189 37.4614C2.5106 35.189 2.24685 32.9166 2.24685 30.5106C2.24685 30.3769 2.24684 30.1096 2.11496 29.9759C2.11496 29.8423 1.98307 29.7086 1.98307 29.5749C1.98307 28.6392 1.85118 27.8372 1.85118 26.9015C1.85118 25.9659 1.71929 25.0302 1.71929 24.0945C1.71929 23.0251 1.58744 21.9558 1.58744 20.8864C1.58744 19.6834 1.58744 18.6141 1.58744 17.411C1.58744 16.8764 1.58744 16.208 1.58744 15.6733C1.58744 15.005 1.58744 14.3366 1.58744 13.6683C1.58744 13.2673 1.58744 12.8663 1.58744 12.4653C1.58744 11.9306 1.58743 11.3959 1.45555 10.8613C1.32367 9.52456 1.32365 8.18787 1.19177 6.85118C1.19177 5.64816 1.05988 4.31147 1.05988 3.10845C1.05988 2.70744 1.05991 2.30644 0.928032 1.90543C0.928032 1.77176 0.928024 1.63809 0.796143 1.63809C0.928024 1.23708 0.928032 0.969747 0.928032 0.702409ZM2.64248 14.7377C2.64248 15.807 2.64248 16.8764 2.64248 17.9457C2.64248 18.8814 2.64248 19.6834 2.64248 20.6191C2.64248 22.3568 2.77438 24.2282 2.90626 25.9659C2.90626 26.9015 3.03811 27.9709 3.03811 28.9066C3.03811 29.9759 3.17 31.0453 3.17 32.1146C3.17 33.0503 3.3019 33.986 3.43378 34.9217C3.56566 35.189 3.56564 35.59 3.69752 35.8574C3.8294 36.2584 4.09317 36.392 4.48882 36.5257C4.6207 36.5257 4.88445 36.5257 5.01634 36.5257C5.41198 36.5257 5.80766 36.5257 6.2033 36.5257C6.46707 36.5257 6.7308 36.5257 6.99456 36.5257C7.25833 36.5257 7.39021 36.5257 7.65397 36.392C8.31338 36.2584 8.97279 36.2584 9.6322 36.1247C10.4235 35.991 11.2148 35.8574 12.138 35.8574C13.4568 35.8574 14.7756 35.7237 16.0944 35.7237C17.4133 35.7237 18.7321 35.59 20.0509 35.59C20.8422 35.59 21.7654 35.59 22.5566 35.59C23.3479 35.59 24.1392 35.7237 24.7986 35.7237C25.0624 35.7237 25.3261 35.7237 25.5899 35.7237C26.1174 35.7237 26.3812 35.4564 26.3812 35.0554C26.3812 34.9217 26.3812 34.788 26.3812 34.6543C26.3812 33.4513 26.2493 32.382 26.2493 31.1789C26.2493 27.7036 26.2493 24.2282 26.2493 20.7528C26.2493 19.8171 26.2493 19.0151 26.1174 18.0794C26.1174 17.2774 25.9856 16.3417 25.8537 15.5397C25.7218 14.7377 25.7218 13.9356 25.5899 13.1336C25.458 12.3316 25.3262 11.5296 25.3262 10.7276C25.3262 9.92557 25.1943 9.12356 25.1943 8.32154C25.1943 6.71751 25.1943 5.11348 25.1943 3.50946C25.1943 3.37579 25.1943 3.10845 25.1943 2.97478C25.1943 2.57377 24.9305 2.30644 24.6668 2.0391C24.5349 1.90543 24.2711 1.90543 24.1392 1.90543C23.7436 1.90543 23.4798 1.90543 23.0842 1.90543C22.6885 1.90543 22.2929 1.90543 21.8972 1.90543C20.3147 1.90543 18.864 1.90543 17.2814 1.90543C16.0944 1.90543 14.9075 2.0391 13.7205 2.0391C12.9293 2.0391 12.2699 2.0391 11.4786 2.0391C10.951 2.0391 10.4235 1.90543 9.89598 1.90543C8.84093 1.90543 7.65399 1.77176 6.59893 1.77176C5.67576 1.77176 4.88447 1.63809 3.9613 1.63809C3.56565 1.63809 3.30191 1.63809 2.90626 1.63809C2.37873 1.63809 1.98307 2.0391 1.98307 2.57377C1.98307 2.84111 1.98307 3.10845 1.98307 3.24212C1.98307 4.57881 1.98308 5.78183 2.11496 7.11852C2.11496 8.45521 2.24685 9.7919 2.24685 11.1286C2.51061 12.1979 2.64248 13.5346 2.64248 14.7377Z" fill="white"/>
<path d="M53.5488 8.18789C53.5488 7.11853 53.5488 6.18285 53.6807 5.1135C53.6807 4.71249 53.8126 4.44515 53.9445 4.04415C53.9445 3.91048 54.0764 3.77681 54.2082 3.64314C54.3401 3.50947 54.472 3.3758 54.7358 3.50947C54.8676 3.64314 55.1314 3.64314 55.2633 3.77681C55.3952 3.77681 55.5271 3.77681 55.5271 3.77681C55.7908 3.77681 55.9227 3.91048 56.0546 4.04415C56.1865 4.31149 56.3183 4.57882 56.4502 4.97983C56.5821 5.38084 56.714 5.91551 56.714 6.31652C56.8459 6.8512 56.714 7.51954 56.714 8.05422C56.714 8.58889 56.714 9.12357 56.714 9.79192C56.714 10.4603 56.5821 11.2623 56.4502 11.9306C56.3183 12.198 56.3183 12.4653 56.0546 12.7326C55.9227 13 55.6589 13.1336 55.3952 13.2673C54.9995 13.401 54.7357 13.2673 54.472 13.1336C54.3401 13 54.2082 12.8663 54.0763 12.599C53.8126 12.198 53.6807 11.6633 53.6807 11.2623C53.5488 10.3266 53.5488 9.25724 53.5488 8.18789ZM53.9445 8.85623C53.9445 9.52458 54.0763 10.0593 54.0763 10.7276C54.0763 11.2623 54.2082 11.6633 54.3401 12.198C54.472 12.4653 54.472 12.599 54.7358 12.8663C54.8676 13.1336 55.1314 13.1336 55.3952 13C55.527 13 55.6589 12.8663 55.6589 12.7326C55.7908 12.599 55.9227 12.3316 55.9227 12.198C56.1864 11.6633 56.1865 10.9949 56.3184 10.3266C56.3184 9.79192 56.3184 9.12357 56.3184 8.58889C56.3184 7.78688 56.1865 6.98486 56.1865 6.31652C56.1865 6.04918 56.1865 5.78184 56.1865 5.5145C56.1865 5.1135 56.0546 4.71249 55.6589 4.44515C55.5271 4.31148 55.2633 4.17781 54.9995 4.17781C54.8677 4.17781 54.7357 4.17781 54.472 4.17781C54.3401 4.17781 54.3401 4.17781 54.3401 4.31148C54.3401 4.44515 54.2082 4.71249 54.2082 4.84616C54.2082 5.38084 54.0763 5.91551 54.0763 6.45019C54.0763 7.2522 53.9445 8.05422 53.9445 8.85623Z" fill="white"/>
<path d="M38.91 3.64295C39.0419 3.64295 39.1738 3.64295 39.3056 3.50928C39.4375 3.50928 39.5694 3.50928 39.5694 3.64295V3.77662C39.5694 4.57863 39.7013 5.24698 39.7013 6.04899C39.7013 6.58367 39.8332 7.11834 39.8332 7.78669C39.9651 8.5887 40.0969 9.39072 40.2288 10.1927C40.2288 10.3264 40.2288 10.5937 40.3607 10.7274V10.8611C40.2288 11.1284 40.3607 11.3958 40.3607 11.6631C40.3607 11.9304 40.4926 12.3314 40.4926 12.5988C40.4926 12.7324 40.4926 12.8661 40.4926 12.9998C40.4926 13.1334 40.4926 13.1335 40.3607 13.2671C40.2288 13.2671 40.0969 13.2671 39.965 13.1335V12.9998C39.965 12.4651 39.8332 11.7968 39.7013 11.2621C39.7013 11.1284 39.7013 11.1284 39.5694 11.1284C39.3056 11.1284 39.1738 11.1284 38.91 11.1284C38.7781 11.1284 38.6463 11.1284 38.5144 11.1284C38.3825 11.1284 38.1187 11.1284 37.9868 11.1284C37.9868 11.2621 37.9868 11.3958 37.9868 11.6631C37.8549 12.0641 37.855 12.5988 37.7231 12.9998C37.7231 13.1334 37.5912 13.2671 37.5912 13.4008C37.5912 13.5345 37.4593 13.5345 37.3274 13.5345C37.1955 13.5345 37.1956 13.4008 37.1956 13.2671C37.3274 12.8661 37.3274 12.5988 37.4593 12.1978C37.5912 11.2621 37.8549 10.1927 37.9868 9.25705C38.1187 8.32136 38.3825 7.38568 38.5144 6.45C38.6463 5.91532 38.6462 5.38064 38.7781 4.97964C38.7781 4.7123 38.91 4.44496 38.91 4.17762C38.91 3.77662 38.91 3.64295 38.91 3.64295ZM39.7013 10.7274C39.7013 10.4601 39.7013 10.1927 39.7013 9.79172C39.7013 9.25705 39.7013 8.72237 39.5694 8.18769C39.4375 7.11834 39.3057 5.91532 39.1738 4.84597V4.7123C39.1738 4.84597 39.1738 4.84597 39.0419 4.97964C38.7781 6.31633 38.5144 7.78669 38.2506 9.12338C38.1187 9.52439 38.1187 9.79172 38.1187 10.1927C38.1187 10.3264 38.1187 10.4601 38.2506 10.4601H38.3825C38.6462 10.4601 38.91 10.5937 39.1738 10.5937C39.4375 10.7274 39.5694 10.7274 39.7013 10.7274Z" fill="white"/>
<path d="M51.4387 11.1285C51.175 11.1285 50.9112 10.9949 50.7793 11.1285C50.6474 11.1285 50.5156 11.1285 50.2518 11.1285C50.1199 11.1285 49.8562 11.1285 49.7243 11.1285C49.7243 11.2622 49.7243 11.2622 49.7243 11.3959C49.7243 11.9305 49.5924 12.4652 49.4605 12.8662C49.4605 12.9999 49.3286 13.1336 49.3286 13.2672C49.3286 13.4009 49.1968 13.4009 49.0649 13.4009C48.933 13.4009 48.933 13.2672 48.933 13.1336C49.3286 11.6632 49.4605 10.1929 49.7243 8.72249C49.8562 7.78681 50.1199 6.98479 50.2518 6.04911C50.3837 5.6481 50.3837 5.2471 50.3837 4.71242C50.3837 4.44508 50.5155 4.17774 50.5155 3.91041V3.77674C50.6474 3.77674 50.7793 3.77674 50.9112 3.64307C51.0431 3.64307 51.1749 3.64307 51.1749 3.77674V3.91041C51.1749 5.11343 51.3068 6.31645 51.4387 7.51947C51.5706 8.58882 51.7025 9.52451 51.9662 10.5939C51.9662 10.7275 51.9662 10.8612 51.9662 10.8612C51.9662 10.9949 51.9662 10.9949 51.9662 11.1285C51.9662 11.2622 51.9662 11.3959 51.9662 11.5295C51.9662 11.9305 52.0981 12.3316 52.0981 12.7326C52.0981 12.8662 52.0981 12.9999 52.0981 13.2672C52.0981 13.4009 52.0981 13.4009 51.9662 13.4009C51.8344 13.4009 51.7025 13.4009 51.7025 13.2672C51.7025 13.1336 51.7025 13.1336 51.7025 12.9999C51.7025 12.3316 51.5706 11.7969 51.4387 11.1285ZM50.9112 4.84609C50.9112 4.97976 50.9112 4.97976 50.7793 5.11343C50.5156 6.31645 50.2518 7.51947 50.1199 8.72249C49.988 9.25717 49.988 9.65817 49.8561 10.1928C49.7243 10.5939 49.8562 10.7275 50.2518 10.7275C50.6474 10.8612 50.9112 10.8612 51.3068 10.8612H51.4387C51.4387 10.5939 51.4387 10.3265 51.4387 10.1928C51.4387 9.5245 51.4387 8.85616 51.3068 8.05415C51.175 7.11846 51.0431 6.04911 51.0431 5.11343C50.9112 4.84609 50.9112 4.84609 50.9112 4.84609Z" fill="white"/>
<path d="M35.3492 12.8665C35.2173 13.0002 35.0854 13.0002 34.9536 13.1338C34.8217 13.2675 34.5579 13.4012 34.2941 13.4012H34.1623C34.0304 13.4012 33.8985 13.4012 33.7666 13.4012C33.5029 13.2675 33.2391 13.2675 32.9753 13.1338C32.7116 13.0002 32.4478 12.7328 32.3159 12.3318C32.184 11.9308 32.0521 11.5298 32.0521 11.1288C31.9203 9.3911 31.9203 7.6534 31.9203 5.91571C31.9203 5.38103 32.0521 4.71268 32.184 4.17801C32.3159 3.777 32.4478 3.50966 32.5797 3.10866C32.9753 2.57398 33.5028 2.30664 34.1623 2.30664C34.2941 2.30664 34.2942 2.30664 34.426 2.30664C34.5579 2.30664 34.5579 2.44031 34.5579 2.57398C34.5579 2.70765 34.426 2.70765 34.426 2.70765C34.2942 2.70765 34.2941 2.70765 34.1623 2.70765C33.7666 2.57398 33.5029 2.70765 33.2391 2.97499C33.1072 3.24232 32.9753 3.37599 32.8434 3.64333C32.7116 4.17801 32.5797 4.57901 32.5797 5.11369C32.4478 6.04937 32.4478 6.98506 32.4478 7.92074C32.4478 8.45542 32.4478 9.12376 32.4478 9.65844C32.4478 10.3268 32.5797 10.9951 32.7115 11.6635C32.8434 12.0645 32.9753 12.4655 33.2391 12.7328C33.8985 13.4012 34.9535 13.2675 35.4811 12.4655V12.3318C35.4811 11.9308 35.4811 11.5298 35.3492 11.1288C35.3492 10.9951 35.2173 10.8615 35.2173 10.7278C35.2173 10.5941 35.0854 10.5941 34.9536 10.5941C34.8217 10.5941 34.6898 10.5941 34.426 10.5941C34.2942 10.5941 34.2941 10.5941 34.1623 10.5941C34.0304 10.4605 34.0304 10.3268 34.1623 10.3268C34.1623 10.3268 34.1623 10.3268 34.2941 10.3268C34.5579 10.1931 34.8217 10.1931 35.2173 10.1931C35.4811 10.1931 35.613 10.3268 35.613 10.4605C35.613 10.5941 35.613 10.5941 35.613 10.7278C35.613 11.2625 35.7449 11.7971 35.7449 12.3318C35.7449 12.5992 35.8767 13.0002 35.8767 13.2675C35.8767 13.4012 35.8767 13.5348 35.7449 13.5348C35.613 13.5348 35.4811 13.5348 35.3492 13.2675C35.4811 13.0002 35.4811 13.0002 35.3492 12.8665Z" fill="white"/>
<path d="M39.5694 20.0841C39.5694 19.0147 39.5694 17.9454 39.5694 16.876C39.5694 16.6087 39.5694 16.3413 39.5694 16.074C39.5694 15.9403 39.5694 15.9403 39.5694 15.8066C39.4375 15.673 39.5694 15.4056 39.7013 15.272C39.8332 15.272 39.8331 15.272 39.965 15.272C40.0969 15.4056 40.3607 15.5393 40.4926 15.5393C40.6245 15.5393 40.8882 15.673 41.0201 15.8066C41.2839 15.9403 41.4157 16.2077 41.6795 16.3413C41.8114 16.6087 41.9433 16.7423 42.0751 17.0097C42.207 17.1433 42.207 17.277 42.207 17.5443C42.3389 18.079 42.3389 18.6137 42.3389 19.1484C42.3389 19.4157 42.3389 19.6831 42.3389 20.0841V20.2177C42.3389 20.7524 42.207 21.1534 42.207 21.6881C42.207 22.0891 42.0751 22.3564 41.9433 22.7574C41.6795 23.4258 41.2839 23.8268 40.7563 24.2278H40.6244C40.3607 24.2278 40.0969 24.2278 39.965 24.2278C39.8331 24.2278 39.8332 24.2278 39.7013 23.9605C39.7013 23.6931 39.7013 23.5595 39.7013 23.2921C39.7013 22.3564 39.5694 21.2871 39.5694 20.0841ZM40.0969 16.074V16.2077C40.0969 16.3413 40.0969 16.475 40.0969 16.6087C40.0969 17.678 40.0969 18.6137 40.0969 19.6831C40.0969 20.4851 40.0969 21.2871 40.0969 21.9554C40.0969 22.4901 40.0969 22.8911 40.2288 23.4258C40.2288 23.5595 40.2288 23.8268 40.3607 23.9605C40.6245 23.9605 40.7563 23.9605 40.8882 23.8268C41.2839 23.5595 41.5476 23.1584 41.6795 22.6238C41.8114 22.0891 41.9433 21.4207 41.9433 20.7524C41.9433 20.0841 41.9433 19.5494 41.9433 18.881C41.9433 18.2127 41.8114 17.5443 41.4157 17.0097C41.2839 16.7423 41.0201 16.475 40.7563 16.3413C40.6244 16.074 40.3607 16.074 40.0969 16.074Z" fill="white"/>
<path d="M36.6681 15.4056C36.8 15.4056 36.9319 15.272 37.0637 15.272C37.1956 15.272 37.3275 15.272 37.3275 15.4056V15.5393C37.3275 16.475 37.4594 17.277 37.4594 18.2127C37.4594 18.881 37.5913 19.5494 37.7232 20.0841C37.855 20.6187 37.855 21.0197 37.9869 21.5544C37.9869 21.6881 37.9869 21.8218 38.1188 22.0891V22.2228C37.9869 22.4901 38.1188 22.7574 38.1188 23.0248C38.1188 23.2921 38.2507 23.6931 38.2507 23.9605C38.2507 24.0941 38.2507 24.0941 38.2507 24.2278C38.2507 24.3615 38.2507 24.3615 38.1188 24.3615C37.855 24.3615 37.855 24.3615 37.855 24.0941C37.855 23.5595 37.7232 23.0248 37.7232 22.4901C37.7232 22.3564 37.7231 22.3564 37.4594 22.2228C37.3275 22.2228 37.1956 22.2228 37.1956 22.2228C36.9319 22.2228 36.6681 22.2228 36.4043 22.2228C36.0087 22.2228 36.0087 22.2228 36.0087 22.6238C36.0087 23.0248 35.8768 23.5595 35.7449 23.9605C35.7449 24.0941 35.613 24.0941 35.613 24.2278C35.613 24.3615 35.4811 24.3615 35.3493 24.3615C35.2174 24.3615 35.2174 24.2278 35.2174 24.0941C35.4812 23.4258 35.4812 22.6238 35.613 21.9554C35.7449 20.8861 36.0087 19.8167 36.1406 18.881C36.2724 18.3464 36.4043 17.8117 36.4043 17.277C36.5362 16.876 36.5362 16.3413 36.5362 15.9403C36.6681 15.673 36.6681 15.5393 36.6681 15.4056ZM37.0637 16.475C37.0637 16.6087 37.0637 16.6087 36.9319 16.7423C36.6681 17.8117 36.5362 18.881 36.2724 19.8167C36.1406 20.3514 36.0087 20.8861 36.0087 21.4207C36.0087 21.6881 36.0087 21.6881 36.2724 21.8218C36.5362 21.9554 36.8 21.9554 37.0637 21.9554C37.1956 21.9554 37.3275 21.9554 37.5913 21.9554C37.5913 21.6881 37.5913 21.5544 37.5913 21.2871C37.5913 20.6187 37.5913 19.9504 37.4594 19.282C37.3275 18.48 37.3275 17.678 37.1956 16.7423C37.0638 16.7423 37.0637 16.6087 37.0637 16.475Z" fill="white"/>
<path d="M55.2635 15.4056C55.3953 15.4056 55.5273 15.272 55.6591 15.272C55.791 15.272 55.9229 15.4056 55.9229 15.4056C55.9229 15.5393 55.9229 15.673 55.9229 15.8066C56.0548 16.876 56.0548 18.079 56.1867 19.1484C56.1867 19.9504 56.4504 20.7524 56.5823 21.5544C56.5823 21.6881 56.5823 21.8218 56.5823 21.8218C56.5823 21.9554 56.5823 21.9554 56.5823 22.0891C56.4504 22.3564 56.5823 22.6238 56.5823 23.0248C56.5823 23.2921 56.7142 23.5595 56.7142 23.6931C56.7142 23.8268 56.7142 23.8268 56.7142 23.9605C56.7142 24.2278 56.7142 24.2278 56.5823 24.2278C56.3185 24.2278 56.3185 24.2278 56.3185 23.9605C56.3185 23.6931 56.3185 23.5595 56.3185 23.2921C56.3185 23.0248 56.1867 22.6238 56.1867 22.3564C56.1867 22.2228 56.1866 22.2228 56.0548 22.2228C55.791 22.2228 55.6591 22.2228 55.3954 22.2228C55.2635 22.2228 55.1316 22.2228 54.9997 22.2228C54.8678 22.2228 54.7359 22.2228 54.6041 22.2228C54.4722 22.2228 54.4722 22.2228 54.4722 22.3564C54.4722 22.6238 54.4722 22.8911 54.3403 23.1584C54.3403 23.4258 54.2084 23.5595 54.2084 23.8268C54.2084 23.9605 54.2084 23.9605 54.0765 24.0941C53.9447 24.2278 53.9446 24.2278 53.8128 24.2278C53.6809 24.2278 53.6809 24.0941 53.6809 23.9605C53.6809 23.8268 53.8128 23.6931 53.8128 23.5595C53.9446 22.7574 54.0765 21.9554 54.2084 21.1534C54.4722 19.9504 54.6041 18.7474 54.8678 17.4107C54.9997 17.0097 54.9997 16.475 54.9997 16.074C55.2635 15.9403 55.2635 15.673 55.2635 15.4056ZM55.6591 16.475C55.6591 16.6087 55.6591 16.6087 55.6591 16.475C55.3954 17.8117 55.1316 19.0147 54.8678 20.2177C54.736 20.6187 54.7359 21.0197 54.6041 21.4207C54.6041 21.6881 54.6041 21.8218 54.8678 21.8218C55.1316 21.8218 55.2635 21.9554 55.5272 21.9554C55.6591 21.9554 55.9229 21.9554 56.0548 21.9554C56.0548 21.9554 56.0548 21.9554 56.0548 21.8218C56.0548 21.5544 56.0548 21.2871 56.0548 21.0197C56.0548 20.4851 55.9229 19.9504 55.9229 19.4157C55.9229 18.7474 55.791 18.2127 55.6591 17.5443C55.791 17.277 55.6591 16.876 55.6591 16.475Z" fill="white"/>
<path d="M45.8995 8.72224C45.8995 9.79159 45.8995 10.8609 45.8995 11.9303C45.8995 12.3313 45.8995 12.7323 45.8995 13.267C45.8995 13.5343 45.8996 13.5343 45.6358 13.5343C45.5039 13.5343 45.372 13.4007 45.372 13.267C45.2401 12.3313 45.2401 11.5293 45.2401 10.5936C45.2401 10.0589 45.2401 9.39059 45.2401 8.85591V8.72224C45.1083 8.4549 45.2401 8.32123 45.2401 8.18756C45.2401 7.78656 45.372 7.38555 45.372 6.98454C45.372 6.44987 45.372 5.78152 45.372 5.24685C45.372 4.97951 45.372 4.71217 45.372 4.44483C45.372 4.31116 45.372 4.17749 45.5039 4.04383C45.5039 3.91016 45.6358 3.91016 45.6358 3.91016C45.7677 3.91016 46.0314 3.91016 46.1633 3.91016C46.2952 3.91016 46.4271 3.91016 46.4271 4.04383C46.559 4.04383 46.6908 4.17749 46.8227 4.31116C47.0865 4.44483 47.2184 4.71217 47.2184 4.97951C47.2184 5.24685 47.3502 5.51418 47.3502 5.78152C47.3502 6.3162 47.3502 6.98454 47.3502 7.51922C47.2184 7.92023 47.0865 8.32123 46.6908 8.4549C46.4271 8.58857 46.1633 8.72224 46.0314 8.85591C46.0314 8.58857 46.0314 8.72224 45.8995 8.72224ZM45.8995 6.3162C45.8995 6.71721 45.8995 7.25188 45.8995 7.65289C45.8995 7.78656 45.8995 7.92023 45.8995 8.0539C45.8995 8.18757 46.0314 8.32123 46.1633 8.32123C46.4271 8.32123 46.559 8.18757 46.6908 7.92023C46.8227 7.78656 46.9546 7.51922 46.9546 7.38555C47.0865 6.71721 47.0865 6.04886 47.0865 5.38052C47.0865 5.24685 47.0865 5.11318 46.9546 4.97951C46.8227 4.71217 46.6909 4.44483 46.2952 4.44483C45.8996 4.44483 45.7677 4.44483 45.7677 4.84584V4.97951C45.8996 5.24685 45.8995 5.78152 45.8995 6.3162Z" fill="white"/>
<path d="M50.9111 24.3615C50.6473 24.3615 50.6473 24.3615 50.6473 24.0941C50.6473 23.6931 50.6473 23.2921 50.6473 22.7574C50.6473 21.0197 50.5154 19.282 50.5154 17.5443C50.5154 17.0097 50.5154 16.475 50.5154 15.8066C50.5154 15.673 50.5154 15.5393 50.5154 15.4056C50.5154 15.272 50.6473 15.272 50.7792 15.272C51.1748 15.272 51.4386 15.272 51.7023 15.5393C51.9661 15.673 52.098 16.074 52.2299 16.3413C52.2299 16.7423 52.2299 17.1433 52.2299 17.678C52.2299 17.9454 52.098 18.079 52.098 18.3464C51.9661 18.6137 51.8342 18.881 51.7023 19.1484C51.7023 19.282 51.5705 19.4157 51.7023 19.5494C51.9661 20.8861 52.3617 22.0891 52.6255 23.4258C52.6255 23.5595 52.7574 23.6931 52.7574 23.8268C52.7574 23.9605 52.8893 24.0941 52.8893 24.2278C52.8893 24.3615 52.8893 24.3615 52.7574 24.3615C52.6255 24.3615 52.6255 24.2278 52.4936 24.2278C52.3617 23.9605 52.2299 23.6931 52.2299 23.4258C52.098 22.7574 51.9661 22.0891 51.8342 21.4207C51.7023 21.0197 51.7023 20.4851 51.5705 20.0841C51.5705 19.9504 51.4386 19.8167 51.4386 19.8167C51.4386 19.6831 51.3067 19.6831 51.1748 19.6831C51.0429 19.6831 51.0429 19.8167 51.0429 19.9504C51.0429 20.3514 51.0429 20.6187 51.0429 21.0197C51.0429 21.6881 51.0429 22.4901 51.1748 23.1584C51.1748 23.4258 51.1748 23.8268 51.3067 24.0941C50.911 24.0941 50.9111 24.2278 50.9111 24.3615ZM50.7792 19.282C50.911 19.282 51.0429 19.282 51.1748 19.1484C51.3067 19.0147 51.4386 18.881 51.4386 18.6137C51.7023 17.9454 51.8342 17.277 51.7023 16.6087C51.7023 16.475 51.7023 16.2077 51.5705 16.074C51.4386 15.673 51.1748 15.673 50.9111 15.5393C50.7792 15.5393 50.7792 15.5393 50.7792 15.673C50.7792 15.8066 50.7792 15.9403 50.7792 15.9403C50.7792 16.876 50.7792 17.678 50.7792 18.6137C50.7792 19.0147 50.7792 19.1484 50.7792 19.282Z" fill="white"/>
<path d="M43.6577 34.3866C43.5258 34.3866 43.3939 34.2529 43.3939 34.2529C43.5258 33.9856 43.5258 33.8519 43.5258 33.5846C43.6577 33.0499 43.7896 32.5152 43.7896 31.9806C44.0534 30.6439 44.3171 29.1735 44.5808 27.8368C44.7127 27.4358 44.7127 27.0348 44.8446 26.6338C44.8446 26.5001 44.9765 26.3665 44.9765 26.2328C44.9765 26.0991 45.1084 26.0991 45.1084 26.0991C45.2403 26.0991 45.2403 26.0991 45.3721 26.2328C45.3721 26.3665 45.3721 26.3665 45.3721 26.5001C45.3721 26.9011 45.504 27.3021 45.504 27.7032C45.504 28.3715 45.6359 29.0398 45.6359 29.8419C45.6359 30.1092 45.6359 30.3765 45.6359 30.6439C45.6359 30.7775 45.6359 31.0449 45.7678 31.1785V31.3122C45.7678 31.9806 45.7678 32.7826 45.8997 33.4509C45.8997 33.7183 45.8997 33.9856 45.8997 34.2529C45.8997 34.3866 45.8997 34.3866 45.7678 34.5203C45.6359 34.5203 45.6359 34.5203 45.504 34.5203L45.3721 34.3866C45.3721 34.1193 45.3721 33.9856 45.3721 33.7183C45.3721 33.4509 45.3721 33.1836 45.3721 33.0499C45.3721 32.9162 45.3722 32.7826 45.1084 32.7826C44.8446 32.7826 44.5809 32.6489 44.449 32.6489C44.3171 32.6489 44.1852 32.6489 44.0533 32.6489C43.9214 32.6489 43.9215 32.6489 43.7896 32.7826C43.7896 33.0499 43.6577 33.1836 43.6577 33.4509C43.6577 33.7183 43.5258 33.9856 43.5258 34.2529C43.7896 34.1193 43.7896 34.2529 43.6577 34.3866ZM44.1852 32.1142C44.3171 32.1142 44.3171 32.1142 44.3171 32.1142C44.7128 32.2479 45.1084 32.2479 45.504 32.2479C45.6359 32.2479 45.6359 32.2479 45.6359 32.1142C45.6359 31.9806 45.6359 31.7132 45.6359 31.5796C45.6359 30.1092 45.504 28.6388 45.2403 27.1685C45.2403 27.0348 45.2403 27.0348 45.2403 26.9011C45.2403 26.9011 45.1084 26.9011 45.1084 27.0348C45.1084 27.1685 45.1084 27.3021 44.9765 27.4358C44.8446 27.8368 44.8446 28.2378 44.7127 28.6388C44.5809 29.5745 44.449 30.5102 44.1852 31.4459C44.1852 31.7132 44.1852 31.8469 44.1852 32.1142Z" fill="white"/>
<path d="M32.9753 34.3873C32.9753 34.2537 32.9753 34.2537 32.9753 34.12C32.9753 33.0506 32.9753 31.9813 32.9753 30.7783C32.9753 29.7089 32.9753 28.6396 32.9753 27.5702C32.9753 27.4365 32.9753 27.4365 32.9753 27.3029C32.8434 27.1692 32.9753 26.9019 33.1072 26.9019H33.2391C33.3709 27.0355 33.5028 27.0355 33.6347 27.0355C33.7666 27.0355 33.8984 27.1692 34.0303 27.1692C34.1622 27.3029 34.426 27.4365 34.5579 27.7039C34.5579 27.7039 34.5579 27.7039 34.5579 27.8375C34.5579 27.9712 34.6897 27.9712 34.6897 28.1049C34.9535 28.3722 35.0854 28.7732 35.0854 29.1742C35.0854 29.5752 35.0854 29.8426 35.0854 30.2436C35.0854 30.5109 35.0854 30.6446 35.0854 30.9119C35.0854 30.9119 35.0854 30.9119 35.0854 31.0456C35.0854 31.5803 34.9535 31.9813 34.9535 32.516C34.9535 32.6496 34.9535 32.7833 34.8216 32.917C34.6897 33.5853 34.2941 33.9863 33.7666 34.2537H33.6347C33.5028 34.3873 33.3709 34.3873 32.9753 34.3873ZM33.5028 34.12C33.6347 34.12 33.7666 34.12 34.0303 33.9863C34.426 33.719 34.6897 33.318 34.8216 32.7833C34.9535 32.2486 34.9535 31.8476 34.9535 31.3129C34.9535 30.7783 34.9535 30.2436 34.9535 29.7089C34.9535 29.1742 34.8216 28.7732 34.5579 28.2385C34.426 27.9712 34.2941 27.8375 34.1622 27.7039C34.0303 27.5702 33.8985 27.5702 33.7666 27.5702C33.6347 27.5702 33.6347 27.5702 33.5028 27.7039C33.5028 27.9712 33.5028 28.3722 33.5028 28.6396C33.5028 29.8426 33.5028 30.9119 33.5028 32.115C33.5028 32.6496 33.5028 33.1843 33.6347 33.719C33.3709 33.8526 33.3709 33.9863 33.5028 34.12Z" fill="white"/>
<path d="M38.2504 32.7833C38.1186 32.7833 37.8548 32.7833 37.7229 32.7833C37.591 32.7833 37.4591 32.7833 37.3273 32.7833C37.1954 32.7833 37.1954 32.7833 37.0635 32.7833C36.9316 32.7833 36.9316 32.7833 36.9316 32.917C36.9316 33.1843 36.7997 33.4516 36.7997 33.719C36.7997 33.8526 36.6678 34.12 36.6678 34.2537V34.3873C36.6678 34.521 36.536 34.521 36.4041 34.521C36.2722 34.521 36.2722 34.3873 36.2722 34.2537C36.2722 34.12 36.4041 33.8526 36.4041 33.719C36.536 32.917 36.6679 32.1149 36.7997 31.1793C36.9316 30.3773 37.0635 29.5752 37.1954 28.7732C37.3273 28.3722 37.3273 27.8375 37.3273 27.4365C37.3273 27.3029 37.3273 27.1692 37.3273 27.0355C37.4591 27.0355 37.591 27.0355 37.7229 26.9019C37.8548 26.9019 37.8548 26.9019 37.8548 27.0355C37.8548 27.1692 37.8548 27.1692 37.8548 27.3029C37.8548 28.5059 37.9867 29.7089 38.1186 30.9119C38.1186 31.3129 38.2505 31.5803 38.3823 31.9813C38.3823 32.1149 38.3823 32.2486 38.5142 32.3823V32.516C38.3823 32.7833 38.5142 33.0506 38.5142 33.318C38.5142 33.5853 38.6461 33.719 38.6461 33.9863V34.12C38.6461 34.2537 38.6461 34.2537 38.5142 34.2537C38.3823 34.2537 38.2504 34.2537 38.2504 34.12C38.2504 33.8526 38.2504 33.5853 38.1186 33.318C38.3823 33.318 38.3823 33.0506 38.2504 32.7833ZM37.8548 27.8375C37.8548 27.9712 37.8548 27.9712 37.8548 28.1049C37.7229 29.0406 37.4591 29.9762 37.3273 30.9119C37.1954 31.3129 37.1954 31.7139 37.0635 32.115C37.0635 32.3823 37.0635 32.3823 37.3273 32.3823C37.591 32.3823 37.7229 32.516 37.9867 32.516C38.1185 32.516 38.2505 32.516 38.3823 32.516C38.3823 31.7139 38.2504 30.9119 38.2504 30.2436C37.9867 29.4416 37.9867 28.6396 37.8548 27.8375Z" fill="white"/>
<path d="M44.1851 21.4211C44.1851 21.9557 44.1851 22.3567 44.1851 22.8914C44.1851 23.1588 44.1851 23.4261 44.317 23.6934C44.317 23.9608 44.4489 23.9608 44.7127 23.9608C44.8445 23.9608 44.9764 23.9608 45.1083 23.9608C45.2402 23.9608 45.3721 23.9608 45.504 23.9608C45.6358 23.9608 45.6358 23.9608 45.6358 24.0944C45.6358 24.2281 45.6358 24.2281 45.504 24.2281C45.3721 24.2281 45.2402 24.2281 45.1083 24.2281C44.7127 24.2281 44.317 24.2281 43.9214 24.2281C43.6576 24.2281 43.6576 24.0944 43.6576 23.9608C43.6576 23.6934 43.6576 23.5598 43.6576 23.2924C43.6576 23.1588 43.6576 22.8914 43.6576 22.7578C43.5257 21.5547 43.6576 20.3517 43.6576 19.1487C43.6576 18.0793 43.6576 17.01 43.6576 15.9406C43.6576 15.807 43.6576 15.807 43.6576 15.6733C43.6576 15.406 43.9214 15.2723 44.1851 15.406C44.317 15.5396 44.4489 15.5396 44.7127 15.5396C44.8445 15.5396 44.9764 15.5396 45.1083 15.6733H45.2402C45.3721 15.6733 45.3721 15.807 45.3721 15.807C45.3721 15.9406 45.2402 15.9406 45.2402 16.0743H45.1083C44.8446 16.0743 44.7127 15.9406 44.4489 15.9406C44.317 15.9406 44.317 15.9406 44.1851 15.9406C44.0533 15.9406 44.0532 15.9406 43.9214 16.0743C43.9214 16.4753 43.9214 17.01 43.9214 17.411C43.9214 17.6783 43.9214 18.0793 43.9214 18.3467C43.9214 18.4803 43.9214 18.4803 43.9214 18.614C43.9214 18.8813 44.0533 18.8813 44.1851 18.8813C44.317 18.8813 44.4489 18.8813 44.5808 18.8813H44.7127C44.8445 18.8813 44.9764 19.015 44.8445 19.1487C44.8445 19.2824 44.7126 19.416 44.5808 19.416C44.4489 19.416 44.4489 19.416 44.317 19.416C44.1851 19.2824 43.9214 19.2824 43.7895 19.2824C43.6576 19.2824 43.6576 19.2824 43.6576 19.416C43.6576 19.416 43.6576 19.416 43.6576 19.5497C44.1851 20.218 44.1851 20.8864 44.1851 21.4211Z" fill="white"/>
<path d="M48.0099 19.8171C48.0099 20.6191 48.0099 21.4211 48.1417 22.0895C48.1417 22.4905 48.1417 22.7578 48.1417 23.1588C48.1417 23.2925 48.1417 23.4261 48.1417 23.5598C48.1417 23.6935 48.1418 23.8272 48.4055 23.8272C48.5374 23.8272 48.6693 23.8272 48.8012 23.8272C48.933 23.8272 48.9331 23.8272 49.0649 23.8272C49.1968 23.8272 49.1968 23.8272 49.1968 23.9608C49.1968 24.0945 49.1968 24.0945 49.0649 24.2282C49.0649 24.2282 48.933 24.2282 48.8012 24.2282C48.6693 24.2282 48.6693 24.2282 48.5374 24.2282C48.4055 24.2282 48.2736 24.2282 48.1417 24.2282C48.0099 24.3618 47.7461 24.3618 47.6142 24.2282H47.4823C47.3505 24.2282 47.3504 24.2282 47.2186 24.2282C47.0867 24.2282 47.0867 24.0945 47.2186 23.9608C47.2186 23.9608 47.3504 23.9608 47.3504 23.8272C47.7461 23.8272 47.7461 23.8272 47.7461 23.4261C47.7461 23.1588 47.7461 22.7578 47.7461 22.4905C47.7461 21.4211 47.6142 20.2181 47.7461 19.1487C47.7461 18.4804 47.7461 17.812 47.7461 17.1437C47.7461 16.7427 47.7461 16.4754 47.7461 16.0743C47.7461 15.9407 47.7461 15.9407 47.6142 15.9407C47.4823 15.9407 47.3504 15.9407 47.2186 15.9407C47.0867 15.9407 47.0867 15.9407 46.9548 15.9407C46.8229 15.9407 46.691 15.9407 46.691 15.807C46.691 15.6733 46.691 15.6733 46.8229 15.6733C46.9548 15.6733 47.0867 15.6733 47.2186 15.6733C47.6142 15.6733 48.0099 15.6733 48.4055 15.807C48.5374 15.807 48.6693 15.807 48.6693 15.9407L48.8012 16.0743C48.8012 16.208 48.8011 16.208 48.6693 16.208C48.5374 16.208 48.5374 16.208 48.4055 16.208C48.4055 16.208 48.4055 16.208 48.2736 16.208C48.0099 16.0743 48.0099 16.208 48.0099 16.4754C48.0099 17.01 48.0099 17.411 48.0099 17.9457C48.0099 18.3467 48.0099 19.0151 48.0099 19.8171Z" fill="white"/>
<path d="M42.207 3.91016C42.3388 3.91016 42.3389 3.91016 42.4707 3.91016C42.4707 4.04383 42.4707 4.04383 42.4707 4.04383C42.4707 5.38052 42.4707 6.71721 42.4707 8.0539C42.4707 8.4549 42.4707 8.85591 42.4707 9.25692C42.4707 9.65792 42.4707 10.0589 42.4707 10.4599C42.4707 10.5936 42.4707 10.7273 42.4707 10.7273V10.8609C42.4707 11.1283 42.4707 11.5293 42.4707 11.7966C42.4707 12.064 42.4707 12.3313 42.4707 12.465C42.4707 12.7323 42.4707 12.7323 42.7345 12.7323C43.1301 12.7323 43.3939 12.7323 43.7896 12.7323C43.9214 12.7323 43.9214 12.7323 44.0533 12.7323C44.1852 12.7323 44.1852 12.866 44.1852 12.9996C44.1852 13.1333 44.0533 13.1333 44.0533 13.1333C43.7895 13.1333 43.6577 13.1333 43.3939 13.1333C43.1301 13.1333 42.7345 13.1333 42.4707 13.1333C42.207 13.1333 42.0751 12.9996 42.0751 12.866C42.0751 12.7323 42.0751 12.465 42.0751 12.3313C42.0751 11.5293 42.0751 10.7273 42.0751 9.92526C42.0751 8.18757 42.0751 6.58354 42.0751 4.84584C42.0751 4.5785 42.0751 4.17749 42.0751 3.91016C42.207 4.04383 42.207 3.91016 42.207 3.91016Z" fill="white"/>
<path d="M47.2184 30.5105C47.2184 29.8422 47.2184 28.6392 47.2184 27.5698C47.2184 27.4362 47.2184 27.3025 47.2184 27.3025C47.2184 27.1688 47.3503 27.0352 47.4822 27.0352C47.7459 27.0352 48.0097 27.0352 48.1416 27.1688C48.4053 27.3025 48.6691 27.5698 48.6691 27.9708C48.6691 28.3718 48.6691 28.6392 48.6691 29.0402C48.6691 29.3075 48.5372 29.4412 48.5372 29.7085C48.4053 29.9759 48.2735 30.1095 48.2735 30.3769C48.2735 30.5106 48.1416 30.5105 48.2735 30.6442C48.5372 31.7136 48.801 32.7829 49.0648 33.9859C49.0648 34.1196 49.1966 34.2533 49.1966 34.387C49.1966 34.5206 49.1966 34.5206 49.3285 34.6543C49.3285 34.788 49.3285 34.788 49.1966 34.788C49.0647 34.788 49.0648 34.6543 48.9329 34.6543C48.801 34.387 48.801 34.1196 48.6691 33.8523C48.5372 33.1839 48.4053 32.6493 48.2735 31.9809C48.2735 31.7136 48.1416 31.4462 48.1416 31.1789V31.0452C48.0097 30.9116 48.0097 30.9116 47.8778 30.9116C47.7459 30.9116 47.7459 31.0452 47.7459 31.1789C47.7459 31.5799 47.7459 31.9809 47.7459 32.3819C47.7459 32.9166 47.7459 33.5849 47.8778 34.1196C47.8778 34.2533 47.8778 34.387 47.8778 34.5206V34.6543C47.8778 34.788 47.8778 34.788 47.7459 34.788C47.6141 34.788 47.6141 34.788 47.6141 34.6543C47.6141 34.387 47.6141 34.2533 47.6141 33.9859C47.3503 32.7829 47.3503 31.8472 47.2184 30.5105ZM47.6141 30.2432C47.7459 30.2432 47.8778 30.2432 48.0097 30.1095C48.1416 29.9759 48.1416 29.8422 48.2735 29.7085C48.5372 29.1739 48.5372 28.6392 48.5372 27.9708C48.5372 27.8372 48.5372 27.7035 48.4054 27.5698C48.2735 27.3025 48.1416 27.1688 47.8778 27.1688C47.7459 27.1688 47.7459 27.1688 47.7459 27.3025C47.7459 27.4362 47.7459 27.5698 47.7459 27.5698C47.7459 28.2382 47.7459 28.7729 47.7459 29.4412C47.6141 29.8422 47.6141 30.1095 47.6141 30.2432Z" fill="white"/>
<path d="M32.5796 16.3412C32.5796 17.2769 32.5796 18.0789 32.7115 19.0146C32.7115 19.1483 32.7115 19.1483 32.7115 19.2819C32.7115 19.6829 32.7115 19.9503 32.7115 20.3513C32.7115 20.886 32.7115 21.4206 32.7115 22.089C32.7115 22.49 32.7115 22.891 32.8434 23.4257V23.5593C32.8434 23.5593 32.8434 23.5593 32.8434 23.693C32.8434 24.094 32.9752 24.2277 33.3709 24.094C33.5028 23.9604 33.7666 24.094 33.8984 24.094C34.0303 24.094 34.1622 24.3614 34.0303 24.495C34.0303 24.6287 33.8984 24.6287 33.8984 24.6287C33.6347 24.6287 33.3709 24.6287 33.1071 24.6287C33.1071 24.6287 32.9753 24.6287 32.9753 24.7624C32.8434 24.896 32.7115 24.896 32.5796 24.7624C32.4477 24.6287 32.4477 24.495 32.4477 24.3614C32.5796 23.9604 32.4477 23.5593 32.4477 23.1583C32.4477 21.9553 32.3158 20.7523 32.3158 19.5493C32.3158 17.9452 32.184 16.3412 32.184 14.7372C32.184 14.6035 32.184 14.6035 32.3158 14.6035C32.4477 14.6035 32.5796 14.6035 32.5796 14.7372V14.8709C32.5796 15.0045 32.5796 15.6729 32.5796 16.3412Z" fill="white"/>
<path d="M53.5486 32.1145C53.5486 32.6492 53.5486 33.0502 53.5486 33.5849C53.5486 33.7186 53.5486 33.8522 53.5486 33.9859C53.5486 34.2532 53.6805 34.2532 53.8124 34.2532C53.9442 34.2532 54.208 34.2532 54.3399 34.2532C54.4718 34.2532 54.4718 34.2532 54.6037 34.2532C54.6037 34.2532 54.7356 34.2532 54.7356 34.3869C54.7356 34.3869 54.7355 34.5206 54.6037 34.5206C54.4718 34.5206 54.4718 34.6542 54.3399 34.6542C54.0762 34.6542 53.6805 34.6542 53.4167 34.6542C53.2849 34.6542 53.153 34.5206 53.153 34.3869C53.153 34.2532 53.153 33.9859 53.153 33.8522C53.153 33.5849 53.153 33.3175 53.153 33.0502C53.153 32.2482 53.153 31.4462 53.153 30.7778C53.153 30.2432 53.153 29.5748 53.153 29.0401C53.153 28.6391 53.153 28.2381 53.153 27.7035V27.5698C53.153 27.3024 53.2849 27.1688 53.5486 27.3024C53.6805 27.4361 53.9443 27.4361 54.0761 27.4361C54.208 27.4361 54.3399 27.4361 54.4718 27.5698C54.6037 27.5698 54.6037 27.7035 54.6037 27.7035C54.6037 27.8371 54.4718 27.8371 54.3399 27.8371C54.208 27.8371 53.9442 27.7035 53.8124 27.7035H53.6805C53.5486 27.7035 53.5486 27.7034 53.5486 27.8371C53.5486 28.1045 53.5486 28.2381 53.5486 28.5055C53.5486 28.9065 53.5486 29.4411 53.5486 29.8422V29.9758C53.5486 30.2432 53.6805 30.2432 53.8124 30.2432C53.9442 30.2432 54.0762 30.2432 54.208 30.2432C54.3399 30.2432 54.4718 30.3768 54.4718 30.5105C54.4718 30.6442 54.208 30.7778 54.0761 30.6442C53.9443 30.6442 53.8124 30.5105 53.6805 30.5105C53.5486 30.5105 53.5486 30.5105 53.5486 30.6442C53.5486 31.0452 53.5486 31.5799 53.5486 32.1145Z" fill="white"/>
<path d="M41.2839 32.5156C41.2839 31.8473 41.152 31.3126 40.8882 30.7779C40.7563 30.5106 40.6245 30.2432 40.4926 29.9759C40.2288 29.4412 40.0969 28.9066 40.0969 28.3719C40.0969 27.9709 40.2288 27.5699 40.3607 27.3025C40.4926 27.1689 40.4926 27.0352 40.6244 26.9015C40.7563 26.7679 41.0201 26.7679 41.2839 26.9015L41.4157 27.0352C41.4157 27.1689 41.4157 27.1689 41.2839 27.1689H41.152C40.8882 27.0352 40.7563 27.1689 40.6244 27.3025C40.4926 27.5699 40.3607 27.7035 40.3607 27.9709C40.3607 28.3719 40.3607 28.6392 40.4926 29.0402C40.6245 29.3076 40.6245 29.5749 40.8882 29.8422C41.152 30.2432 41.2839 30.5106 41.4157 30.9116C41.5476 31.3126 41.6795 31.7136 41.6795 32.1146C41.6795 32.5156 41.6795 32.9166 41.5476 33.4513C41.4157 33.585 41.4157 33.8523 41.2839 33.986C41.152 34.2533 40.8882 34.387 40.6244 34.387C40.4926 34.387 40.3607 34.387 40.2288 34.387L40.0969 34.2533C40.0969 34.1197 40.0969 34.1197 40.2288 34.1197C40.3607 34.1197 40.3607 34.1197 40.4926 34.1197C40.7564 34.1197 40.8882 34.1196 41.0201 33.986C41.152 33.8523 41.2839 33.7186 41.2839 33.585C41.152 33.184 41.2839 32.9166 41.2839 32.5156Z" fill="white"/>
<path d="M56.9776 32.516C56.9776 31.9813 56.8457 31.4466 56.5819 30.9119C56.4501 30.6446 56.3182 30.3773 56.1863 30.1099C55.9226 29.5752 55.7906 29.1742 55.7906 28.6396C55.7906 28.1049 55.9225 27.7039 56.0544 27.3029C56.1863 27.1692 56.3182 27.0355 56.5819 26.9019C56.7138 26.9019 56.8457 26.9019 56.9776 27.0355C56.9776 27.0355 57.1095 27.1692 56.9776 27.1692C56.9776 27.3029 56.8457 27.1692 56.8457 27.1692H56.7138C56.582 27.1692 56.4501 27.1692 56.3182 27.3029C56.1863 27.4365 56.1863 27.4365 56.1863 27.5702C56.0544 27.9712 55.9225 28.3722 56.0544 28.7732C56.1863 29.3079 56.3182 29.7089 56.5819 30.1099C56.7138 30.3773 56.9776 30.6446 57.1095 31.0456C57.2413 31.4466 57.3732 31.8476 57.3732 32.2486C57.3732 32.6496 57.3732 33.0506 57.2414 33.318C57.1095 33.5853 57.1095 33.8526 56.9776 33.9863C56.7139 34.2537 56.4501 34.3873 56.0544 34.3873C55.9225 34.3873 55.7906 34.3873 55.7906 34.2537V34.12H55.9225H56.0544C56.3182 34.12 56.4501 34.12 56.5819 33.9863C56.7138 33.8526 56.8457 33.719 56.8457 33.5853C56.9776 33.318 56.9776 32.917 56.9776 32.516Z" fill="white"/>
<path d="M51.3067 27.3029C51.3067 27.4365 51.3067 27.5702 51.3067 27.7039C51.3067 28.5059 51.3068 29.1742 51.4386 29.9762C51.4386 30.6446 51.5705 31.4466 51.5705 32.115C51.5705 32.7833 51.5705 33.318 51.7024 33.9863V34.12C51.7024 34.2537 51.5705 34.2537 51.5705 34.2537C51.4386 34.2537 51.4386 34.12 51.4386 34.12C51.4386 33.9863 51.4386 33.8526 51.4386 33.719C51.4386 32.917 51.4386 31.9813 51.3067 31.1793C51.3067 30.3773 51.1749 29.4416 51.1749 28.6396C51.1749 28.2385 51.1749 27.9712 51.1749 27.5702C51.1749 27.4365 51.1749 27.4365 51.1749 27.3029C50.9111 27.3029 50.6474 27.3029 50.3836 27.1692C50.3836 27.1692 50.3836 27.1692 50.2517 27.0355C50.2517 26.9019 50.3836 26.9019 50.5154 26.9019C50.7792 26.9019 51.043 26.9019 51.3067 26.9019C51.5705 26.9019 51.8343 26.9019 52.098 26.9019C52.2299 26.9019 52.3618 26.9019 52.3618 27.0355C52.3618 27.1692 52.2299 27.1692 52.098 27.1692C51.9662 27.1692 51.8343 27.1692 51.7024 27.1692C51.4387 27.4365 51.4386 27.4365 51.3067 27.3029Z" fill="white"/>
<path d="M51.7022 2.44008C51.8341 2.44008 51.8341 2.30641 51.8341 2.30641C51.9659 2.17274 52.0978 2.03907 51.966 1.9054C51.966 1.9054 51.8341 1.77173 51.966 1.77173C52.0978 1.77173 52.0978 1.77173 52.2297 1.77173L52.3616 1.9054C52.4935 2.17274 52.4935 2.44008 52.2297 2.57375C52.0978 2.84109 51.8341 2.84109 51.4384 2.84109C51.1747 2.84109 50.9109 2.57375 50.6471 2.44008C50.5153 2.30641 50.5153 2.17274 50.3834 2.17274C50.2515 2.03907 50.2515 2.03907 50.1196 2.03907C49.9877 2.03907 49.9877 2.03907 49.8558 2.17274C49.724 2.30641 49.724 2.44008 49.724 2.57375C49.724 2.70742 49.724 2.84109 49.724 2.84109C49.724 2.84109 49.5921 2.97475 49.5921 2.84109C49.4602 2.84109 49.4602 2.70742 49.4602 2.57375C49.4602 2.30641 49.4602 2.03907 49.724 1.77173C49.8559 1.63806 49.9877 1.50439 50.2515 1.50439H50.3834C50.5153 1.63806 50.6471 1.63806 50.779 1.77173L50.9109 1.9054C50.9109 2.03907 51.0428 2.03907 51.0428 2.17274C51.1747 2.30641 51.4384 2.44008 51.7022 2.44008Z" fill="white"/>
<path d="M19.9188 20.3513C19.9188 20.2176 19.9188 20.0839 19.9188 19.9503C19.9188 19.1482 19.9188 18.2126 19.9188 17.4105C19.9188 16.7422 19.7869 15.9402 19.7869 15.2718C19.7869 14.7372 19.655 14.0688 19.655 13.5341C19.5231 12.4648 19.5231 11.5291 19.2594 10.4598C19.1275 9.3904 18.7318 8.32105 18.0724 7.51903C17.6768 6.98436 17.1492 6.44968 16.4898 6.18234C15.3029 5.64766 14.2478 5.78133 13.0609 6.44968C12.7971 6.58335 12.4015 6.71702 12.1377 6.58335C12.0059 6.58335 12.0059 6.44968 12.0059 6.31601C12.0059 5.915 12.1377 5.64767 12.5334 5.38033C13.0609 4.97932 13.5884 4.71198 14.2478 4.44464C14.7754 4.17731 15.4348 4.17731 15.9623 4.44464C16.6217 4.71198 17.2811 5.11299 17.8087 5.64767C18.8637 6.44968 19.5231 7.6527 19.9188 8.85572C20.1825 9.79141 20.4463 10.5934 20.5782 11.5291C20.5782 11.7964 20.7101 12.1974 20.7101 12.4648C20.7101 13.4005 20.8419 14.3362 20.8419 15.1382C20.8419 16.2075 20.9738 17.1432 20.9738 18.2126C20.9738 19.0146 21.1057 19.9503 21.1057 20.7523C21.2376 21.688 21.1057 22.7573 21.1057 23.693C21.1057 24.495 21.1057 25.297 20.9738 26.099C20.9738 27.3021 20.8419 28.3714 20.8419 29.5744C20.8419 30.3764 20.7101 31.1785 20.7101 32.1141C20.7101 32.6488 20.1825 32.9162 19.655 32.7825C19.3912 32.6488 19.3912 32.5151 19.3912 32.2478C19.3912 31.9805 19.3912 31.7131 19.3912 31.4458C19.5231 30.7774 19.5231 29.9754 19.655 29.3071C19.655 28.9061 19.5231 28.6387 18.9956 28.6387C18.7318 28.6387 18.468 28.6387 18.2043 28.7724C17.8086 28.7724 17.5449 28.9061 17.1492 28.9061C16.358 28.9061 15.6985 28.7724 15.0391 28.6387C14.2478 28.5051 13.7203 28.1041 13.3247 27.5694C12.7972 26.901 12.5334 26.099 12.5334 25.1633C12.5334 24.495 12.6652 23.9603 12.929 23.4256C13.1928 22.7573 13.7203 22.089 14.2478 21.5543C14.3797 21.4206 14.6435 21.2869 14.7754 21.0196C15.0391 20.7523 15.4348 20.6186 15.8304 20.6186C17.0174 20.4849 18.2043 20.4849 19.3912 20.3513C19.7869 20.4849 19.9188 20.3513 19.9188 20.3513ZM18.3362 21.5543C17.5449 21.5543 16.6217 21.8216 15.8304 22.089C15.171 22.3563 14.7754 22.7573 14.5116 23.4256C14.2478 24.094 14.116 24.7623 14.116 25.4307C14.116 26.3664 14.6435 26.901 15.4348 27.302C15.5667 27.4357 15.6985 27.4357 15.9623 27.4357C16.6217 27.5694 17.1492 27.5694 17.8087 27.4357C18.3362 27.3021 18.9956 27.1684 19.5231 27.0347C19.655 27.0347 19.7869 26.901 19.7869 26.901C19.9188 26.7674 20.0507 26.5 20.0507 26.3664C20.0507 25.8317 20.0507 25.297 20.0507 24.6287C20.0507 24.094 20.0507 23.693 20.0507 23.1583C20.0507 23.0246 20.0507 22.891 20.0507 22.7573C20.0507 22.49 20.0507 22.2226 20.0507 22.089C20.0507 21.9553 19.9188 21.8216 19.7869 21.688C19.655 21.688 19.655 21.5543 19.5231 21.5543C19.2593 21.5543 18.8637 21.5543 18.3362 21.5543Z" fill="white"/>
<path d="M8.8409 20.8863C8.8409 22.223 8.8409 23.5597 8.8409 24.8964C8.8409 25.6984 8.84087 26.5004 8.97275 27.3024C8.97275 28.1044 9.23653 28.7728 9.23653 29.5748C9.23653 29.7085 9.36842 29.9758 9.36842 30.1095C9.5003 30.5105 9.63218 30.9115 10.0278 31.1788C10.4235 31.4462 10.8191 31.5798 11.2148 31.7135C11.7423 31.8472 12.2698 31.8472 12.9292 31.8472C13.4567 31.8472 13.8524 31.7135 14.3799 31.8472C15.0393 31.8472 15.5668 31.9808 16.2262 32.1145C16.3581 32.1145 16.49 32.2482 16.49 32.5155C16.49 32.6492 16.49 32.9165 16.2262 32.9165C16.0944 33.0502 15.9625 33.0502 15.8306 33.0502C15.435 33.1839 15.0393 33.1839 14.5118 33.0502C13.8524 33.0502 13.3249 32.9165 12.6655 32.9165C12.4017 32.9165 12.1379 32.9165 11.8742 32.9165C11.3466 32.9165 10.8191 32.9165 10.4235 32.7828C9.23652 32.5155 8.44524 31.7135 8.0496 30.5105C7.91772 30.1095 7.78582 29.5748 7.78582 29.0401C7.65394 27.7034 7.52208 26.2331 7.52208 24.8964C7.52208 23.6933 7.52207 22.4903 7.39019 21.421C7.39019 20.4853 7.39019 19.6833 7.39019 18.7476C7.39019 17.9456 7.39018 17.2772 7.2583 16.4752C7.12642 15.6732 7.1264 14.7375 6.99452 13.9355C6.86264 12.9998 6.86267 12.0641 6.86267 11.1285C6.86267 10.0591 6.86264 9.12342 6.99452 8.05407C6.99452 7.11839 7.12641 6.31637 7.12641 5.38069C7.12641 5.24702 7.12642 4.97968 7.2583 4.84601C7.39018 4.57867 7.78583 4.57867 7.91771 4.84601C8.04959 4.97968 8.0496 5.11335 8.0496 5.24702C8.0496 5.51436 8.18149 5.7817 8.18149 6.04903C8.31337 6.45004 8.18148 6.85105 8.0496 7.38573C7.91772 8.05407 7.91771 8.58875 7.91771 9.25709C7.91771 10.0591 8.0496 10.9948 8.0496 11.7968C8.0496 12.3315 8.18149 12.9998 8.18149 13.5345C8.31337 14.4702 8.31334 15.4059 8.31334 16.4752C8.70898 17.9456 8.70902 19.4159 8.8409 20.8863Z" fill="white"/>
</svg>
