<svg xmlns="http://www.w3.org/2000/svg" height="30" width="30" fill="#fff" viewBox="0 0 3394.29 2851.47"><title>hub_ufrj</title><g id="Camada_2" data-name="Camada 2"><g id="Camada_1-2" data-name="Camada 1"><path d="M3121.45,2849.89a26.42,26.42,0,0,1-2.11-2.7,8.62,8.62,0,0,1-.57-1.91,18.21,18.21,0,0,1-.33-2c-.07-.66-.09-1.33-.11-2s0-1.33,0-2,0-1.33,0-2c0-1.33,0-2.67,0-4v-4q0-1268.91,0-2537.81c0-.67,0-1.34,0-2,0-1.33-.05-2.67-.09-4,0-.67,0-1.34-.09-2s-.23-1.31-.36-2-.28-1.3-.67-3.13c-3.21-.69-6.88-2-10.6-2.18-7.32-.37-14.66-.14-22-.14q-1526.88,0-3053.77-.06c-9.16,0-18.5,1.25-28.34-1.54a95.21,95.21,0,0,1-1.48-9.92C-.91,224.92.33,18.05,2.44,1.82,5.91,1.28,9.67.35,13.46.16c6-.29,12-.1,18-.1H3391.92c.88,4.77,2,8.47,2.18,12.23.34,6,.11,12,.11,18q0,1395.9,0,2791.79v25c-7.66,6.3-15.31,4-22.34,4-61.33.22-122.65.13-184,.13-18,0-36,.08-54-.08A122.76,122.76,0,0,1,3121.45,2849.89Z"/><path d="M1482.44,2843.36V1758.3c4.24-.73,8-1.71,11.72-2,5.31-.32,10.66-.11,16-.11q653.82,0,1307.64,0c8.54,0,17.08.27,26.67.43.62,5,1.33,8.75,1.5,12.55.24,5.32.09,10.66.09,16V2841.55c-4.92.91-8.65,2-12.43,2.22-5.3.35-10.65.11-16,.11q-653.82,0-1307.64,0C1501.46,2843.86,1492.93,2843.56,1482.44,2843.36Zm272.12-679.6c9.66.18,17.55.46,25.43.46q383.85,0,767.7,0c4.66,0,9.35.22,14-.11a110.63,110.63,0,0,0,11-1.8c2.79-21.06,2.31-117.12-.6-132.63-1.61-.5-3.44-1.55-5.27-1.55q-402.84-.11-805.67,0c-1.84,0-3.68,1-5.13,1.46-.86,1.66-2,2.78-2,3.92q-.42,58-.58,115.91C1753.43,2153.36,1754,2157.28,1754.56,2163.76Zm819.81,272.53c-11.42-.16-20-.39-28.53-.39q-381.86,0-763.7,0c-5.33,0-10.68-.19-16,.1-3.78.2-7.53,1.05-11.11,1.59-.67,3.06-1.44,5-1.45,6.86q-.12,59,0,117.95c0,3,1.62,6,2.69,9.74q405,0,808.35-.05c2.51,0,5-.85,9.62-1.68C2574.51,2526.28,2574.39,2482.61,2574.37,2436.29Z"/><path d="M1483.51,551.57c3.81-.58,7.64-1.54,11.49-1.67,69.58-2.37,238.51-1,257,2.29.41,3.3,1.12,7,1.27,10.81.23,6,.08,12,.08,18q0,380,0,760c0,7.88.25,15.77.39,24.33,5.11.82,8.91,1.64,12.75,2,3.3.31,6.66.1,10,.1q387,0,774-.06c7.18,0,14.59,1.24,20.69-1.36a26.76,26.76,0,0,0,1.92-2.44,8.79,8.79,0,0,0,.65-1.89,16,16,0,0,0,.37-2c.08-.66.12-1.33.14-2,0-1.33.07-2.67.09-4,0-.67,0-1.33,0-2,0-1.33,0-2.67,0-4q0-392,0-784c0-1.33,0-2.66.08-4,0-.67.05-1.34.12-2a18.16,18.16,0,0,1,.3-2c.14-.65.36-1.29.92-3.21,3-.78,6.57-2.45,10.22-2.58,11.32-.38,22.67-.18,34-.18q101,0,202,0c7.21,0,14.41.46,22.45.73.62,5.13,1.26,8.92,1.48,12.74.23,4,.07,8,.07,12q0,519-.05,1038c0,7.83,1.07,15.83-1.5,23.41-2.55.83-4.4,2-6.26,2q-673,.19-1346,.18c-2.57,0-5.13-.72-8.92-1.29-.55-4-1.34-7.77-1.52-11.53-.26-5.32-.09-10.66-.09-16q0-516,0-1032C1481.8,569.5,1480.53,560.8,1483.51,551.57Z"/><path d="M4.36,553.58c25.26-2.39,252-1.72,267.7.81,2.94,6.56,1.59,14,1.6,21.1q.18,117,.08,234,0,64,0,128c0,6.5.53,13,.8,19.23,3.17,1.13,5,2.35,6.83,2.35q400,.19,800,.17c2.53,0,5.05-1,7.55-1.54,3.94-8.09,2.4-16.19,2.4-24q.17-179,.12-358c0-7.83-1.06-15.85,1.64-23.38,2.61-.93,4.43-2.13,6.25-2.14q128-.1,256,.05c1.84,0,3.68,1.21,6.13,2.07.47,3.84,1.27,7.71,1.38,11.6,2.42,88.69,1,1052.24-1.55,1072-5.52,5-12.49,3-18.87,3-54,.16-108,.09-162,.09-22.66,0-45.33.06-68,0-5.9,0-11.8-.5-18.58-.81-.89-4.48-2-8.19-2.29-12-.38-5.3-.13-10.66-.13-16V1233.57c-4.86-1-8.54-2.16-12.29-2.44-5.31-.39-10.66-.14-16-.14q-381,0-762,0c-8.47,0-17.15-1.19-26.36,2-2.25,27-.72,53.54-1,80-.28,26.66-.06,53.33-.06,80v241.4c-7.38,5.94-15,4-22,4q-95,.26-190,.1c-14.66,0-29.33.12-44-.09-4.52-.07-9-1.08-13.47-1.65-.71-2.73-1.63-4.6-1.63-6.46q-.1-535,0-1070C2.62,558.57,3.54,556.71,4.36,553.58Z"/></g></g></svg>