<svg width="63" height="55" viewBox="0 0 63 55" fill="none" xmlns="http://www.w3.org/2000/svg">
<rect width="62.2143" height="54.4623" fill="black" fill-opacity="0" transform="translate(0.407227)"/>
<rect width="62.2143" height="12.8685" fill="black" fill-opacity="0" transform="translate(0.407227 41.5938)"/>
<rect width="62.2143" height="5.58911" fill="black" fill-opacity="0" transform="translate(0.407227 41.5938)"/>
<path d="M1.71151 41.5942V47.0534H0.407227V41.5942H1.71151Z" fill="white"/>
<path d="M9.4066 45.7531V47.0529H4.71118V41.5938H6.01546V45.7531H9.4066Z" fill="white"/>
<path d="M17.4931 41.5938V44.3233C17.4931 46.013 16.3193 47.1829 14.7541 47.1829C13.189 47.1829 12.0151 46.013 12.0151 44.3233V41.5938H13.3194V44.3233C13.3194 45.2332 13.9716 45.8831 14.7541 45.8831C15.5367 45.8831 16.1888 45.2332 16.1888 44.3233V41.5938H17.4931Z" fill="white"/>
<path d="M25.8407 41.5938V47.0529H24.5364V44.3233L23.2321 47.0529H22.7104L21.4061 44.3233V47.0529H20.1018V41.5938H21.4061L22.9712 44.7133L24.5364 41.5938H25.8407Z" fill="white"/>
<path d="M29.8841 41.5938V47.0529H28.5798V41.5938H29.8841Z" fill="white"/>
<path d="M38.2313 41.5938V47.0529H36.927L34.3184 43.8034V47.0529H33.0142V41.5938H34.3184L37.0574 44.9732V41.5938H38.2313Z" fill="white"/>
<path d="M46.3178 41.5938V44.3233C46.3178 46.013 45.144 47.1829 43.5788 47.1829C42.0137 47.1829 40.8398 46.013 40.8398 44.3233V41.5938H42.1441V44.3233C42.1441 45.2332 42.7963 45.8831 43.5788 45.8831C44.3614 45.8831 45.0135 45.2332 45.0135 44.3233V41.5938H46.3178Z" fill="white"/>
<path d="M52.3175 47.0529L51.4045 45.7531H50.4915V47.0529H49.1873V41.5938C49.1873 41.5938 51.1437 41.5938 51.7958 41.5938C52.9697 41.5938 53.7522 42.5036 53.7522 43.6734C53.7522 44.4533 53.361 44.9732 52.8392 45.3632L54.0131 47.0529H52.3175ZM50.3611 44.4533H51.535C51.9262 44.4533 52.3175 44.1933 52.3175 43.6734C52.3175 43.2835 51.9262 42.8935 51.535 42.8935H50.3611V44.4533Z" fill="white"/>
<path d="M60.665 46.273H58.0565L57.6652 47.0529H56.2305L58.9695 41.5938H60.0129L62.6215 47.0529H61.1867L60.665 46.273ZM60.1433 45.2332L59.2303 43.5434L58.4478 45.2332H60.1433Z" fill="white"/>
<rect width="32.4767" height="4.15946" fill="black" fill-opacity="0" transform="translate(16.0583 50.3027)"/>
<path d="M16.0583 50.9523C16.0583 50.8224 16.1888 50.6924 16.3192 50.6924C16.4496 50.6924 16.5801 50.6924 16.5801 50.9523C16.5801 51.0823 16.4496 51.2123 16.3192 51.2123C16.1888 51.2123 16.0583 51.0823 16.0583 50.9523ZM16.4496 54.2018C16.4496 54.3318 16.3192 54.3318 16.3192 54.3318C16.3192 54.3318 16.1888 54.3318 16.1888 54.2018V51.8622C16.1888 51.7322 16.3192 51.7322 16.3192 51.7322L16.4496 51.8622V54.2018Z" fill="white"/>
<path d="M19.058 51.9925V50.4327C19.058 50.3027 19.1885 50.3027 19.1885 50.3027C19.3189 50.3027 19.3189 50.4327 19.3189 50.4327V53.2923C19.3189 54.0721 18.7972 54.4621 18.145 54.4621C17.3625 54.4621 16.9712 54.0721 16.9712 53.1623C16.9712 52.2524 17.3625 51.8625 18.145 51.8625C18.6668 51.6025 18.9276 51.8625 19.058 51.9925ZM19.058 52.5124C19.058 52.5124 18.7972 51.9925 18.2755 51.9925C17.7538 51.9925 17.4929 52.3824 17.4929 53.0323C17.4929 53.6822 17.7538 54.0721 18.2755 54.0721C18.6668 54.0721 19.058 53.8122 19.058 53.2923V52.5124Z" fill="white"/>
<path d="M21.4058 51.6025C22.3188 51.6025 22.4492 52.3824 22.4492 52.6424C22.4492 52.7724 22.4492 53.0323 22.1884 53.0323H20.4928C20.4928 53.5522 20.7536 53.9422 21.4058 53.9422C21.7971 53.9422 21.9275 53.8122 22.0579 53.6822C22.0579 53.6822 22.0579 53.6822 22.1884 53.6822C22.3188 53.6822 22.3188 53.8122 22.3188 53.8122V53.9422C22.1884 54.0721 21.9275 54.2021 21.4058 54.2021C20.6232 54.2021 20.2319 53.8122 20.2319 52.9023C20.2319 52.1225 20.6232 51.6025 21.4058 51.6025ZM21.4058 51.9925C20.8841 51.9925 20.6232 52.2524 20.6232 52.7724H22.1884C22.0579 52.3824 21.9275 51.9925 21.4058 51.9925Z" fill="white"/>
<path d="M23.1013 50.9523C23.1013 50.8224 23.2317 50.6924 23.3622 50.6924C23.4926 50.6924 23.623 50.6924 23.623 50.9523C23.623 51.0823 23.4926 51.2123 23.3622 51.2123C23.2317 51.2123 23.1013 51.0823 23.1013 50.9523ZM23.4926 54.2018C23.4926 54.3318 23.3622 54.3318 23.3622 54.3318C23.2317 54.3318 23.2317 54.2018 23.2317 54.2018V51.8622C23.2317 51.7322 23.3622 51.7322 23.3622 51.7322C23.4926 51.7322 23.4926 51.8622 23.4926 51.8622V54.2018Z" fill="white"/>
<path d="M24.6667 52.2523L24.5362 52.3823C24.4058 52.3823 24.4058 52.2523 24.4058 52.2523V52.1224C24.5362 51.8624 24.9275 51.7324 25.3188 51.7324C25.971 51.7324 26.3622 52.1224 26.3622 52.6423V54.202C26.3622 54.332 26.2318 54.332 26.2318 54.332C26.1014 54.332 26.1014 54.202 26.1014 54.202V53.9421C25.971 54.202 25.5797 54.332 25.3188 54.332C24.6667 54.332 24.2754 54.0721 24.2754 53.5521C24.2754 53.0322 24.6667 52.7723 25.3188 52.7723H26.1014V52.6423C26.1014 52.2523 25.8405 51.9924 25.4492 51.9924C25.058 51.9924 24.7971 52.1224 24.6667 52.2523ZM25.971 53.2922V53.0322H25.1884C24.7971 53.0322 24.5362 53.1622 24.5362 53.5521C24.5362 53.8121 24.7971 54.0721 25.1884 54.0721C25.5797 54.0721 25.971 53.8121 25.971 53.2922Z" fill="white"/>
<path d="M27.4054 52.3823C27.4054 53.0322 28.8401 52.7723 28.8401 53.6821C28.8401 54.202 28.4489 54.462 27.9272 54.462C27.4054 54.462 27.1446 54.202 27.0142 54.0721V53.9421C27.0142 53.8121 27.1446 53.8121 27.1446 53.8121H27.275C27.4054 53.9421 27.6663 54.0721 28.0576 54.0721C28.3184 54.0721 28.7097 53.9421 28.7097 53.6821C28.7097 53.1622 27.275 53.2922 27.275 52.3823C27.275 51.8624 27.6663 51.7324 28.188 51.7324C28.5793 51.7324 28.8402 51.8624 29.101 52.1224C29.101 52.1224 29.101 52.1224 29.101 52.2523C29.101 52.3823 28.9706 52.3823 28.9706 52.3823H28.8401C28.7097 52.2523 28.5793 52.1224 28.188 52.1224C27.6663 51.9924 27.4054 52.1224 27.4054 52.3823Z" fill="white"/>
<path d="M32.2315 51.6025C33.1445 51.6025 33.2749 52.3824 33.2749 52.6424C33.2749 52.7724 33.2749 53.0323 33.014 53.0323H31.3185C31.3185 53.5522 31.5793 53.9422 32.2315 53.9422C32.6228 53.9422 32.7532 53.8122 32.8836 53.6822C32.8836 53.6822 32.8836 53.6822 33.014 53.6822C33.1445 53.6822 33.1445 53.8122 33.1445 53.8122V53.9422C33.014 54.0721 32.7532 54.2021 32.2315 54.2021C31.4489 54.2021 31.0576 53.8122 31.0576 52.9023C31.0576 52.1225 31.4489 51.6025 32.2315 51.6025ZM32.2315 51.9925C31.7098 51.9925 31.4489 52.2524 31.4489 52.7724H33.014C32.8836 52.3824 32.7532 51.9925 32.2315 51.9925Z" fill="white"/>
<path d="M35.4919 50.9523C35.4919 50.8224 35.6224 50.6924 35.7528 50.6924C35.8832 50.6924 36.0136 50.6924 36.0136 50.9523C36.0136 51.0823 35.8832 51.2123 35.7528 51.2123C35.4919 51.2123 35.4919 51.0823 35.4919 50.9523ZM35.8832 54.2018C35.8832 54.3318 35.7528 54.3318 35.7528 54.3318C35.6224 54.3318 35.6224 54.2018 35.6224 54.2018V51.8622C35.6224 51.7322 35.7528 51.7322 35.7528 51.7322C35.8832 51.7322 35.8832 51.8622 35.8832 51.8622V54.2018Z" fill="white"/>
<path d="M38.4921 51.9925V50.4327C38.4921 50.3027 38.6226 50.3027 38.6226 50.3027C38.753 50.3027 38.753 50.4327 38.753 50.4327V53.2923C38.753 54.0721 38.2313 54.4621 37.5791 54.4621C36.7966 54.4621 36.4053 54.0721 36.4053 53.1623C36.4053 52.2524 36.7966 51.8625 37.5791 51.8625C38.1008 51.6025 38.3617 51.8625 38.4921 51.9925ZM38.4921 52.5124C38.4921 52.5124 38.2313 51.9925 37.7096 51.9925C37.1878 51.9925 36.927 52.3824 36.927 53.0323C36.927 53.6822 37.1878 54.0721 37.7096 54.0721C38.1008 54.0721 38.4921 53.8122 38.4921 53.2923V52.5124Z" fill="white"/>
<path d="M40.7093 51.6025C41.6223 51.6025 41.7527 52.3824 41.7527 52.6424C41.7527 52.7724 41.7527 53.0323 41.4918 53.0323H39.7963C39.7963 53.5522 40.0571 53.9422 40.7093 53.9422C41.1005 53.9422 41.231 53.8122 41.3614 53.6822C41.3614 53.6822 41.3614 53.6822 41.4918 53.6822C41.6223 53.6822 41.6223 53.8122 41.6223 53.8122V53.9422C41.4918 54.0721 41.231 54.2021 40.7093 54.2021C39.9267 54.2021 39.5354 53.8122 39.5354 52.9023C39.5354 52.1225 39.9267 51.6025 40.7093 51.6025ZM40.7093 51.9925C40.1875 51.9925 39.9267 52.2524 39.9267 52.7724H41.4918C41.3614 52.3824 41.231 51.9925 40.7093 51.9925Z" fill="white"/>
<path d="M42.7961 52.2523L42.6656 52.3823C42.5352 52.3823 42.5352 52.2523 42.5352 52.2523V52.1224C42.6656 51.8624 43.0569 51.7324 43.4482 51.7324C44.1004 51.7324 44.4916 52.1224 44.4916 52.6423V54.202C44.4916 54.332 44.3612 54.332 44.3612 54.332C44.2308 54.332 44.2308 54.202 44.2308 54.202V53.9421C44.1004 54.202 43.7091 54.332 43.4482 54.332C42.7961 54.332 42.4048 54.0721 42.4048 53.5521C42.4048 53.0322 42.7961 52.7723 43.4482 52.7723H44.2308V52.6423C44.2308 52.2523 43.9699 51.9924 43.5786 51.9924C43.1874 51.9924 42.9265 52.1224 42.7961 52.2523ZM44.1004 53.2922V53.0322H43.3178C42.9265 53.0322 42.6656 53.1622 42.6656 53.5521C42.6656 53.8121 42.9265 54.0721 43.3178 54.0721C43.7091 54.0721 44.1004 53.8121 44.1004 53.2922Z" fill="white"/>
<path d="M45.2742 50.9523C45.2742 50.8224 45.4046 50.6924 45.535 50.6924C45.6655 50.6924 45.7959 50.6924 45.7959 50.9523C45.7959 51.0823 45.6655 51.2123 45.535 51.2123C45.2742 51.2123 45.2742 51.0823 45.2742 50.9523ZM45.6654 54.2018C45.6654 54.3318 45.535 54.3318 45.535 54.3318C45.4046 54.3318 45.4046 54.2018 45.4046 54.2018V51.8622C45.4046 51.7322 45.535 51.7322 45.535 51.7322C45.6655 51.7322 45.6654 51.8622 45.6654 51.8622V54.2018Z" fill="white"/>
<path d="M46.8395 52.3823C46.8395 53.0322 48.2742 52.7723 48.2742 53.6821C48.2742 54.202 47.883 54.462 47.3612 54.462C46.8395 54.462 46.5787 54.202 46.4482 54.0721V53.9421C46.4482 53.8121 46.5787 53.8121 46.5787 53.8121H46.7091C46.8395 53.9421 47.1004 54.0721 47.4917 54.0721C47.7525 54.0721 48.1438 53.9421 48.1438 53.6821C48.1438 53.1622 46.7091 53.2922 46.7091 52.3823C46.7091 51.8624 47.1004 51.7324 47.6221 51.7324C48.0134 51.7324 48.2742 51.8624 48.5351 52.1224C48.5351 52.1224 48.5351 52.1224 48.5351 52.2523C48.5351 52.3823 48.4047 52.3823 48.4047 52.3823H48.2742C48.1438 52.2523 48.0134 52.1224 47.6221 52.1224C47.1004 51.9924 46.8395 52.1224 46.8395 52.3823Z" fill="white"/>
<rect width="17.4774" height="33.6646" fill="black" fill-opacity="0" transform="translate(23.8843)"/>
<path d="M29.2318 9.22853C29.4927 9.09855 29.884 9.09855 30.2753 9.35851C30.2753 9.35851 30.2753 9.48849 30.4057 9.48849C30.9274 10.1384 32.1013 12.868 35.4924 12.868C38.3618 12.868 40.7095 10.5283 40.7095 7.66878C40.7095 5.84907 39.7965 3.89938 38.3618 2.46961C36.7967 0.909857 34.5794 0 32.3621 0C27.6667 0 23.8843 3.7694 23.8843 8.44865C23.8843 8.83859 23.8843 9.22853 24.0147 9.74845C24.0147 9.74845 24.0147 9.74845 24.0147 9.87843C24.2756 11.0482 24.6668 11.9581 25.319 12.9979C25.5798 13.3879 25.8407 13.7778 26.1016 14.0378C26.232 14.1677 26.232 14.1677 26.3624 14.2977C26.4928 14.4277 26.4928 14.4277 26.6233 14.5577L26.7537 14.6877C26.8841 14.6877 26.8841 14.8176 27.0146 14.8176C27.145 14.8176 27.145 14.9476 27.2754 14.9476C27.4058 14.9476 27.4058 15.0776 27.5363 15.0776C27.6667 15.0776 27.6667 15.2076 27.7971 15.2076C26.7537 15.2076 25.9711 15.7275 25.5798 16.6373C25.1886 17.8072 25.8407 19.2369 27.2754 19.7569C27.2754 19.7569 27.6667 19.8868 28.058 20.0168C27.2754 20.1468 26.6233 20.6667 26.3624 21.4466C25.9711 22.6164 26.6233 24.0462 28.058 24.5661C28.058 24.5661 34.7098 27.0357 34.8403 27.0357C34.9707 27.0357 34.9707 27.1657 35.1011 27.1657C36.1445 27.4256 36.9271 28.4655 36.9271 29.6353C36.9271 30.5451 36.4054 31.325 36.1445 31.7149C35.2315 32.7548 33.9273 33.5347 32.3621 33.5347C30.0144 33.5347 28.1884 31.9749 28.1884 30.4152C28.1884 29.2453 29.2318 28.3355 30.4057 28.3355C30.9274 28.3355 31.5795 28.5954 31.8404 28.8554C32.2317 29.2453 31.5795 29.6353 31.4491 30.1552C31.3187 30.2852 31.3187 30.5451 31.3187 30.8051C31.4491 31.325 31.9708 31.7149 32.4925 31.585C33.0143 31.455 33.4055 30.9351 33.2751 30.4152C33.1447 29.6353 31.9708 28.0755 30.4057 28.0755C29.1014 28.0755 27.9276 29.1154 27.9276 30.4152C27.9276 31.325 28.4493 32.1049 29.3623 32.7548C30.1448 33.4047 31.3187 33.6646 32.3621 33.6646C34.8403 33.6646 37.188 31.585 37.188 29.3753C37.188 29.3753 37.188 28.8554 37.188 28.3355C37.0575 27.0357 36.5358 25.8659 35.6228 24.956C36.7967 25.086 37.8401 24.5661 38.2314 23.5263C38.6227 22.4864 38.101 21.3166 37.188 20.7967C37.9705 20.6667 38.6227 20.1468 39.014 19.3669C39.4052 18.1971 38.7531 16.7673 37.3184 16.2474C37.3184 16.2474 28.971 13.2579 27.9276 12.868C27.7971 12.868 27.7971 12.8679 27.6667 12.738C27.5363 12.738 27.5363 12.738 27.4058 12.608C27.2754 12.608 27.2754 12.608 27.2754 12.478C27.145 12.478 27.145 12.348 27.0146 12.348L26.8841 12.2181L26.7537 12.0881L26.6233 11.9581L26.4928 11.8281L26.3624 11.6981L26.232 11.5682C26.1016 11.4382 25.9711 11.3082 25.9711 11.3082L25.8407 11.1782C25.7103 11.0482 25.7103 10.9183 25.5798 10.7883L25.4494 10.6583L25.319 10.5283C25.1886 10.2684 25.0581 10.0084 25.0581 9.74845C25.0581 9.61847 25.0581 9.48849 25.0581 9.35851C25.0581 9.22853 25.0581 9.09855 25.0581 9.09855C25.0581 9.09855 25.0581 9.09855 25.0581 8.96857V8.83859C25.0581 8.83859 25.0581 8.83859 25.0581 8.70861V8.57863C25.0581 4.02936 28.7101 0.389939 33.2751 0.389939C38.101 0.389939 41.3617 4.28932 41.3617 7.79876C41.3617 10.5283 39.1444 12.738 36.4054 12.738H36.275C36.275 12.738 36.275 12.738 36.1445 12.738C36.1445 12.738 36.1445 12.738 36.0141 12.738H35.8837C35.7533 12.738 35.6228 12.738 35.4924 12.738H35.362H35.2315C34.8403 12.608 34.5794 12.348 34.3185 12.0881C34.1881 11.9581 34.0577 11.6981 34.0577 11.5682C34.0577 11.5682 34.0577 11.5682 34.0577 11.4382C34.0577 11.3082 34.0577 11.1782 34.0577 11.0482C34.0577 10.6583 34.1881 10.2684 34.449 9.87843C34.449 9.87843 34.449 9.87842 34.449 9.74845C34.449 9.74845 34.449 9.74845 34.5794 9.74845C34.7098 9.61847 34.8403 9.61847 34.9707 9.48849C34.9707 9.48849 34.9707 9.48849 35.1011 9.48849C35.1011 9.48849 35.1011 9.48849 35.2315 9.48849H35.362C35.8837 9.48849 36.275 10.1384 36.1445 10.5283C36.275 10.3983 36.4054 10.2684 36.5358 10.1384C36.9271 9.48849 36.7967 8.70861 36.1445 8.31868C35.8837 8.1887 35.6228 8.05872 35.2315 8.1887C35.4924 7.66878 35.6228 7.14886 35.4924 6.49896C35.2315 5.06919 33.7968 4.02936 32.3621 4.28932C30.9274 4.54928 29.884 5.97905 30.1448 7.40882C30.1448 7.66878 30.2753 7.92874 30.4057 8.1887C30.0144 8.05872 29.7535 8.1887 29.3623 8.31868C28.7101 8.70861 28.5797 9.48849 28.971 10.1384C29.1014 10.2684 29.2318 10.3983 29.3623 10.5283C28.7101 9.74845 28.8406 9.35851 29.2318 9.22853ZM37.188 24.0462C37.188 24.5661 36.4054 24.956 35.362 25.086C34.9707 24.6961 34.449 24.4361 33.9273 24.3061L27.9276 21.9665C27.4058 21.7065 27.145 21.4466 27.145 21.0566C27.145 20.6667 27.6667 20.2768 28.3188 20.1468C30.797 21.0566 36.4054 23.0063 36.4054 23.0063C36.9271 23.3963 37.188 23.6562 37.188 24.0462ZM37.0575 18.977C37.5792 19.2369 37.8401 19.4969 37.8401 19.8868C37.8401 20.2768 37.3184 20.6667 36.6662 20.7967C36.5358 20.7967 36.4054 20.6667 36.275 20.6667L27.0146 17.2872C26.4928 17.0273 26.232 16.7673 26.232 16.3774C26.232 15.8575 26.8841 15.4675 27.7971 15.4675C28.1884 15.7275 28.5797 15.9875 29.1014 16.1174L37.0575 18.977Z" fill="white"/>
</svg>
