<svg width="82" height="14" viewBox="0 0 82 14" fill="none" xmlns="http://www.w3.org/2000/svg">
<rect width="82" height="14" fill="black" fill-opacity="0"/>
<path d="M8.34434 7.56873C7.83395 7.95794 7.81432 8.4769 7.89284 8.88465C8.12841 9.95963 7.89284 11.0346 7.93211 12.091C7.97137 13.444 6.91134 14.0557 5.5765 13.5367C5.06611 13.3328 5.06611 12.9251 5.08574 12.5359C5.18389 10.6639 5.30167 8.77344 5.45871 6.9015C5.5765 5.45584 5.69428 4.01018 5.61576 2.56453C5.53724 1.0818 6.06725 0.599914 7.65728 0.711118C8.48175 0.76672 9.30621 0.76672 9.87548 1.45248C10.0129 1.61929 10.2485 1.80463 10.2485 1.97144C10.2288 3.21322 10.7392 4.38087 10.8177 5.60412C10.8962 6.71616 11.4263 7.717 11.3477 8.95879C11.9955 8.64371 12.29 8.31009 12.3489 7.90234C12.6041 5.88213 13.4482 3.99165 13.8408 2.0085C13.9389 1.48955 14.2726 1.32274 14.6849 1.28567C15.6664 1.193 16.6479 1.15594 17.6097 1.0818C18.1986 1.0262 18.4146 1.24861 18.4146 1.82316C18.4146 3.67657 18.1005 5.52998 18.2968 7.36485C18.4735 9.18119 18.6698 10.9975 18.1986 12.7953C17.9042 13.9259 16.7067 14.3337 15.7056 13.7035C15.313 13.4626 15.1756 13.2031 15.3326 12.7768C15.8234 11.4053 14.94 10.0708 15.2149 8.71784C15.2541 8.55103 15.1363 8.34716 14.783 8.34716C14.4493 8.88465 14.1156 9.47774 14.1548 10.1635C14.2137 11.1643 13.8211 12.0169 13.4678 12.9251C13.0752 13.9074 12.2311 13.7962 11.4459 13.8332C10.6214 13.8703 10.327 13.3514 10.111 12.7212C9.65955 11.3682 9.32584 9.97816 9.05102 8.5881C8.95287 8.18035 8.85472 7.79114 8.34434 7.56873Z" fill="white"/>
<path d="M32.6464 7.2352C32.6464 5.51153 32.6268 3.78786 32.6464 2.06419C32.666 0.933612 32.882 0.711203 34.0794 0.655601C35.2572 0.599999 36.3958 1.00775 37.5736 1.00775C38.3588 1.00775 39.144 1.10042 39.9292 1.10042C41.5192 1.11895 42.4811 1.93445 42.7167 3.41718C42.8933 4.64043 42.9326 5.82661 41.8529 6.77185C41.4603 7.124 41.5781 7.47614 41.8529 7.84683C42.9326 9.29248 42.6185 10.9791 42.7559 12.5916C42.7952 13.0734 42.3633 13.2958 41.8726 13.2217C41.2248 13.1105 40.3021 13.4812 40.1451 12.4618C40.0666 11.8873 40.1058 11.2942 40.1058 10.7011C40.1058 9.53343 39.674 9.01447 38.4766 8.755C35.6695 8.14337 35.3357 8.40285 35.4339 11.1274C35.4535 11.461 35.4732 11.8131 35.4535 12.1467C35.3946 13.37 34.4328 13.926 33.2353 13.4627C32.8624 13.3144 32.6464 13.092 32.6464 12.6842C32.6464 10.8679 32.6464 9.05154 32.6464 7.2352ZM37.3969 5.93781C37.5932 5.93781 37.8877 5.91928 38.1821 5.90075C39.0066 5.82661 39.4188 5.38179 39.4188 4.62189C39.4188 3.862 38.9477 3.52838 38.1821 3.49132C37.6521 3.47278 37.1417 3.41718 36.6117 3.38011C35.9639 3.34304 35.4535 3.39865 35.4339 4.21414C35.3946 5.53006 35.532 5.77101 36.5135 5.88221C36.7884 5.90075 37.0436 5.91928 37.3969 5.93781Z" fill="white"/>
<path d="M20.7899 12.7025C20.6918 10.4413 20.3188 8.18018 20.7899 5.90049C21.0451 4.62164 20.8684 3.26865 20.8488 1.9342C20.8292 1.2299 21.0451 0.970424 21.8892 0.877754C24.3822 0.599743 26.8752 1.02603 29.3683 0.822152C30.0946 0.766549 30.4675 1.10016 30.4872 1.80446C30.5068 2.45315 30.4675 3.06478 29.5646 3.17598C28.5242 3.30572 27.4838 3.19451 26.4237 3.17598C26.0311 3.17598 25.6385 3.13891 25.2459 3.17598C24.657 3.23158 23.9307 3.15745 23.8326 3.99148C23.7148 5.02939 24.1074 5.51127 25.0889 5.77075C26.0115 6.01169 26.8949 5.86342 27.8175 5.75222C28.4849 5.67808 29.0738 5.78929 29.3683 6.43798C29.7412 7.27201 29.2701 7.88364 28.2886 7.9207C27.0912 7.97631 25.8741 8.01338 24.6767 8.06898C23.7344 8.10605 23.4792 8.625 23.5774 9.4405C23.7737 10.9788 24.0092 11.1827 25.6974 11.1827C26.9145 11.1827 28.1119 11.1086 29.329 11.1456C30.3694 11.1642 30.7031 11.6831 30.5853 12.8878C30.5068 13.7775 29.8198 13.7033 29.2112 13.6107C28.1905 13.4624 27.1697 13.6107 26.1882 13.6663C24.5589 13.7775 22.9296 13.5365 21.3003 13.7219C20.9273 13.7589 20.5544 13.7404 20.3581 13.3883C20.2206 13.1473 20.3188 12.9805 20.5936 12.8878C20.6525 12.9805 20.8881 12.7766 20.7899 12.7025Z" fill="white"/>
<path d="M50.5491 13.7221C48.1935 13.7777 46.2501 13.0919 45.0134 11.0717C44.6404 10.4601 44.3853 9.86701 45.1116 9.34806C45.779 8.86617 46.9568 9.08858 47.4083 9.71874C48.6057 11.4053 49.2339 11.6277 51.2558 11.1088C51.8447 10.9605 52.2569 10.664 52.3551 10.0709C52.4728 9.4778 52.1195 9.14418 51.6484 8.86617C50.8632 8.40282 49.9798 8.19894 49.0768 7.99507C48.4094 7.8468 47.742 7.66146 47.0746 7.53172C45.7594 7.27224 45.1705 6.36407 44.9742 5.25202C44.4834 2.67579 45.6416 0.59997 48.0953 0.0810155C48.8217 -0.0857912 49.5283 0.0254133 50.2154 0.229288C51.0202 0.470231 51.8054 0.766777 52.5906 1.08186C53.3169 1.3784 54.3181 3.30595 54.2003 4.02877C54.161 4.26972 53.9844 4.38092 53.7488 4.45506C52.7869 4.71454 51.9625 4.39946 51.4521 3.56542C50.9417 2.73139 49.3713 2.30511 48.5076 2.76846C47.9972 3.04647 47.7224 3.49129 47.6831 4.06584C47.6438 4.65893 48.1346 4.78867 48.5272 5.06668C49.5283 5.77098 50.7454 5.75244 51.8643 6.04899C54.2003 6.64208 56.3203 9.57047 53.8273 12.0726C52.8851 13.0178 51.9821 13.7592 50.5491 13.7221Z" fill="white"/>
<path d="M75.9505 0.414589C76.716 0.266316 77.2068 0.488725 77.4816 1.21155C78.4042 3.73219 79.8569 6.03042 80.6028 8.64372C80.9169 9.73723 81.1721 10.9234 81.8787 11.9057C82.0751 12.1652 82.0358 12.4061 81.7413 12.6285C81.015 13.1104 79.6998 12.8695 79.425 12.054C79.0324 10.9049 78.2276 10.6083 77.1086 10.7381C77.0497 10.7381 76.9712 10.7566 76.9123 10.7381C75.2438 10.2933 74.066 10.6083 73.7519 12.4617C73.6537 12.9807 72.3189 13.1846 71.5533 12.9251C70.7289 12.6471 71.0822 12.0725 71.2392 11.6092C72.4759 8.16183 73.3004 4.62183 74.3604 1.11888C74.596 0.266316 75.3419 0.507259 75.9505 0.414589Z" fill="white"/>
<path d="M66.0962 9.16279C66.8028 7.99514 66.6654 6.80896 66.9403 5.71545C67.3132 4.34393 67.6077 2.95387 68.0003 1.58235C68.2358 0.766847 69.6099 0.377632 70.3166 0.859518C70.6111 1.04486 70.6111 1.32287 70.5522 1.60088C70.4344 2.17544 70.3363 2.76853 70.1203 3.30602C69.6492 4.4922 69.3548 5.71545 69.2173 6.97577C69.1388 7.64299 68.7659 8.18048 68.5303 8.7921C68.0788 9.94122 68.2162 11.2015 67.6273 12.3321C67.2543 13.0364 66.1943 13.648 65.4287 13.4071C65.2324 13.3515 65.0558 13.2032 65.0165 13.0364C64.8202 11.8132 63.8583 10.8865 63.5443 9.70028C63.2105 8.45849 62.5824 7.29084 62.0916 6.0676C61.6205 4.88141 61.1494 3.69523 60.7372 2.50905C60.5408 1.93449 60.5016 1.32287 60.4034 0.729779C61.9542 -0.011584 63.1516 0.544438 63.5835 2.0457C63.9761 3.43576 64.5846 4.78874 64.938 6.19733C65.1932 7.17964 65.4287 8.12488 66.0962 9.16279Z" fill="white"/>
<path d="M3.57431 3.30595C3.33875 6.01192 3.10319 8.86617 2.86763 11.739C2.848 11.8872 2.82837 12.054 2.80874 12.2023C2.73022 12.6286 3.12282 13.2031 2.55355 13.4812C1.90575 13.7592 1.19907 13.685 0.531648 13.5182C-0.0572544 13.37 0.00163584 12.851 0.00163584 12.4432C0.040896 11.2756 0.119416 10.108 0.197937 8.94031C0.256827 8.29161 0.217567 7.66146 0.0997862 7.01276C-0.0572544 6.12313 0.472758 5.28909 0.453128 4.39946C0.433498 3.8805 0.610168 3.32448 0.394237 2.84259C0.040896 1.93442 0.649428 1.3228 1.04203 0.729709C1.39537 0.19222 2.12168 0.451698 2.69096 0.525834C3.18171 0.581436 3.39764 0.91505 3.4369 1.3784C3.47616 1.95296 3.51542 2.54605 3.57431 3.30595Z" fill="white"/>
<path d="M59.0096 2.34201C59.363 5.52987 59.0489 8.7548 59.4022 11.9427C59.4611 12.4246 59.5004 12.925 58.8722 13.0732C58.2048 13.2215 57.4981 13.3698 57.027 12.6655C56.5755 11.9983 56.5362 11.2754 56.654 10.5341C56.6736 10.3858 56.7914 10.219 56.7718 10.0893C56.4184 8.6992 56.7129 7.27208 56.5166 5.88202C56.3007 4.36223 56.3399 2.80536 56.3596 1.28557C56.3596 0.785147 56.8896 0.581272 57.3803 0.655409C57.9496 0.729545 58.7152 0.488602 58.9311 1.28557C58.99 1.60065 58.9704 1.97133 59.0096 2.34201Z" fill="white"/>
</svg>
