<svg width="44" height="39" viewBox="0 0 44 39" fill="none" xmlns="http://www.w3.org/2000/svg">
<rect width="42.334" height="38.3635" fill="black" fill-opacity="0" transform="translate(0.700439)"/>
<rect width="42.334" height="38.3635" fill="black" fill-opacity="0" transform="translate(0.700439)"/>
<path d="M42.6389 30.3433C42.6389 30.7443 42.6389 31.0116 42.507 31.279C42.3751 31.5463 42.2432 31.8137 41.9795 31.9473L43.0345 34.2197H40.9244L40.265 32.3483H40.0012V34.2197H38.1549V28.4719H40.265C41.0563 28.4719 41.5838 28.6056 41.9795 28.8729C42.3751 29.1403 42.6389 29.6749 42.6389 30.3433ZM40.7925 30.3433C40.7925 30.076 40.7925 29.9423 40.6606 29.9423C40.6606 29.8086 40.5287 29.8086 40.265 29.8086H40.0012V30.878H40.265C40.3969 30.878 40.3969 30.878 40.5287 30.878C40.5287 30.878 40.6606 30.878 40.6606 30.7443C40.6606 30.7443 40.6606 30.6106 40.7925 30.6106C40.7925 30.6106 40.7925 30.477 40.7925 30.3433ZM37.7592 31.279C37.7592 31.8137 37.7592 32.2147 37.6273 32.6157C37.4955 33.0167 37.3636 33.284 37.2317 33.5514C36.9679 33.8187 36.7042 33.9524 36.4404 34.086C36.1766 34.2197 35.781 34.2197 35.3854 34.2197C34.5941 34.2197 33.9346 33.9524 33.539 33.5514C33.1434 33.0167 32.8796 32.3483 32.8796 31.279C32.8796 30.7443 32.8796 30.3433 33.0115 29.9423C33.1434 29.5413 33.2752 29.2739 33.4071 29.0066C33.6709 28.7393 33.9346 28.6056 34.1984 28.4719C34.4622 28.3383 34.8578 28.3383 35.2535 28.3383C35.6491 28.3383 36.0448 28.3383 36.3085 28.4719C36.5723 28.6056 36.836 28.7393 37.0998 29.0066C37.3636 29.2739 37.4955 29.5413 37.4955 29.9423C37.6273 30.3433 37.7592 30.7443 37.7592 31.279ZM35.9129 31.279C35.9129 31.0116 35.9129 30.7443 35.9129 30.477C35.9129 30.3433 35.9129 30.2096 35.781 30.076C35.781 29.9423 35.6491 29.9423 35.6491 29.9423C35.5172 29.9423 35.5172 29.9423 35.3854 29.9423C35.2535 29.9423 35.1216 29.9423 35.1216 29.9423C34.9897 29.9423 34.9897 30.076 34.9897 30.2096C34.9897 30.3433 34.8578 30.477 34.8578 30.6106C34.8578 30.7443 34.8578 31.0116 34.8578 31.279C34.8578 31.5463 34.8578 31.8137 34.8578 32.081C34.8578 32.2147 34.8578 32.482 34.9897 32.482C34.9897 32.6157 35.1216 32.6157 35.1216 32.7493C35.2535 32.7493 35.2535 32.7493 35.3854 32.7493C35.5172 32.7493 35.6491 32.7493 35.6491 32.7493C35.781 32.7493 35.781 32.6157 35.781 32.482C35.781 32.3483 35.9129 32.2147 35.9129 32.081C35.9129 31.8137 35.9129 31.5463 35.9129 31.279ZM31.4289 29.9423V34.2197H29.5825V29.9423H28.3956V28.3383H32.6158V29.9423H31.4289ZM26.9449 33.284H25.6261L25.4942 34.2197H23.6479L25.2304 28.4719H27.4725L29.1869 34.2197H27.2087L26.9449 33.284ZM26.1536 30.6106L25.8899 31.8137H26.5493L26.2855 30.6106L26.1536 29.9423V30.6106ZM23.3841 30.3433C23.3841 30.7443 23.3841 31.0116 23.2522 31.279C23.1203 31.5463 22.9885 31.8137 22.7247 31.9473L23.7798 34.2197H21.6696L21.0102 32.3483H20.7465V34.2197H18.9001V28.4719H21.0102C21.8015 28.4719 22.3291 28.6056 22.7247 28.8729C23.2522 29.1403 23.3841 29.6749 23.3841 30.3433ZM21.5378 30.3433C21.5378 30.076 21.5378 29.9423 21.4059 29.9423C21.4059 29.8086 21.274 29.8086 21.0102 29.8086H20.7465V30.878H21.0102C21.1421 30.878 21.1421 30.878 21.274 30.878C21.274 30.878 21.4059 30.878 21.4059 30.7443C21.4059 30.7443 21.4059 30.6106 21.5378 30.6106C21.5378 30.6106 21.5378 30.477 21.5378 30.3433ZM18.5045 32.6157V34.086H14.6799V28.3383H18.3726V29.9423H16.3944V30.6106H17.9769V31.9473H16.3944V32.6157H18.5045ZM14.2843 30.477C14.2843 30.7443 14.2843 31.1453 14.1524 31.279C14.0205 31.5463 13.8886 31.68 13.7567 31.9473C13.6248 32.081 13.3611 32.2147 12.9655 32.3483C12.7017 32.482 12.306 32.482 11.9104 32.482H11.6466V34.086H9.80028V28.3383H11.9104C12.306 28.3383 12.7017 28.3383 12.9655 28.4719C13.2292 28.6056 13.493 28.7393 13.7567 28.8729C13.8886 29.0066 14.0205 29.2739 14.1524 29.5413C14.2843 29.8086 14.2843 30.2096 14.2843 30.477ZM12.4379 30.477C12.4379 30.3433 12.4379 30.2096 12.4379 30.076C12.4379 29.9423 12.4379 29.9423 12.306 29.9423L12.1742 29.8086C12.0423 29.8086 12.0423 29.8086 11.9104 29.8086H11.6466V31.1453H11.9104C12.0423 31.1453 12.0423 31.1453 12.1742 31.1453C12.1742 31.1453 12.306 31.1453 12.306 31.0116L12.4379 30.878C12.4379 30.7443 12.4379 30.6106 12.4379 30.477ZM5.3163 28.3383L6.10758 30.878L6.23947 31.4126L6.37136 30.878L7.29453 28.3383H9.27276V34.086H7.69018V32.2147V31.5463L7.55829 32.2147L6.89888 34.086H5.71195L5.05254 32.081L4.92065 31.4126V32.081V33.9524H3.33808V28.2046H5.3163V28.3383ZM0.832309 28.3383H2.67867V34.086H0.832309V28.3383ZM42.3751 37.5614H41.7157L41.5838 37.9624H41.1882L41.8476 35.9574H42.2432L42.9026 37.9624H42.507L42.3751 37.5614ZM41.9795 36.4921L41.7157 37.2941H42.2432L41.9795 36.4921V36.2247V36.4921ZM41.0563 36.6257C41.0563 36.7594 41.0563 36.8931 40.9244 37.0267C40.9244 37.1604 40.7925 37.1604 40.6606 37.1604L41.0563 38.0961H40.6606L40.265 37.2941H40.0012V38.0961H39.6056V35.9574H40.265C40.5287 35.9574 40.6606 35.9574 40.7925 36.0911C40.9244 36.2247 41.0563 36.3584 41.0563 36.6257ZM40.6606 36.6257C40.6606 36.4921 40.6606 36.4921 40.5287 36.3584C40.5287 36.3584 40.3969 36.3584 40.265 36.3584H40.0012V37.0267H40.265C40.3969 37.0267 40.3969 37.0267 40.5287 37.0267C40.6606 36.7594 40.6606 36.7594 40.6606 36.6257ZM39.078 35.9574H39.4737V37.9624H39.078V35.9574ZM38.6824 37.6951V37.9624H37.4955V35.9574H38.6824V36.2247H37.8911V36.7594H38.5505V37.0267H37.8911V37.5614H38.6824V37.6951ZM37.2317 37.2941C37.2317 37.5614 37.2317 37.6951 37.0998 37.8288C36.9679 37.9624 36.8361 37.9624 36.5723 37.9624C36.3085 37.9624 36.1767 37.9624 36.0448 37.8288C35.9129 37.6951 35.9129 37.5614 35.9129 37.2941V35.9574H36.3085V37.2941C36.3085 37.4278 36.3085 37.5614 36.4404 37.5614C36.4404 37.5614 36.5723 37.6951 36.7042 37.6951C36.8361 37.6951 36.9679 37.6951 36.9679 37.5614C36.9679 37.5614 37.0998 37.4278 37.0998 37.2941V35.9574H37.4955V37.2941H37.2317ZM35.5172 37.9624C35.3853 37.9624 35.3854 37.9624 35.2535 38.0961C35.1216 38.0961 35.1216 38.0961 34.9897 38.0961C34.8578 38.0961 34.7259 38.0961 34.5941 38.0961C34.4622 38.0961 34.4622 37.9624 34.3303 37.9624C34.1984 37.8288 34.1984 37.8288 34.1984 37.6951C34.1984 37.5614 34.1984 37.4278 34.1984 37.2941C34.1984 37.1604 34.1984 36.8931 34.1984 36.7594C34.1984 36.6257 34.3303 36.4921 34.3303 36.4921C34.4622 36.3584 34.4622 36.3584 34.5941 36.3584C34.7259 36.3584 34.8578 36.3584 34.9897 36.3584C35.1216 36.3584 35.1216 36.3584 35.2535 36.3584C35.3854 36.3584 35.3853 36.3584 35.5172 36.4921V36.7594C35.5172 36.7594 35.3854 36.7594 35.2535 36.7594C35.1216 36.7594 35.1216 36.7594 34.9897 36.7594C34.8578 36.7594 34.8578 36.7594 34.726 36.7594C34.726 36.7594 34.5941 36.7594 34.5941 36.8931C34.5941 36.8931 34.4622 37.0267 34.4622 37.1604C34.4622 37.2941 34.4622 37.4278 34.4622 37.5614C34.4622 37.6951 34.4622 37.8288 34.4622 37.9624C34.4622 38.0961 34.4622 38.0961 34.5941 38.2298L34.726 38.3634C34.726 38.3634 34.8578 38.3634 34.9897 38.3634C35.1216 38.3634 35.1216 38.3634 35.2535 38.3634V37.5614H35.5172V37.9624ZM33.9347 37.0267C33.9347 37.1604 33.9347 37.4278 33.9347 37.5614C33.9347 37.6951 33.8028 37.8288 33.8028 37.8288C33.8028 37.9624 33.6709 37.9624 33.539 37.9624C33.4071 37.9624 33.2752 37.9624 33.1434 37.9624C33.0115 37.9624 32.8796 37.9624 32.7477 37.9624C32.6158 37.9624 32.6158 37.8288 32.4839 37.8288C32.4839 37.6951 32.3521 37.6951 32.3521 37.5614C32.3521 37.4278 32.3521 37.2941 32.3521 37.0267C32.3521 36.8931 32.3521 36.6257 32.3521 36.4921C32.3521 36.3584 32.4839 36.2247 32.4839 36.2247C32.4839 36.0911 32.6158 36.0911 32.7477 36.0911C32.8796 36.0911 33.0115 36.0911 33.1434 36.0911C33.2752 36.0911 33.4071 36.0911 33.539 36.0911C33.6709 36.0911 33.6709 36.2247 33.8028 36.2247C33.8028 36.3584 33.9347 36.3584 33.9347 36.4921C33.9347 36.6257 33.9347 36.7594 33.9347 37.0267ZM33.539 37.0267C33.539 36.8931 33.539 36.7594 33.539 36.6257C33.539 36.4921 33.539 36.4921 33.4071 36.3584L33.2752 36.2247H33.1434C33.0115 36.2247 33.0115 36.2247 33.0115 36.2247C33.0115 36.2247 32.8796 36.2247 32.8796 36.3584C32.8796 36.3584 32.8796 36.4921 32.7477 36.6257C32.7477 36.7594 32.7477 36.8931 32.7477 37.0267C32.7477 37.1604 32.7477 37.2941 32.7477 37.4278C32.7477 37.5614 32.7477 37.5614 32.8796 37.6951L33.0115 37.8288H33.1434C33.2752 37.8288 33.2752 37.8288 33.2752 37.8288C33.2752 37.8288 33.4071 37.8288 33.4071 37.6951C33.4071 37.6951 33.4071 37.5614 33.539 37.4278C33.539 37.2941 33.539 37.1604 33.539 37.0267ZM31.8245 37.9624L31.0333 36.7594L30.9014 36.6257V36.8931V38.0961H30.6376V35.9574H30.9014L31.5608 37.1604L31.6927 37.2941V37.0267V35.9574H31.9564V37.9624H31.8245ZM29.7144 37.0267C29.7144 37.1604 29.7144 37.4278 29.7144 37.5614C29.7144 37.6951 29.5825 37.8288 29.5825 37.8288C29.5825 37.9624 29.4507 37.9624 29.3188 37.9624C29.1869 37.9624 29.055 37.9624 28.9231 37.9624C28.7913 37.9624 28.6594 37.9624 28.5275 37.9624C28.3956 37.9624 28.3956 37.8288 28.2637 37.8288C28.2637 37.6951 28.1319 37.6951 28.1319 37.5614C28.1319 37.4278 28.1319 37.2941 28.1319 37.0267C28.1319 36.8931 28.1319 36.6257 28.1319 36.4921C28.1319 36.3584 28.2637 36.2247 28.2637 36.2247C28.2637 36.0911 28.3956 36.0911 28.5275 36.0911C28.6594 36.0911 28.7913 36.0911 28.9231 36.0911C29.055 36.0911 29.1869 36.0911 29.3188 36.0911C29.4507 36.0911 29.4507 36.2247 29.5825 36.2247C29.5825 36.3584 29.7144 36.3584 29.7144 36.4921C29.7144 36.6257 29.7144 36.7594 29.7144 37.0267ZM29.3188 37.0267C29.3188 36.8931 29.3188 36.7594 29.3188 36.6257C29.3188 36.4921 29.3188 36.4921 29.1869 36.3584L29.055 36.2247H28.9231C28.7913 36.2247 28.7913 36.2247 28.7913 36.2247C28.7913 36.2247 28.6594 36.2247 28.6594 36.3584C28.6594 36.3584 28.6594 36.4921 28.5275 36.6257C28.5275 36.7594 28.5275 36.8931 28.5275 37.0267C28.5275 37.1604 28.5275 37.2941 28.5275 37.4278C28.5275 37.5614 28.5275 37.5614 28.6594 37.6951L28.7913 37.8288H28.9231C29.055 37.8288 29.055 37.8288 29.055 37.8288C29.055 37.8288 29.1869 37.8288 29.1869 37.6951C29.1869 37.6951 29.1869 37.5614 29.3188 37.4278C29.3188 37.2941 29.3188 37.1604 29.3188 37.0267ZM27.6043 37.5614H26.9449L26.813 37.9624H26.4174L27.0768 35.9574H27.4725L28.1319 37.9624H27.7362L27.6043 37.5614ZM26.813 35.8237C26.813 35.6901 26.813 35.6901 26.9449 35.5564L27.0768 35.4227H27.2087C27.2087 35.4227 27.2087 35.4227 27.3406 35.4227C27.3406 35.4227 27.3406 35.4227 27.4725 35.4227C27.4725 35.4227 27.4724 35.4227 27.6043 35.4227C27.6043 35.4227 27.7362 35.4227 27.7362 35.289H27.8681C27.8681 35.4227 27.8681 35.4227 27.7362 35.5564L27.6043 35.6901H27.4725C27.4725 35.6901 27.4724 35.6901 27.3406 35.6901C27.3406 35.6901 27.3406 35.6901 27.2087 35.6901C27.2087 35.6901 27.2087 35.6901 27.2087 35.8237H26.813ZM27.2087 36.4921L26.9449 37.2941H27.4725L27.2087 36.4921V36.2247V36.4921ZM26.2855 37.0267C26.2855 37.1604 26.2855 37.4278 26.2855 37.5614C26.2855 37.6951 26.1536 37.8288 26.1536 37.8288C26.1536 37.9624 26.0217 37.9624 25.8899 37.9624C25.758 37.9624 25.6261 37.9624 25.4942 37.9624C25.3623 37.9624 25.2305 37.9624 25.0986 37.9624C24.9667 37.9624 24.9667 37.8288 24.8348 37.8288C24.8348 37.6951 24.7029 37.6951 24.7029 37.5614C24.7029 37.4278 24.7029 37.2941 24.7029 37.0267C24.7029 36.8931 24.7029 36.6257 24.7029 36.4921C24.7029 36.3584 24.8348 36.2247 24.8348 36.2247C24.8348 36.0911 24.9667 36.0911 25.0986 36.0911C25.2305 36.0911 25.3623 36.0911 25.4942 36.0911C25.6261 36.0911 25.758 36.0911 25.8899 36.0911C26.0217 36.0911 26.0218 36.2247 26.1536 36.2247C26.1536 36.3584 26.2855 36.3584 26.2855 36.4921C26.2855 36.6257 26.2855 36.7594 26.2855 37.0267ZM26.0217 37.0267C26.0217 36.8931 26.0217 36.7594 26.0217 36.6257C26.0217 36.4921 26.0217 36.4921 25.8899 36.3584L25.758 36.2247H25.6261C25.4942 36.2247 25.4942 36.2247 25.4942 36.2247C25.4942 36.2247 25.3623 36.2247 25.3623 36.3584C25.3623 36.3584 25.3623 36.4921 25.2304 36.6257C25.2304 36.7594 25.2304 36.8931 25.2304 37.0267C25.2304 37.1604 25.2304 37.2941 25.2304 37.4278C25.2304 37.5614 25.2305 37.5614 25.3623 37.6951L25.4942 37.8288H25.6261C25.758 37.8288 25.758 37.8288 25.758 37.8288C25.758 37.8288 25.8899 37.8288 25.8899 37.6951C25.8899 37.6951 25.8899 37.5614 26.0217 37.4278C26.0217 37.2941 26.0217 37.1604 26.0217 37.0267ZM24.571 37.2941C24.571 37.4278 24.571 37.5614 24.571 37.5614C24.571 37.6951 24.4392 37.6951 24.4392 37.8288C24.4392 37.8288 24.3073 37.9624 24.1754 37.9624C24.0435 37.9624 24.0435 37.9624 23.9116 37.9624C23.7797 37.9624 23.7797 37.9624 23.6479 37.9624H23.516V37.6951H23.6479H23.7798C23.9116 37.6951 24.0435 37.6951 24.0435 37.5614C24.0435 37.5614 24.1754 37.4278 24.1754 37.2941V35.9574H24.571V37.2941ZM22.7247 37.6951V37.9624H21.6696V35.9574H22.0653V37.6951H22.7247ZM20.8784 37.5614H20.219L20.0871 37.9624H19.6914L20.3508 35.9574H20.7465L21.4059 37.9624H21.0102L20.8784 37.5614ZM20.4827 36.4921L20.219 37.2941H20.7465L20.4827 36.4921V36.2247V36.4921ZM19.5595 36.6257C19.5595 36.7594 19.5595 36.8931 19.4277 37.0267C19.4277 37.1604 19.2958 37.1604 19.1639 37.1604L19.5595 38.0961H19.1639L18.7682 37.2941H18.5045V38.0961H18.1088V35.9574H18.7682C19.032 35.9574 19.1639 35.9574 19.2958 36.0911C19.5595 36.2247 19.5595 36.3584 19.5595 36.6257ZM19.1639 36.6257C19.1639 36.4921 19.1639 36.4921 19.032 36.3584C19.032 36.3584 18.9001 36.3584 18.7682 36.3584H18.5045V37.0267H18.7682C18.9001 37.0267 18.9001 37.0267 19.032 37.0267C19.1639 36.7594 19.1639 36.7594 19.1639 36.6257ZM17.9769 37.2941C17.9769 37.5614 17.977 37.6951 17.8451 37.8288C17.7132 37.9624 17.5813 37.9624 17.3175 37.9624C17.0538 37.9624 16.9219 37.9624 16.79 37.8288C16.6581 37.6951 16.6581 37.5614 16.6581 37.2941V35.9574H17.0538V37.2941C17.0538 37.4278 17.0538 37.5614 17.1857 37.5614C17.1857 37.5614 17.3175 37.6951 17.4494 37.6951C17.5813 37.6951 17.7132 37.6951 17.7132 37.5614C17.7132 37.5614 17.8451 37.4278 17.8451 37.2941V35.9574H18.2407V37.2941H17.9769ZM15.8668 36.3584V38.0961H15.4712V36.3584H14.9437V36.0911H16.2625V36.3584H15.8668ZM15.0755 37.6951V37.9624H14.0205V35.9574H14.4161V37.6951H15.0755ZM13.6249 37.2941C13.6249 37.5614 13.6249 37.6951 13.493 37.8288C13.3611 37.9624 13.2292 37.9624 12.9655 37.9624C12.7017 37.9624 12.5698 37.9624 12.4379 37.8288C12.306 37.6951 12.306 37.5614 12.306 37.2941V35.9574H12.7017V37.2941C12.7017 37.4278 12.7017 37.5614 12.8336 37.5614C12.8336 37.5614 12.9654 37.6951 13.0973 37.6951C13.2292 37.6951 13.3611 37.6951 13.3611 37.5614C13.3611 37.5614 13.493 37.4278 13.493 37.2941V35.9574H13.8886V37.2941H13.6249ZM12.0423 36.3584H11.9104H11.7785C11.6466 36.3584 11.6466 36.3584 11.5147 36.3584C11.5147 36.3584 11.3829 36.3584 11.3829 36.4921C11.3829 36.4921 11.3829 36.6257 11.251 36.7594C11.251 36.8931 11.251 37.0267 11.251 37.1604C11.251 37.2941 11.251 37.4278 11.251 37.5614C11.251 37.6951 11.251 37.6951 11.3829 37.8288L11.5147 37.9624C11.5147 37.9624 11.6466 37.9624 11.7785 37.9624C11.9104 37.9624 11.9104 37.9624 11.9104 37.9624H12.0423V38.2298C12.0423 38.2298 11.9104 38.2298 11.7785 38.3634C11.6466 38.3634 11.6466 38.3634 11.5147 38.3634C11.251 38.3634 10.9872 38.2298 10.8553 38.0961C10.7235 37.9624 10.7234 37.6951 10.7234 37.2941C10.7234 36.8931 10.7235 36.6257 10.8553 36.4921C10.9872 36.3584 11.251 36.2247 11.5147 36.2247C11.6466 36.2247 11.6466 36.2247 11.7785 36.2247C11.9104 36.2247 11.9104 36.2247 11.9104 36.2247L12.0423 36.3584ZM9.93217 37.0267C9.93217 37.1604 9.93217 37.4278 9.93217 37.5614C9.93217 37.6951 9.80028 37.8288 9.80028 37.8288C9.80028 37.9624 9.6684 37.9624 9.53652 37.9624C9.40463 37.9624 9.27275 37.9624 9.14087 37.9624C9.00899 37.9624 8.8771 37.9624 8.74522 37.9624C8.61334 37.9624 8.61334 37.8288 8.48146 37.8288C8.48146 37.6951 8.34959 37.6951 8.34959 37.5614C8.34959 37.4278 8.34959 37.2941 8.34959 37.0267C8.34959 36.8931 8.34959 36.6257 8.34959 36.4921C8.34959 36.3584 8.48146 36.2247 8.48146 36.2247C8.48146 36.0911 8.61334 36.0911 8.74522 36.0911C8.8771 36.0911 9.00899 36.0911 9.14087 36.0911C9.27275 36.0911 9.40463 36.0911 9.53652 36.0911C9.6684 36.0911 9.66839 36.2247 9.80028 36.2247C9.80028 36.3584 9.93217 36.3584 9.93217 36.4921C9.93217 36.6257 9.93217 36.7594 9.93217 37.0267ZM9.53652 37.0267C9.53652 36.8931 9.53652 36.7594 9.53652 36.6257C9.53652 36.4921 9.53651 36.4921 9.40463 36.3584L9.27276 36.2247H9.14087H9.009C9.009 36.2247 8.87711 36.2247 8.87711 36.3584C8.87711 36.3584 8.8771 36.4921 8.74522 36.6257C8.74522 36.7594 8.74522 36.8931 8.74522 37.0267C8.74522 37.1604 8.74522 37.2941 8.74522 37.4278C8.74522 37.5614 8.74523 37.5614 8.87711 37.6951L9.009 37.8288H9.14087H9.27276C9.27276 37.8288 9.40463 37.8288 9.40463 37.6951C9.40463 37.6951 9.40463 37.5614 9.53652 37.4278C9.53652 37.2941 9.53652 37.1604 9.53652 37.0267ZM8.2177 36.6257C8.2177 36.7594 8.21769 36.8931 8.08581 37.0267C8.08581 37.1604 7.95393 37.1604 7.82205 37.1604L8.2177 38.0961H7.82205L7.4264 37.2941H7.16264V38.0961H6.76699V35.9574H7.4264C7.69016 35.9574 7.82206 35.9574 7.95394 36.0911C8.08582 36.2247 8.2177 36.3584 8.2177 36.6257ZM7.82205 36.6257C7.82205 36.4921 7.82206 36.4921 7.69018 36.3584C7.69018 36.3584 7.55828 36.3584 7.4264 36.3584H7.16264V37.0267H7.4264C7.55828 37.0267 7.5583 37.0267 7.69018 37.0267C7.82206 36.7594 7.82205 36.7594 7.82205 36.6257ZM6.10758 36.3584V38.0961H5.71195V36.3584H5.18441V36.0911H6.50323V36.3584H6.10758ZM4.92065 37.9624L4.12935 36.7594L3.99748 36.6257V36.8931V38.0961H3.73373V35.9574H3.99748L4.65689 37.1604L4.78876 37.2941V37.0267V35.9574H5.05254V37.9624H4.92065ZM3.46995 37.6951V37.9624H2.28302V35.9574H3.46995V36.2247H2.67867V36.7594H3.33808V37.0267H2.67867V37.5614H3.46995V37.6951ZM2.01926 36.3584H1.88737H1.7555C1.62362 36.3584 1.6236 36.3584 1.49172 36.3584C1.49172 36.3584 1.35985 36.3584 1.35985 36.4921C1.35985 36.4921 1.35984 36.6257 1.22796 36.7594C1.22796 36.8931 1.22796 37.0267 1.22796 37.1604C1.22796 37.2941 1.22796 37.4278 1.22796 37.5614C1.22796 37.6951 1.22797 37.6951 1.35985 37.8288L1.49172 37.9624C1.49172 37.9624 1.62362 37.9624 1.7555 37.9624C1.88738 37.9624 1.88737 37.9624 1.88737 37.9624H2.01926V38.2298C2.01926 38.2298 1.88738 38.2298 1.7555 38.3634C1.62362 38.3634 1.6236 38.3634 1.49172 38.3634C1.22795 38.3634 0.964191 38.2298 0.832309 38.0961C0.700427 37.9624 0.700439 37.6951 0.700439 37.2941C0.700439 36.8931 0.700427 36.6257 0.832309 36.4921C0.964191 36.3584 1.22795 36.2247 1.49172 36.2247C1.6236 36.2247 1.62362 36.2247 1.7555 36.2247C1.88738 36.2247 1.88737 36.2247 1.88737 36.2247L2.01926 36.3584Z" fill="white"/>
<path fill-rule="evenodd" clip-rule="evenodd" d="M15.735 6.81712H27.7362V19.783H15.735V6.81712ZM22.9885 3.74273H28.7913L28.5275 2.53971L22.9885 3.74273ZM20.7465 3.74273H22.0653L26.6812 2.67338L26.0217 1.20302L20.7465 3.74273ZM19.2958 3.74273H20.219L24.3073 1.7377L23.2522 0.401006L19.2958 3.74273ZM17.8451 3.74273H18.9001L21.6696 1.47036L20.3508 0.401006L17.8451 3.74273ZM16.3944 3.74273H17.5813L19.1639 1.7377L17.7132 1.06935L16.3944 3.74273ZM14.8118 3.74273H16.1306L16.6581 2.53971L15.0756 2.13871L14.8118 3.74273ZM30.7695 14.5699V20.3177L31.9564 20.0504L30.7695 14.5699ZM30.7695 12.2976V13.6342L31.8245 18.3127L33.2752 17.6443L30.7695 12.2976ZM30.7695 10.6935V11.7629L32.7477 15.7729L34.0665 14.7036L30.7695 10.6935ZM30.7695 9.35683V10.4262L33.0115 13.2332L34.0665 11.8965L30.7695 9.35683ZM30.7695 7.88647V9.08949L32.7477 10.6935L33.4071 9.22316L30.7695 7.88647ZM30.7695 6.28244V7.61913L31.9564 8.15381L32.3521 6.54978L30.7695 6.28244ZM20.4827 22.8574H14.6799L14.9437 24.0604L20.4827 22.8574ZM22.8566 22.8574H21.5378L16.9219 23.9268L17.5813 25.3971L22.8566 22.8574ZM24.3073 22.8574H23.3841L19.2958 24.8624L20.3508 26.1991L24.3073 22.8574ZM25.758 22.8574H24.7029L21.9334 25.1298L23.2522 26.1991L25.758 22.8574ZM27.2087 22.8574H26.0217L24.4392 24.8624L25.8899 25.5308L27.2087 22.8574ZM28.7913 22.8574H27.4725L26.9449 24.0604L28.5275 24.4614L28.7913 22.8574ZM12.7017 12.0302V6.14878L11.5147 6.54978L12.7017 12.0302ZM12.7017 14.3026V12.9659L11.6466 8.28748L10.1959 8.95582L12.7017 14.3026ZM12.7017 15.9066V14.9709L10.7234 10.8272L9.40463 11.8965L12.7017 15.9066ZM12.7017 17.2433V16.174L10.4597 13.3669L9.40463 14.7036L12.7017 17.2433ZM12.7017 18.7137V17.5106L10.7234 15.9066L10.064 17.377L12.7017 18.7137ZM12.7017 20.4514V19.1147L11.5147 18.58L11.1191 20.184L12.7017 20.4514ZM12.7017 3.74273H14.548L14.9437 1.87137L16.79 2.27237L17.5813 0.668345L19.2958 1.47036L20.3508 0L21.8015 1.20302L23.2522 0.13367L24.4392 1.60403L26.0217 0.802015L26.813 2.53971L28.5275 2.13871L28.9231 3.74273H30.7695V6.01511L32.6158 6.41611L32.2202 8.28748L33.8028 9.08949L33.0115 10.8272L34.4622 11.8965L33.2752 13.3669L34.3303 14.8373L32.8796 16.0403L33.6709 17.6443L31.9564 18.4463L32.3521 20.184L30.9014 20.585V22.8574H29.055L28.6594 24.7288L26.813 24.3278L26.0217 25.9318L24.3073 25.1298L23.2522 26.6001L21.8015 25.3971L20.3508 26.4665L19.1639 24.9961L17.5813 25.7981L16.79 24.0604L15.0756 24.4614L14.6799 22.8574H12.8336V20.585L10.9872 20.184L11.3829 18.3127L9.80028 17.5106L10.5916 15.7729L9.14087 14.7036L10.3278 13.2332L9.27276 11.7629L10.7234 10.5599L9.93217 8.95582L11.6466 8.15381L11.251 6.41611L12.8336 6.01511V3.74273H12.7017Z" fill="white"/>
</svg>
