<svg width="80" height="14" viewBox="0 0 80 14" fill="none" xmlns="http://www.w3.org/2000/svg">
<rect width="78.4697" height="13.2334" fill="black" fill-opacity="0" transform="translate(0.814941)"/>
<path d="M43.9402 9.8915C43.8083 9.8915 43.8083 9.8915 43.9402 9.8915C43.017 8.95582 42.0939 8.15381 41.3026 7.35179C41.3026 7.35179 41.1707 7.21812 41.0388 7.21812C39.9837 7.21812 39.0606 7.21812 38.0055 7.21812H37.8736V12.5649C38.9287 12.5649 39.9837 12.5649 41.0388 12.5649C41.0388 12.5649 41.1707 12.5649 41.1707 12.4312C41.5663 12.0302 41.8301 11.7629 42.2257 11.3619C42.7533 10.9609 43.2808 10.4262 43.9402 9.8915ZM43.9402 3.87639C43.8083 3.87639 43.8083 3.87639 43.9402 3.87639C43.017 2.94071 42.0939 2.1387 41.3026 1.33668H41.1707C40.2475 1.33668 39.1924 1.33668 38.2693 1.33668H38.1374V6.68345C38.1374 6.68345 38.1374 6.68345 38.2693 6.68345C39.3243 6.68345 40.2475 6.68345 41.3026 6.68345C41.3026 6.68345 41.4344 6.68344 41.4344 6.54978C42.2257 5.74776 43.017 5.07942 43.8083 4.2774C43.6764 4.14373 43.8083 4.01006 43.9402 3.87639ZM37.2142 0.534668H37.7418C38.9287 0.534668 40.1156 0.534668 41.3026 0.534668C41.4345 0.534668 41.4344 0.534668 41.4344 0.668338C42.4895 1.73769 43.6764 2.80704 44.7315 3.87639C43.6764 4.81208 42.6214 5.88143 41.6982 6.81711C42.7533 7.7528 43.8083 8.82215 44.8634 9.75784C44.7315 9.8915 44.5996 9.89151 44.5996 10.0252C43.5446 10.9609 42.4895 12.0302 41.5663 12.9659C41.4344 13.0996 41.4345 13.0996 41.3026 13.0996C39.9838 13.0996 38.6649 13.0996 37.3461 13.0996H37.2142V0.534668Z" fill="white"/>
<path d="M19.6741 6.54989H24.8175V1.3368H19.6741V6.54989ZM19.6741 7.75292V13.2333H19.0146V0.668457H25.6087V7.35191H20.2016C22.048 9.22328 23.7624 11.0946 25.6087 12.8323C25.4769 12.966 25.2131 13.0997 25.0812 13.2333C23.2349 11.362 21.5204 9.62429 19.6741 7.75292Z" fill="white"/>
<path d="M7.27714 13.0996H6.61773V1.60403C5.69456 2.40604 4.90328 3.20806 4.11199 4.14374C3.18881 3.34173 2.39752 2.53971 1.47435 1.60403V13.0996H0.814941V0.13367C1.87 1.20302 2.92505 2.1387 4.11199 3.20806C5.16704 2.1387 6.35398 1.06935 7.40903 0V13.0996H7.27714Z" fill="white"/>
<path d="M33.9173 9.49074C33.9173 7.48571 33.9173 5.61434 33.9173 3.74297C33.9173 3.74297 33.9173 3.6093 33.7854 3.6093C32.9941 2.80729 32.2028 2.00527 31.4115 1.20326C31.4115 1.20326 31.4115 1.20326 31.2796 1.20326C30.4884 2.00527 29.697 2.80729 28.9057 3.47563C28.9057 3.47563 28.7739 3.6093 28.7739 3.74297C28.7739 5.61434 28.7739 7.48571 28.7739 9.35707V9.49074H33.9173ZM31.4115 0.267578C32.2028 1.06959 33.126 1.87161 33.9173 2.67362C34.181 2.94096 34.3129 3.07463 34.5767 3.34197L34.7086 3.47563C34.7086 6.68369 34.7086 9.89175 34.7086 12.9661V13.0998H34.0492V10.1591H28.9057V13.0998H28.2463V12.9661C28.2463 9.75808 28.2463 6.68369 28.2463 3.47563C28.2463 3.34197 28.2463 3.34196 28.3782 3.2083C29.1695 2.27261 30.2246 1.33693 31.4115 0.267578C31.2797 0.267578 31.2797 0.267578 31.4115 0.267578Z" fill="white"/>
<path d="M78.4933 7.21812H72.6906V0.534668H79.0209V1.20301H73.4819V6.54978H79.2846V13.2332H72.9543V12.5649H78.4933V7.21812Z" fill="white"/>
<path d="M12.6843 1.20301H10.0466V0.534668H16.2451V1.20301H13.4756V12.4312H16.2451V13.2332H10.0466V12.4312H12.6843V1.20301Z" fill="white"/>
<path d="M49.2156 1.20301H46.446V0.534668H52.6445V1.20301H49.875V12.4312H52.6445V13.2332H46.446V12.4312H49.2156V1.20301Z" fill="white"/>
<path d="M69.9208 12.4312V13.2332H63.8543V12.5649H66.4919V1.20301H63.7224V0.534668H69.9208V1.20301H67.2832V12.4312H69.9208Z" fill="white"/>
<path d="M55.4141 0.534668H56.0735V12.4312H61.7444V13.2332H55.4141V0.534668Z" fill="white"/>
</svg>
