<svg width="67" height="23" viewBox="0 0 67 23" fill="none" xmlns="http://www.w3.org/2000/svg">
<rect width="66.9961" height="22.5904" fill="black" fill-opacity="0"/>
<path d="M29.8055 8.55482H34.0257V11.3619H29.8055V17.2433H35.2127V20.0504H26.7722V0H35.2127V2.80705H29.8055V8.55482Z" fill="white"/>
<path d="M42.4659 22.4566C42.334 21.9219 42.2021 21.6546 42.2021 20.0506V16.8425C42.2021 14.9711 41.5427 14.3028 40.2239 14.3028H39.1688V22.4566H36.0037V2.40625H40.7514C43.9166 2.40625 45.3673 3.87661 45.3673 6.951V8.55502C45.3673 10.5601 44.7079 11.8968 43.389 12.5651C44.9716 13.2334 45.4992 14.7038 45.4992 16.8425V19.9169C45.4992 20.8526 45.4992 21.6546 45.8948 22.3229H42.4659V22.4566ZM39.1688 5.34697V11.4957H40.3558C41.5427 11.4957 42.2021 10.9611 42.2021 9.35704V7.48567C42.2021 6.01531 41.6746 5.48064 40.6195 5.48064H39.1688V5.34697Z" fill="white"/>
<path d="M55.2583 14.7033V17.3767C55.2583 20.5848 53.6758 22.4561 50.6425 22.4561C47.6092 22.4561 46.0266 20.5848 46.0266 17.3767V6.95052C46.0266 3.74246 47.6092 1.87109 50.6425 1.87109C53.6758 1.87109 55.2583 3.74246 55.2583 6.95052V8.82189H52.3569V6.68318C52.3569 5.21282 51.6975 4.67814 50.7744 4.67814C49.8512 4.67814 49.1918 5.21282 49.1918 6.68318V17.5104C49.1918 18.9807 49.8512 19.5154 50.7744 19.5154C51.6975 19.5154 52.3569 18.9807 52.3569 17.5104V14.7033H55.2583Z" fill="white"/>
<path d="M57.5005 5.74788C57.5005 2.53983 59.215 0.668457 62.2482 0.668457C65.2815 0.668457 66.996 2.53983 66.996 5.74788V16.1741C66.996 19.3821 65.2815 21.2535 62.2482 21.2535C59.215 21.2535 57.5005 19.3821 57.5005 16.1741V5.74788ZM60.6657 16.3077C60.6657 17.7781 61.3251 18.3128 62.2482 18.3128C63.1714 18.3128 63.8308 17.7781 63.8308 16.3077V5.48054C63.8308 4.01018 63.1714 3.47551 62.2482 3.47551C61.3251 3.47551 60.6657 4.14385 60.6657 5.48054V16.3077Z" fill="white"/>
<path d="M26.2445 9.08983V7.0848C26.2445 3.87674 24.6619 2.00537 21.6286 2.00537C18.5953 2.00537 17.0128 3.87674 17.0128 7.0848V8.68882C16.3533 6.41645 15.0345 5.07976 13.1882 5.07976H4.3521C1.58258 5.07976 0 7.61947 0 12.2979C0 16.9763 1.58258 19.516 4.3521 19.516H13.1882C15.0345 19.516 16.4852 18.313 17.0128 15.907V17.511C17.0128 20.719 18.5953 22.5904 21.6286 22.5904C24.6619 22.5904 26.2445 20.719 26.2445 17.511V14.8376H23.3431V17.6446C23.3431 19.115 22.6837 19.6497 21.7605 19.6497C20.8373 19.6497 20.1779 19.115 20.1779 17.6446V6.81746C20.1779 5.3471 20.8373 4.81242 21.7605 4.81242C22.6837 4.81242 23.3431 5.3471 23.3431 6.81746V8.95616H26.2445V9.08983ZM13.3201 14.7039H4.08834C2.9014 14.7039 2.37387 13.7682 2.37387 12.2979C2.37387 10.8275 2.9014 9.89184 4.08834 9.89184H13.3201C14.507 9.89184 15.0345 10.8275 15.0345 12.2979C15.0345 13.7682 14.507 14.7039 13.3201 14.7039Z" fill="white"/>
</svg>
