<svg width="53" height="56" viewBox="0 0 53 56" fill="none" xmlns="http://www.w3.org/2000/svg">
<rect width="52.4252" height="55.7188" fill="black" fill-opacity="0"/>
<path d="M25.8044 55.2255C32.8475 56.6552 43.4122 55.6154 43.4122 43.3973C43.4122 23.7705 58.1506 20.7809 49.9336 8.82285C40.021 -5.60485 6.37054 -2.35537 1.02298 18.7013C-3.80287 37.4183 9.10953 51.976 25.8044 55.2255ZM34.5431 17.4015C35.9778 17.4015 37.0212 18.5713 37.0212 19.8711C37.0212 21.3009 35.9778 22.3407 34.5431 22.3407C33.1083 22.3407 32.0649 21.1709 32.0649 19.8711C32.0649 18.4413 33.1083 17.4015 34.5431 17.4015ZM34.5431 24.1604C35.9778 24.1604 37.0212 27.4099 37.0212 31.5692C37.0212 35.5986 35.8473 38.978 34.5431 38.978C33.1083 38.978 32.0649 35.7286 32.0649 31.5692C32.0649 27.4099 33.1083 24.1604 34.5431 24.1604ZM23.1958 24.1604C27.3695 24.1604 30.1085 27.4099 30.1085 31.5692C30.1085 35.7286 27.3695 38.978 23.1958 38.978C19.0221 38.978 16.2831 35.7286 16.2831 31.5692C16.2831 27.4099 19.1525 24.1604 23.1958 24.1604Z" fill="white"/>
<path d="M23.1959 35.2084C25.1523 35.2084 26.1957 33.2587 26.1957 31.309C26.1957 29.3594 25.1523 27.4097 23.1959 27.4097C21.2395 27.4097 20.196 29.3594 20.196 31.309C20.3265 33.2587 21.3699 35.2084 23.1959 35.2084Z" fill="white"/>
</svg>
