<svg width="34" height="56" viewBox="0 0 34 56" fill="none" xmlns="http://www.w3.org/2000/svg">
<rect width="33.4124" height="55.7669" fill="black" fill-opacity="0"/>
<rect width="27.912" height="18.1971" fill="black" fill-opacity="0" transform="translate(1.18506 37.5698)"/>
<rect width="27.912" height="18.1971" fill="black" fill-opacity="0" transform="translate(1.18506 37.5698)"/>
<path d="M16.5756 41.7292C17.7495 41.7292 18.6625 40.8193 18.6625 39.6495C18.6625 38.4797 17.7495 37.5698 16.5756 37.5698C15.4017 37.5698 14.4887 38.4797 14.4887 39.6495C14.4887 40.8193 15.4017 41.7292 16.5756 41.7292ZM16.5756 43.2889C15.4017 43.2889 14.4887 46.0185 14.4887 49.5279C14.4887 52.9074 15.4017 55.7669 16.5756 55.7669C17.7495 55.7669 18.6625 53.0374 18.6625 49.5279C18.6625 46.0185 17.7495 43.2889 16.5756 43.2889ZM7.05433 43.2889C3.53277 43.2889 1.18506 46.0185 1.18506 49.5279C1.18506 53.0374 3.53277 55.7669 7.05433 55.7669C10.5759 55.7669 12.9236 53.0374 12.9236 49.5279C12.9236 46.0185 10.5759 43.2889 7.05433 43.2889ZM7.05433 52.7774C5.48919 52.7774 4.57619 51.0877 4.57619 49.5279C4.57619 47.8382 5.48919 46.2784 7.05433 46.2784C8.61947 46.2784 9.53247 47.8382 9.53247 49.5279C9.53247 51.0877 8.7499 52.7774 7.05433 52.7774Z" fill="white"/>
<rect width="7.95619" height="17.8073" fill="black" fill-opacity="0" transform="translate(21.1409 37.8301)"/>
<path d="M22.0541 40.0397H24.4018V40.8196H22.0541V43.0292H21.2715V37.8301H24.4018V38.61H22.0541V40.0397Z" fill="white"/>
<path d="M28.3145 37.8301H29.0971V41.3395C29.0971 42.5093 28.3145 43.1592 27.2711 43.1592C26.0972 43.1592 25.4451 42.3793 25.4451 41.3395V37.8301H26.2276V41.3395C26.2276 42.1194 26.7494 42.3794 27.2711 42.3794C27.7928 42.3794 28.3145 42.1194 28.3145 41.3395V37.8301Z" fill="white"/>
<path d="M23.3581 44.8487V49.268H22.5756V44.8487H21.1409V44.0688H24.7929V44.8487H23.3581Z" fill="white"/>
<path d="M28.3145 44.0688H29.0971V47.5783C29.0971 48.7481 28.3145 49.398 27.2711 49.398C26.0972 49.398 25.4451 48.6181 25.4451 47.5783V44.0688H26.2276V47.5783C26.2276 48.3582 26.7494 48.6181 27.2711 48.6181C27.7928 48.6181 28.3145 48.3582 28.3145 47.5783V44.0688Z" fill="white"/>
<path d="M21.9234 53.2976V55.5073H21.1409V50.3081H23.2277C24.2711 50.3081 24.7929 50.958 24.7929 51.8679C24.7929 52.6477 24.4016 53.1677 23.619 53.2976L24.9233 55.6373H24.0103L22.706 53.4276H21.9234V53.2976ZM23.8799 51.7379C23.8799 51.218 23.619 51.088 23.0973 51.088H21.793V52.5177H23.0973C23.619 52.5177 23.8799 52.2578 23.8799 51.7379Z" fill="white"/>
<path d="M25.4451 51.9979C25.4451 50.8281 26.2276 50.1782 27.2711 50.1782C28.4449 50.1782 29.0971 50.9581 29.0971 51.9979V53.6877C29.0971 54.8575 28.3145 55.5074 27.2711 55.5074C26.0972 55.5074 25.4451 54.7275 25.4451 53.6877V51.9979ZM28.4449 51.9979C28.4449 51.2181 27.9232 50.9581 27.4015 50.9581C26.8798 50.9581 26.3581 51.2181 26.3581 51.9979V53.6877C26.3581 54.4675 26.8798 54.7275 27.4015 54.7275C27.9232 54.7275 28.4449 54.4675 28.4449 53.6877V51.9979Z" fill="white"/>
<rect width="33.4124" height="36.1404" fill="black" fill-opacity="0"/>
<rect width="33.4124" height="36.1404" fill="black" fill-opacity="0"/>
<rect width="33.4124" height="36.1404" fill="black" fill-opacity="0"/>
<rect width="33.4124" height="36.1404" fill="black" fill-opacity="0"/>
<path d="M22.4451 0.135246C20.4887 -0.124713 18.5323 0.00526724 16.7063 0.395205C21.2713 1.695 24.9233 5.33442 25.7059 10.1437C26.0971 12.2233 25.8363 14.303 25.0537 16.2527C23.4886 20.412 16.7063 36.0095 16.7063 36.0095C16.7063 36.0095 28.0536 23.1416 30.7926 19.7621C32.0968 18.2024 32.8794 16.2527 33.2707 14.173C34.3141 7.67405 29.4883 1.30506 22.4451 0.135246Z" fill="white"/>
<path d="M7.70664 10.2747C8.48921 5.46545 12.1412 1.82603 16.7062 0.526237C14.8802 0.00632003 12.9238 -0.12366 10.9674 0.266278C3.92422 1.30611 -0.901625 7.6751 0.141801 14.304C0.533086 16.3837 1.31566 18.3334 2.61994 19.8931C5.35893 23.2726 16.7062 36.1406 16.7062 36.1406C16.7062 36.1406 9.92393 20.4131 8.35879 16.3837C7.70664 14.434 7.44579 12.3544 7.70664 10.2747Z" fill="white"/>
</svg>
