<svg width="83" height="38" viewBox="0 0 83 38" fill="none" xmlns="http://www.w3.org/2000/svg">
<rect width="81.6354" height="37.5602" fill="black" fill-opacity="0" transform="translate(0.405029)"/>
<rect width="81.6354" height="37.5602" fill="black" fill-opacity="0" transform="translate(0.405029)"/>
<rect width="40.8839" height="27.8032" fill="black" fill-opacity="0" transform="translate(41.1565 6.01465)"/>
<path d="M41.1565 33.8178H82.0399V6.01465H41.1565V33.8178ZM41.2884 6.14832H82.0399V33.6841H41.2884V6.14832Z" fill="white"/>
<path d="M50.7839 19.6494C50.7839 19.7831 50.7839 19.7831 50.9161 19.7831L51.0483 19.6494" fill="white"/>
<path d="M51.9712 21.2528V20.5845H51.3118C51.4436 20.8518 51.7074 21.1191 51.9712 21.2528Z" fill="white"/>
<path d="M50.9159 20.5845H50.6521L50.5203 20.7181C50.784 20.8518 51.0478 20.9855 51.3116 21.1192C51.1797 20.9855 51.0478 20.8518 50.9159 20.5845Z" fill="white"/>
<path d="M50.3885 17.3765H49.5973C49.4654 17.6438 49.4654 17.9111 49.3335 18.3121H50.2567C50.2567 17.9111 50.2567 17.6438 50.3885 17.3765Z" fill="white"/>
<path d="M50.5201 16.8419L50.2563 16.4409C49.9925 16.7083 49.8606 16.8419 49.7288 17.1093H50.5201C50.5201 16.9756 50.5201 16.9756 50.5201 16.8419Z" fill="white"/>
<path d="M50.2567 18.4458H49.3335C49.3335 18.7131 49.3335 19.1141 49.4654 19.3815H50.2567C50.2567 19.1141 50.2567 18.8468 50.2567 18.4458Z" fill="white"/>
<path d="M50.3887 19.6494H49.5974C49.7293 19.9168 49.8612 20.1841 50.1249 20.3178H50.5206L50.6525 20.0504C50.5206 19.9168 50.5206 19.7831 50.3887 19.6494Z" fill="white"/>
<path d="M52.1026 18.0449C51.9708 18.0449 51.8389 18.1786 51.8389 18.3123C51.8389 18.4459 51.9708 18.5796 52.1026 18.5796C52.2345 18.5796 52.3664 18.4459 52.3664 18.3123C52.3664 18.1786 52.2345 18.0449 52.1026 18.0449Z" fill="white"/>
<path d="M52.8943 18.3119C52.8943 18.4456 52.7625 18.8466 52.7625 19.1139C52.7625 19.3813 52.8943 19.5149 52.6306 19.6486C52.3668 19.7823 52.2349 19.5149 52.2349 19.3813C52.2349 19.3813 51.9712 18.8466 51.5755 18.7129C51.4436 18.7129 51.048 18.7129 51.1799 18.4456C51.3118 18.0446 51.5755 17.9109 51.7074 17.7772C51.8393 17.7772 52.103 17.7772 52.103 17.7772C52.103 17.7772 51.9712 17.6436 51.7074 17.7772C51.4436 17.7772 51.4436 17.6436 51.4436 17.5099C51.4436 17.5099 51.5755 17.2426 51.8393 17.2426C52.103 17.2426 52.2349 17.2426 52.3668 17.2426C52.3668 17.3762 53.0262 17.5099 52.8943 18.3119ZM53.0262 18.4456C53.0262 18.3119 53.0262 18.3119 53.0262 18.3119H53.6856C53.6856 18.0446 53.6856 17.7772 53.5537 17.3762H53.0262L52.8943 17.5099C52.7625 17.3762 52.4987 17.2426 52.3668 17.1089C52.2349 17.1089 52.103 17.1089 51.9712 17.1089H51.8393C51.5755 17.1089 51.4436 17.3762 51.4436 17.5099C51.4436 17.5099 51.4436 17.7772 51.5755 17.7772C51.5755 17.7772 51.5755 17.7772 51.4436 17.7772L51.048 17.2426H50.7842C50.6523 17.5099 50.6523 17.7772 50.6523 18.1782H51.1799C51.1799 18.3119 51.1799 18.3119 51.048 18.4456H50.6523C50.6523 18.7129 50.6523 19.1139 50.7842 19.3813H51.3118L51.7074 18.9803C51.8393 18.9803 51.8393 18.9803 51.9712 19.1139L51.7074 19.3813H52.103V19.2476C52.103 19.3813 52.2349 19.3813 52.2349 19.3813L52.3668 19.5149V20.1833H53.29L52.7625 19.7823C53.0262 19.6486 53.0262 19.3813 53.0262 19.1139C53.0262 18.9803 53.0262 18.9803 53.0262 18.8466L53.4219 19.3813H53.6856C53.8175 19.1139 53.8175 18.8466 53.8175 18.4456H53.0262Z" fill="white"/>
<path d="M54.6085 17.1093C54.4766 16.8419 54.3447 16.5746 54.081 16.4409H53.8172L53.6853 16.7083C53.8172 16.8419 53.8172 16.9756 53.8172 17.1093" fill="white"/>
<path d="M53.2897 20.5845C53.1578 20.7181 53.026 20.9855 52.7622 21.1192C53.026 20.9855 53.2897 20.9855 53.4216 20.8518L53.2897 20.5845Z" fill="white"/>
<path d="M52.2346 20.5845V21.2528C52.4984 21.1191 52.7621 20.8518 52.894 20.5845" fill="white"/>
<path d="M50.916 20.1841L51.0479 20.3178H51.9711V19.6494H51.3117" fill="white"/>
<path d="M50.9158 16.1735C51.0477 16.0398 51.1796 15.9061 51.3115 15.7725C51.1796 15.7725 50.9158 15.9061 50.7839 16.0398L50.9158 16.1735Z" fill="white"/>
<path d="M49.9929 11.7628L50.1248 12.4312L50.7842 12.2975L50.6523 11.6292C50.6523 11.4955 50.3886 11.3618 50.2567 11.3618C49.9929 11.3618 49.9929 11.6292 49.9929 11.7628Z" fill="white"/>
<path d="M52.1029 13.2324C51.4435 13.2324 50.7841 13.3661 50.2566 13.4998H53.9493C53.4218 13.2324 52.7623 13.2324 52.1029 13.2324Z" fill="white"/>
<path d="M53.9493 18.1784H54.8724C54.8724 17.911 54.7406 17.6437 54.6087 17.2427H53.8174C53.9493 17.6437 53.9493 17.911 53.9493 18.1784Z" fill="white"/>
<path d="M53.8174 19.3815H54.6087C54.7406 19.1141 54.7406 18.8468 54.7406 18.4458H53.8174C53.9493 18.8468 53.9493 19.1141 53.8174 19.3815Z" fill="white"/>
<path d="M54.2127 11.7628C54.2127 11.6292 54.0808 11.3618 53.9489 11.3618C53.817 11.3618 53.5533 11.4955 53.5533 11.6292L53.4214 12.2975L54.0808 12.4312" fill="white"/>
<path d="M52.4986 11.4948C52.4986 11.3611 52.3667 11.0938 52.1029 11.0938C51.971 11.0938 51.7073 11.2274 51.7073 11.4948V12.2968H52.3667" fill="white"/>
<path d="M53.4223 17.1097C53.4223 17.1097 53.4223 16.9761 53.2902 16.9761L53.158 17.1097" fill="white"/>
<path d="M51.9712 16.1738V15.6392C51.7074 15.7728 51.5755 15.9065 51.3118 16.1738" fill="white"/>
<path d="M53.2899 16.1735H53.6856C53.4218 15.9061 53.1581 15.7725 52.8943 15.7725C53.0262 15.7725 53.158 16.0398 53.2899 16.1735Z" fill="white"/>
<path d="M51.7072 17.1093H51.971V16.4409H51.1797" fill="white"/>
<path d="M54.6085 19.6494H53.8172C53.8172 19.7831 53.8172 19.7831 53.6853 19.9167L54.081 20.4514H54.2128C54.3447 20.1841 54.4766 19.9168 54.6085 19.6494Z" fill="white"/>
<path d="M52.2346 15.6392V16.1738H52.894C52.6303 15.9065 52.4984 15.7728 52.2346 15.6392Z" fill="white"/>
<path d="M53.1578 16.575C53.1578 16.4413 53.0259 16.4413 53.0259 16.3076H52.2346V17.1096H52.894" fill="white"/>
<path d="M62.5216 23.7925H62.126V24.3272H62.5216C62.6535 24.3272 62.7854 24.1935 62.7854 24.0598C62.7854 23.9262 62.6535 23.7925 62.5216 23.7925Z" fill="white"/>
<path d="M77.2922 24.7283H77.8198L77.556 23.9263" fill="white"/>
<path d="M75.314 14.9712C74.9183 14.9712 74.5227 15.1049 74.2589 15.3722C73.9952 15.7732 73.8633 16.1742 73.8633 17.7782C73.8633 19.3823 73.9952 19.7833 74.2589 20.1843C74.5227 20.4516 74.9183 20.5853 75.314 20.5853C75.7096 20.5853 76.1053 20.4516 76.369 20.1843C76.6328 19.7833 76.7647 19.3823 76.7647 17.7782C76.7647 16.1742 76.6328 15.7732 76.369 15.3722C76.1053 15.1049 75.8415 14.9712 75.314 14.9712Z" fill="white"/>
<path d="M58.0382 15.1043C58.0382 14.9706 58.0382 14.9706 58.0382 14.8369C57.906 14.9706 57.7738 14.9706 57.6416 14.9706C57.906 15.1043 58.0382 15.1043 58.0382 15.1043Z" fill="white"/>
<path d="M75.8415 23.7925H75.4458V24.3272H75.8415C75.9733 24.3272 76.1052 24.1935 76.1052 24.0598C76.1052 23.7925 76.1052 23.7925 75.8415 23.7925Z" fill="white"/>
<path d="M77.6878 21.253C77.0284 21.9214 76.3689 22.1887 75.4458 22.1887C74.5226 22.1887 73.7313 21.7877 73.0719 21.253C72.1487 20.3173 72.2806 19.248 72.2806 17.7776C72.2806 16.3073 72.2806 15.2379 73.0719 14.3022C73.7313 13.6339 74.3907 13.3666 75.4458 13.3666C76.3689 13.3666 77.1602 13.7676 77.6878 14.3022C78.6109 15.2379 78.4791 16.3073 78.4791 17.7776C78.4791 19.248 78.4791 20.3173 77.6878 21.253ZM78.0834 25.3968L77.9515 24.9958H77.2921L77.1602 25.3968H76.7646L77.424 23.3917H77.6878L78.3472 25.3968H78.0834ZM76.2371 25.3968L75.8414 24.5948H75.5777V25.3968H75.182V23.3917H75.9733C76.369 23.3917 76.6327 23.6591 76.6327 24.0601C76.6327 24.3274 76.5008 24.4611 76.2371 24.5948L76.6327 25.3968H76.2371ZM74.6545 24.7284C74.6545 25.1294 74.3907 25.3968 73.9951 25.3968C73.5994 25.3968 73.3357 25.1294 73.3357 24.7284V23.3917H73.7313V24.7284C73.7313 24.9958 73.8632 25.1294 74.127 25.1294C74.3907 25.1294 74.5226 24.9958 74.5226 24.7284V23.3917H74.9183V24.7284H74.6545ZM72.8081 23.7927H72.2806V25.3968H71.885V23.7927H71.3574V23.3917H72.8081V23.7927ZM71.0937 25.3968H70.698V23.3917H71.0937V25.3968ZM70.1705 23.7927H69.2473V24.1937H70.0386V24.5948H69.2473V25.1294H70.1705V25.5304H68.8517V23.5254H70.1705V23.7927ZM68.456 23.7927H67.5329V24.3274H68.3242V24.7284H67.5329V25.5304H67.1372V23.5254H68.456V23.7927ZM66.7416 23.7927H65.8184V24.1937H66.6097V24.5948H65.8184V25.1294H66.7416V25.5304H65.4228V23.5254H66.7416V23.7927ZM64.6315 25.3968L64.2358 24.5948H63.9721V25.3968H63.5764V23.3917H64.3677C64.7634 23.3917 65.0271 23.6591 65.0271 24.0601C65.0271 24.3274 64.8952 24.4611 64.6315 24.5948L65.0271 25.3968H64.6315ZM63.4445 22.055H61.7301V13.3666H65.0271C66.7416 13.3666 67.7966 14.5696 67.7966 16.0399C67.7966 17.243 67.0053 18.045 66.2141 18.3123L68.0604 22.055H66.0822L64.3677 18.5796H63.4445V22.055ZM62.5214 24.5948H62.1257V25.3968H61.7301V23.3917H62.5214C62.917 23.3917 63.1808 23.6591 63.1808 24.0601C63.1808 24.3274 62.917 24.5948 62.5214 24.5948ZM59.62 17.3766C59.4881 17.3766 59.4881 17.3766 59.62 17.3766C59.62 17.5103 59.7518 17.5103 59.7518 17.5103C59.7518 17.5103 59.4881 17.5103 59.3562 17.3766C59.3562 17.3766 59.2243 17.3766 59.2243 17.243C59.3562 17.3766 59.3562 17.5103 59.2243 17.5103C58.9606 17.5103 58.5649 17.1093 58.5649 17.1093C58.5649 17.1093 58.6968 16.842 58.8287 16.7083C58.6968 16.7083 58.6968 16.5746 58.5649 16.4409C58.5649 16.5746 58.6968 16.7083 58.5649 16.7083C58.3011 16.7083 57.9055 16.3073 57.9055 16.1736C57.9055 16.1736 58.0374 15.9063 58.1693 15.7726C57.9055 15.7726 57.6417 15.7726 57.5099 15.7726C57.5099 15.7726 57.5099 15.5053 57.5099 15.2379C57.378 15.2379 57.2461 15.3716 57.2461 15.2379C57.1142 15.2379 56.8504 14.7032 56.9823 14.3022C56.9823 14.1686 57.1142 14.3022 57.2461 14.4359C57.1142 14.3022 57.1142 14.1686 57.1142 13.9012C57.1142 14.1686 56.9823 14.4359 56.8504 14.4359C56.8504 14.4359 56.3229 14.1686 56.3229 13.9012C56.3229 13.9012 56.4548 13.7676 56.5867 13.7676C56.5867 13.7676 56.5867 13.7676 56.4548 13.6339C56.3229 13.5002 56.191 13.2329 56.3229 13.2329C56.3229 13.2329 56.4548 13.2329 56.5867 13.3666V13.2329C56.5867 12.9656 56.5867 12.5645 56.5867 12.5645C56.7186 12.5645 56.8504 12.8319 56.8504 13.0992C56.8504 13.0992 56.8504 13.0992 56.8504 13.2329C56.8504 13.0992 56.9823 12.9655 56.9823 13.0992C56.9823 13.0992 56.9823 13.3666 56.9823 13.6339L57.1142 13.5002C57.1142 13.5002 57.2461 13.6339 57.378 13.7676V13.6339C57.378 13.3666 57.378 13.0992 57.5099 12.9655C57.5099 12.9655 57.6417 13.0992 57.6417 13.2329C57.6417 13.2329 57.6417 13.2329 57.6417 13.0992C57.7736 12.6982 58.0374 12.4309 58.1693 12.4309C58.3011 12.4309 58.1693 12.9656 58.0374 13.3666V13.5002C58.1693 13.3666 58.3011 13.3666 58.3011 13.5002C58.3011 13.6339 58.1693 13.9012 58.0374 14.0349H57.9055C58.0374 14.0349 58.1693 14.0349 58.1693 14.1686C58.1693 14.1686 58.1693 14.3022 58.3011 14.3022C58.3011 14.0349 58.5649 13.7676 58.6968 13.7676C58.8287 13.7676 58.8287 13.9012 58.8287 14.1686L58.9606 14.0349C59.2243 13.7676 59.62 13.5002 59.7518 13.6339C59.8837 13.7676 59.62 14.1686 59.2243 14.4359C59.2243 14.4359 59.2243 14.4359 59.0924 14.5696C59.2243 14.5696 59.3562 14.5696 59.3562 14.7032C59.3562 14.8369 59.0924 14.9706 58.8287 15.1043C58.9606 15.1043 58.9606 15.2379 58.9606 15.2379C58.8287 15.3716 58.6968 15.3716 58.433 15.3716C58.5649 15.3716 58.5649 15.5053 58.5649 15.5053C58.5649 15.5053 58.5649 15.6389 58.433 15.7726C58.5649 15.6389 58.6968 15.5053 58.8287 15.5053C58.9606 15.5053 58.8287 15.6389 58.8287 15.7726C58.8287 15.7726 58.8287 15.6389 58.9606 15.6389C59.0924 15.5053 59.3562 15.3716 59.4881 15.5053C59.4881 15.5053 59.4881 15.6389 59.3562 15.7726H59.4881C59.7518 15.7726 60.1475 15.7726 60.1475 15.9063C60.1475 16.0399 59.7518 16.1736 59.4881 16.1736C59.4881 16.1736 59.4881 16.1736 59.3562 16.1736C59.4881 16.3073 59.4881 16.3073 59.4881 16.4409C59.4881 16.5746 59.2243 16.4409 58.9606 16.4409C58.9606 16.4409 58.9606 16.4409 58.8287 16.4409C58.8287 16.5746 58.9606 16.7083 58.9606 16.7083V16.842C58.9606 16.842 58.9606 16.842 59.0924 16.7083C59.2243 16.5746 59.4881 16.5746 59.4881 16.5746C59.4881 16.5746 59.4881 16.7083 59.3562 16.842H59.4881C59.7518 16.842 60.1475 16.9756 60.1475 16.9756C60.1475 17.3766 59.8837 17.3766 59.62 17.3766ZM58.8287 18.3123L58.9606 18.446C58.9606 18.5796 58.6968 18.5796 58.5649 18.5796H58.433C58.5649 18.7133 58.5649 18.7133 58.5649 18.7133C58.433 18.7133 58.3011 18.7133 58.1693 18.7133C58.3011 18.7133 58.3011 18.7133 58.3011 18.847C58.3011 18.847 58.3011 18.9807 58.1693 18.9807C58.3011 18.9807 58.433 18.9807 58.5649 19.1143C58.5649 19.1143 58.433 19.248 58.3011 19.248H58.433C58.5649 19.248 58.6968 19.3817 58.6968 19.5153C58.6968 19.5153 58.5649 19.5153 58.433 19.5153C58.433 19.5153 58.433 19.5153 58.433 19.649C58.5649 19.7827 58.5649 20.1837 58.5649 20.1837C58.5649 20.1837 58.3011 20.05 58.1693 19.7827C58.1693 19.9163 58.1693 20.05 58.0374 19.9163C57.9055 19.9163 57.9055 19.649 57.9055 19.5153V19.3817C57.7736 19.5153 57.7736 19.5153 57.7736 19.5153C57.7736 19.3817 57.7736 19.248 57.7736 19.1143C57.6417 19.248 57.6417 19.248 57.6417 19.248C57.6417 19.1143 57.6417 18.9807 57.6417 18.847C57.5099 18.847 57.5099 18.847 57.378 18.847V18.7133C57.2461 18.7133 57.1142 18.5796 56.9823 18.5796C56.9823 18.5796 56.9823 18.5796 57.1142 18.446C56.9823 18.3123 56.8504 18.045 56.9823 17.9113C56.9823 17.9113 57.2461 18.045 57.378 18.1786C57.378 18.045 57.5099 17.9113 57.5099 18.045C57.5099 18.045 57.6417 18.1786 57.6417 18.3123C57.6417 18.1786 57.6417 18.045 57.7736 18.045C57.7736 18.045 57.9055 18.1786 57.9055 18.3123V18.1786C57.9055 18.045 58.0374 17.9113 58.1693 17.9113C58.1693 17.9113 58.1693 18.045 58.1693 18.1786C58.1693 18.1786 58.1693 18.1786 58.3011 18.1786C58.433 18.045 58.8287 17.9113 58.8287 18.045C59.2243 17.9113 58.9606 18.1786 58.8287 18.3123ZM58.1693 20.05C58.5649 20.5847 58.6968 21.253 58.6968 21.9214C58.6968 22.5897 58.433 23.2581 58.1693 23.7927C57.9055 23.5254 58.0374 23.2581 58.0374 23.2581C58.433 22.055 58.5649 20.9857 58.1693 20.05ZM57.2461 25.2631C56.7186 25.1294 56.3229 24.9958 55.9273 24.8621C55.7954 24.8621 55.6635 24.8621 55.3997 24.8621C54.8722 24.8621 54.4766 25.1294 54.0809 25.3968H52.2346C52.1027 25.3968 51.9708 25.2631 51.9708 25.1294C51.9708 25.1294 51.9708 25.1294 51.9708 24.9958H53.5534L53.8172 24.7284L54.3447 24.1937H54.2128C53.949 24.1937 53.8172 24.3274 53.8172 24.5948V24.7284C53.8172 24.7284 53.2896 24.9958 52.894 24.5948C52.894 24.4611 52.894 24.4611 52.894 24.3274C52.894 23.5254 53.5534 22.7234 54.4766 22.7234C54.8722 22.7234 55.136 22.5897 55.136 22.5897C55.5316 22.4561 55.9273 21.9214 55.6635 21.5204C55.3997 20.9857 55.3997 20.5847 55.3997 20.1837H56.0592C56.7186 20.1837 56.7186 19.5153 56.7186 19.5153C56.7186 18.9807 56.4548 18.7133 56.3229 18.1786C56.191 17.7776 56.4548 17.243 56.5867 17.1093C56.3229 16.842 56.191 16.3073 56.191 15.9063C56.191 15.5053 56.3229 15.1043 56.5867 14.8369L57.378 15.9063C57.5099 16.0399 57.378 16.1736 57.378 16.3073C57.5099 16.3073 57.7736 16.3073 57.7736 16.4409L58.5649 17.5103C58.433 17.5103 58.1693 17.644 58.0374 17.644C57.6417 17.644 57.2461 17.5103 56.9823 17.243C56.8504 17.644 56.8504 18.1786 57.7736 19.5153C58.8287 21.1194 57.9055 22.8571 57.7736 23.1244C57.6417 23.2581 57.6417 23.6591 58.0374 23.9264C58.3011 24.1937 59.2243 24.7284 59.2243 24.7284C59.2243 24.7284 58.433 25.3968 57.2461 25.2631ZM55.3997 25.3968H54.4766C54.7403 25.1294 55.136 24.9958 55.5316 24.9958C55.6635 24.9958 55.7954 24.9958 55.9273 24.9958C56.0592 24.9958 56.3229 25.1294 56.4548 25.1294C56.4548 25.1294 56.4548 25.1294 56.5867 25.1294C56.191 25.2631 55.7954 25.3968 55.3997 25.3968ZM52.894 24.5948C52.894 24.5948 53.1578 24.8621 53.6853 24.8621H52.2346C52.3665 24.9958 52.7621 24.7284 52.894 24.5948ZM51.3114 23.9264C51.3114 23.7927 51.1795 23.6591 51.1795 23.5254C51.4433 23.6591 51.8389 23.6591 52.1027 23.6591C52.3665 23.6591 52.7621 23.6591 53.0259 23.5254C53.0259 23.6591 52.894 23.7927 52.894 23.9264C52.6302 23.9264 52.3665 24.0601 52.1027 24.0601C51.8389 23.9264 51.5752 23.9264 51.3114 23.9264ZM51.3114 24.5948C51.4433 24.7284 51.9708 24.8621 51.9708 24.8621H50.5201C50.9158 24.9958 51.1795 24.7284 51.3114 24.5948ZM51.8389 25.3968H49.9926C49.7288 24.9958 49.2013 24.8621 48.6738 24.8621C48.5419 24.8621 48.41 24.8621 48.1462 24.8621C47.7506 24.9958 47.355 25.1294 46.8274 25.2631C45.7724 25.3968 44.9811 24.7284 44.9811 24.7284C44.9811 24.7284 45.9043 24.1937 46.168 23.9264C46.4318 23.6591 46.4318 23.3917 46.4318 23.1244C46.2999 22.9907 45.3767 21.1194 46.4318 19.5153C47.355 18.1786 47.355 17.644 47.2231 17.243C46.9593 17.5103 46.5637 17.644 46.168 17.644C46.0361 17.644 45.7724 17.644 45.6405 17.5103L46.4318 16.4409C46.5637 16.3073 46.6955 16.3073 46.8274 16.3073C46.8274 16.1736 46.6955 16.0399 46.8274 15.9063L47.6187 14.8369C47.8825 15.1043 48.0144 15.5053 48.0144 15.9063C48.0144 16.3073 47.8825 16.842 47.6187 17.1093C47.7506 17.3766 48.0144 17.7776 47.8825 18.1786C47.7506 18.7133 47.4868 19.1143 47.4868 19.5153C47.4868 19.5153 47.4868 20.1837 48.1462 20.1837H48.8057C48.8057 20.5847 48.6738 20.9857 48.5419 21.5204C48.2781 22.055 48.6738 22.4561 49.0694 22.5897C49.0694 22.5897 49.3332 22.7234 49.7288 22.7234C50.5201 22.7234 51.3114 23.3917 51.3114 24.3274C51.3114 24.4611 51.3114 24.4611 51.3114 24.5948C50.9158 24.9958 50.3882 24.7284 50.3882 24.7284V24.5948C50.3882 24.3274 50.2564 24.1937 49.9926 24.1937H49.8607L50.3882 24.7284L50.652 24.9958H52.2346C52.2346 24.9958 52.2346 24.9958 52.2346 25.1294C52.1027 25.2631 51.9708 25.3968 51.8389 25.3968ZM48.8057 25.3968C48.41 25.3968 48.0144 25.2631 47.6187 25.1294C47.6187 25.1294 47.6187 25.1294 47.7506 25.1294C47.8825 25.1294 48.1462 24.9958 48.2781 24.9958C48.41 24.9958 48.5419 24.9958 48.6738 24.9958C49.0694 24.9958 49.4651 25.1294 49.7288 25.3968H48.8057ZM46.0361 20.05C45.6405 20.9857 45.7724 22.055 46.2999 23.1244C46.2999 23.1244 46.4318 23.5254 46.168 23.6591C45.7724 23.1244 45.6405 22.4561 45.6405 21.7877C45.5086 21.253 45.6405 20.5847 46.0361 20.05ZM44.9811 19.649C45.2448 19.248 45.6405 19.1143 46.168 19.1143C45.6405 18.9807 45.2448 18.5797 45.2448 18.045H45.3767C45.9043 18.045 46.2999 18.3123 46.5637 18.7133C46.4318 18.3123 46.5637 18.045 46.8274 17.7776C47.0912 18.1786 47.0912 18.7133 46.6955 18.9807L46.5637 19.1143C46.5637 19.1143 46.5637 19.1143 46.5637 19.248C46.168 19.7827 45.5086 19.9163 44.9811 19.649C44.8492 19.649 44.9811 19.649 44.9811 19.649ZM44.4536 17.5103C44.4536 17.3766 44.4536 17.3766 44.4536 17.5103C44.5854 17.1093 44.8492 16.842 45.113 16.7083C44.7173 16.7083 44.3217 16.5746 44.0579 16.3073C44.0579 16.3073 44.1898 16.3073 44.1898 16.1736C44.5854 15.9063 45.113 15.7726 45.5086 15.9063C45.113 15.6389 44.8492 15.2379 44.7173 14.7032H44.8492C45.2448 14.7032 45.6405 14.8369 45.9043 14.9706C45.6405 14.5696 45.6405 14.1686 45.7724 13.6339H45.9043C46.0361 13.7676 46.168 13.9012 46.2999 14.0349C46.2999 13.7676 46.4318 13.3666 46.5637 13.0992C46.5637 13.0992 46.5637 13.0992 46.6955 13.2329C46.8274 13.3666 46.9593 13.5002 46.9593 13.6339C46.9593 13.3666 47.2231 12.9655 47.4868 12.8319C47.4868 12.8319 47.4868 12.8319 47.4868 12.9655C47.8825 13.5002 47.7506 14.3022 47.2231 14.7032C47.2231 14.7032 47.2231 14.7032 47.2231 14.5696C47.2231 14.5696 47.2231 14.5696 47.2231 14.4359C47.2231 14.7032 47.0912 14.8369 46.9593 15.1043C46.9593 15.1043 46.9593 15.1043 46.8274 14.9706L46.6955 14.8369C46.6955 15.1043 46.6955 15.2379 46.5637 15.5053H46.4318C46.4318 15.5053 46.4318 15.5053 46.2999 15.5053C46.4318 15.6389 46.4318 15.7726 46.4318 16.0399H46.2999C46.168 16.0399 45.9043 16.0399 45.7724 16.0399C45.9043 16.0399 45.9043 16.1736 46.0361 16.1736C46.0361 16.1736 45.9043 16.1736 45.9043 16.3073C45.7724 16.4409 45.6405 16.4409 45.5086 16.5746C45.6405 16.5746 45.6405 16.5746 45.7724 16.5746V16.7083C45.6405 17.3766 45.113 17.644 44.4536 17.5103ZM48.1462 20.05H48.0144C47.6187 20.05 47.4868 19.649 47.4868 19.5153C47.4868 19.248 47.6187 19.1143 47.6187 18.847C47.7506 18.7133 47.7506 18.446 47.8825 18.1786C48.0144 17.7776 47.8825 17.243 47.7506 16.9756C47.8825 16.842 47.8825 16.842 47.8825 16.7083C48.1462 16.9756 48.41 17.644 48.41 18.1786C48.41 18.9807 48.1462 19.3817 48.1462 20.05ZM49.2013 22.5897C49.0694 22.5897 49.0694 22.5897 49.0694 22.5897C48.8057 22.4561 48.6738 22.3224 48.5419 22.055C48.5419 21.9214 48.5419 21.7877 48.5419 21.654C48.6738 22.055 48.9375 22.3224 49.2013 22.5897ZM55.6635 21.654C55.6635 21.7877 55.6635 21.9214 55.6635 22.055C55.5316 22.3224 55.3997 22.4561 55.136 22.5897H55.0041C55.2679 22.3224 55.5316 22.055 55.6635 21.654ZM54.7403 21.7877L54.4766 22.3224L53.949 21.5204L54.0809 21.253L53.949 20.9857L53.8172 21.1194C53.6853 21.253 53.5534 21.253 53.4215 21.3867C53.2896 21.3867 53.1578 21.5204 53.0259 21.5204C52.894 21.5204 52.6302 21.5204 52.4983 21.654V22.055L52.7621 22.1887V23.1244L52.3665 22.8571L51.5752 22.9907V22.055L51.8389 21.9214V21.5204C51.7071 21.5204 51.4433 21.5204 51.3114 21.3867C51.1795 21.3867 50.9158 21.253 50.7839 21.253C50.652 21.253 50.5201 21.1194 50.3882 20.9857L50.2564 20.852L50.1245 21.1194L50.2564 21.3867L49.7288 22.1887L49.4651 21.654H48.9375L49.4651 20.852H49.8607L49.9926 20.5847L49.8607 20.451C49.8607 20.451 49.8607 20.451 49.7288 20.3174C49.7288 20.3174 49.7288 20.3173 49.7288 20.1837C49.7288 20.1837 49.7288 20.1837 49.7288 20.05C49.7288 20.05 49.7288 20.05 49.7288 19.9163C49.7288 19.9163 49.7288 19.9163 49.7288 19.7827C49.7288 19.7827 49.7288 19.7827 49.8607 19.649L49.9926 19.5153L49.7288 19.1143L49.5969 19.3817L49.4651 18.847L49.3332 18.3123L49.8607 18.5796L50.3882 18.847H49.9926L50.2564 19.248C50.3882 19.1143 50.5201 19.1143 50.652 18.9807C50.7839 18.9807 50.9158 18.847 51.1795 18.847C51.3114 18.847 51.5752 18.847 51.7071 18.7133V18.1786L51.5752 14.9706L51.9708 13.9012L52.2346 14.4359L52.4983 14.9706L52.2346 14.8369V15.3716C52.3665 15.3716 52.6302 15.3716 52.7621 15.5053C52.894 15.5053 53.1578 15.6389 53.2896 15.6389C53.4215 15.6389 53.5534 15.7726 53.6853 15.9063C53.6853 15.9063 53.6853 15.9063 53.8172 15.9063L54.0809 15.5053H53.6853L54.2128 15.2379L54.7403 14.9706L54.6085 15.5053L54.4766 16.0399L54.3447 15.7726L54.0809 16.1736L54.2128 16.3073C54.2128 16.3073 54.2128 16.3073 54.3447 16.4409C54.3447 16.4409 54.3447 16.4409 54.3447 16.5746C54.3447 16.5746 54.3447 16.5746 54.3447 16.7083C54.3447 16.7083 54.3447 16.7083 54.3447 16.842C54.3447 16.842 54.3447 16.842 54.3447 16.9756C54.3447 16.9756 54.3447 16.9756 54.2128 17.1093L54.0809 17.243L54.3447 17.5103H54.7403L55.2679 18.3123L54.7403 21.7877ZM56.191 18.3123C56.191 18.5797 56.3229 18.7133 56.4548 18.9807C56.5867 19.248 56.5867 19.3817 56.5867 19.649C56.5867 19.649 56.5867 20.1837 56.0592 20.1837H55.9273C56.0592 19.5153 55.6635 19.1143 55.6635 18.446C55.6635 17.9113 56.0592 17.243 56.191 16.9756C56.191 17.1093 56.3229 17.1093 56.3229 17.243C56.3229 17.3766 56.191 17.7776 56.191 18.3123ZM48.0144 13.5002H49.3332C50.1245 13.0992 51.0476 12.9655 52.1027 12.9655C53.0259 12.9655 53.949 13.2329 54.8722 13.5002H56.191V15.1043C56.0592 15.3716 56.0592 15.6389 56.0592 15.9063C56.0592 16.3073 56.0592 16.4409 56.191 16.7083C56.0592 16.842 56.0592 16.9756 55.9273 17.243V13.9012H48.2781V17.1093C48.1462 16.9756 48.0144 16.7083 48.0144 16.7083C48.1462 16.4409 48.1462 16.3073 48.1462 15.9063C48.1462 15.6389 48.1462 15.3716 48.0144 15.1043V13.5002ZM48.8057 10.6932L48.9375 11.0942C48.2781 11.3615 48.9375 11.0942 48.2781 11.3615L48.1462 10.9605C48.8057 10.6932 48.0144 10.9605 48.8057 10.6932ZM49.0694 11.4952C49.2013 11.4952 49.3332 11.3615 49.5969 11.3615L49.4651 11.0942L50.7839 10.6932V10.9605C50.9158 10.9605 51.1795 10.9605 51.3114 10.9605V10.6932H52.7621V10.9605C52.894 10.9605 53.1578 10.9605 53.2896 10.9605V10.6932L54.6085 11.0942L54.4766 11.3615C54.6085 11.3615 54.7403 11.4952 55.0041 11.4952L55.136 11.2279L55.7954 11.4952L55.6635 11.7625L55.5316 11.8962C55.3997 11.7625 55.136 11.8962 55.0041 12.0299L54.7403 12.5645L55.0041 12.6982L54.8722 12.9655C53.949 12.5645 53.0259 12.2972 51.9708 12.2972C50.9158 12.2972 49.9926 12.5645 49.0694 12.9655L48.9375 12.6982L49.2013 12.5645L48.9375 12.0299C48.8057 11.8962 48.6738 11.7625 48.5419 11.8962V11.7625L48.41 11.3615L49.0694 11.0942V11.4952ZM50.7839 10.1585V10.5595C49.3332 10.9605 50.7839 10.5595 49.3332 10.9605V10.4258C50.7839 10.1585 49.2013 10.4258 50.7839 10.1585ZM52.894 10.0248V10.4258H51.4433V10.0248H52.894ZM53.4215 10.1585C54.8722 10.5595 53.4215 10.1585 54.8722 10.5595L54.7403 10.9605C53.2896 10.5595 54.7403 10.9605 53.2896 10.5595L53.4215 10.1585ZM55.3997 10.6932C56.0592 11.0942 55.3997 10.6932 56.0592 11.0942L55.9273 11.4952C55.2679 11.2279 55.9273 11.4952 55.2679 11.2279L55.3997 10.6932ZM69.1155 13.5002H70.8299V22.1887H69.1155V13.5002ZM41.8159 6.68311V29.0058H81.5123V6.68311H41.8159Z" fill="white"/>
<path d="M66.2141 16.1742C66.2141 15.5059 65.6866 14.9712 65.0272 14.9712H63.4446V17.2436H65.0272C65.8185 17.2436 66.2141 16.8426 66.2141 16.1742Z" fill="white"/>
<path d="M64.3678 23.7925H63.9722V24.3272H64.3678C64.4997 24.3272 64.6316 24.1935 64.6316 24.0598C64.6316 23.7925 64.4997 23.7925 64.3678 23.7925Z" fill="white"/>
<path d="M58.1693 31.0111C58.1693 30.8775 58.1693 30.8775 58.1693 30.7438C58.1693 30.6101 58.1693 30.6101 58.1693 30.4765C58.1693 30.3428 58.0375 30.3428 58.0375 30.2091C57.9056 30.0754 57.9056 30.0754 57.7737 30.0754C57.6418 30.0754 57.5099 30.0754 57.3781 30.0754C57.2462 30.0754 56.9824 30.0754 56.8505 30.0754C56.7186 30.0754 56.5868 30.2091 56.5868 30.2091C56.4549 30.3428 56.4549 30.3428 56.4549 30.4765C56.4549 30.6101 56.323 30.7438 56.323 30.8775C56.323 31.0111 56.323 31.1448 56.323 31.2785C56.323 31.4121 56.323 31.5458 56.323 31.6795C56.323 31.8131 56.323 31.9468 56.4549 32.0805C56.4549 32.2141 56.5868 32.3478 56.5868 32.3478C56.7186 32.4815 56.7186 32.4815 56.8505 32.4815C56.9824 32.4815 57.1143 32.4815 57.3781 32.4815C57.5099 32.4815 57.6418 32.4815 57.7737 32.4815C57.9056 32.4815 58.0375 32.3478 58.0375 32.3478C58.1693 32.3478 58.1693 32.2141 58.1693 32.0805C58.1693 31.9468 58.3012 31.9468 58.3012 31.8131C58.3012 31.6795 58.3012 31.5458 58.3012 31.5458H57.6418C57.6418 31.6795 57.6418 31.8131 57.6418 31.9468C57.6418 32.0805 57.6418 32.0805 57.5099 32.2141L57.3781 32.3478H57.2462H57.1143C57.1143 32.3478 56.9824 32.3478 56.9824 32.2141C56.9824 32.2141 56.9824 32.0805 56.8505 32.0805C56.8505 31.9468 56.8505 31.9468 56.8505 31.8131C56.8505 31.6795 56.8505 31.5458 56.8505 31.4121C56.8505 31.2785 56.8505 31.0111 56.8505 30.8775C56.8505 30.7438 56.8505 30.6101 56.8505 30.6101C56.8505 30.4764 56.9824 30.4765 56.9824 30.4765H57.1143C57.2462 30.4765 57.2462 30.4765 57.3781 30.4765L57.5099 30.6101C57.5099 30.7438 57.5099 30.7438 57.5099 30.8775L58.1693 31.0111ZM59.2244 30.6101H59.4882C59.62 30.6101 59.7519 30.6101 59.7519 30.6101C59.8838 30.6101 59.8838 30.7438 59.8838 30.7438C59.8838 30.8775 59.8838 30.8775 60.0157 31.0111C60.0157 31.1448 60.0157 31.2785 60.0157 31.4121C60.0157 31.5458 60.0157 31.6795 60.0157 31.8131C60.0157 31.9468 60.0157 32.0805 59.8838 32.0805C59.8838 32.2141 59.7519 32.2141 59.7519 32.2141C59.62 32.2141 59.62 32.2141 59.4882 32.2141H59.2244V30.6101ZM58.565 32.7488H59.4882C59.7519 32.7488 59.8838 32.7488 60.0157 32.6152C60.1476 32.6152 60.2795 32.4815 60.2795 32.3478C60.4113 32.2142 60.4113 32.0805 60.4113 31.9468C60.4113 31.8131 60.4113 31.5458 60.4113 31.2785C60.4113 31.1448 60.4113 31.0111 60.4113 30.8775C60.4113 30.7438 60.4113 30.6101 60.2795 30.4765C60.2795 30.3428 60.1476 30.3428 60.1476 30.2091C60.0157 30.0754 60.0157 30.0754 59.8838 30.0754C59.7519 30.0754 59.62 30.0754 59.4882 30.0754H58.4331V32.7488H58.565ZM60.9389 30.2091V32.0805C60.9389 32.2141 60.9389 32.3478 60.9389 32.4815C60.9389 32.6152 61.0707 32.6152 61.0707 32.7488C61.0707 32.7488 61.2026 32.8825 61.3345 32.8825C61.4664 32.8825 61.4664 32.8825 61.5983 33.0162C61.7302 33.0162 61.7302 33.0162 61.862 33.0162C61.9939 33.0162 62.1258 33.0162 62.2577 33.0162C62.3896 33.0162 62.5214 32.8825 62.5214 32.8825C62.6533 32.8825 62.6533 32.7488 62.7852 32.6152C62.7852 32.4815 62.9171 32.3478 62.9171 32.2141V30.3428H62.2577V32.2141C62.2577 32.3478 62.2577 32.3478 62.2577 32.4815C62.2577 32.6152 62.2577 32.6152 62.1258 32.6152C62.1258 32.6152 61.9939 32.6152 61.862 32.6152C61.7302 32.6152 61.7302 32.6152 61.5983 32.6152L61.4664 32.4815C61.4664 32.3478 61.4664 32.3478 61.4664 32.2141V30.3428H60.9389V30.2091ZM63.3127 32.7488H63.9721V31.6795H64.2359C64.3678 31.6795 64.3678 31.6795 64.4997 31.6795C64.4997 31.6795 64.6316 31.6795 64.6316 31.8131V31.9468V32.4815V32.6152V32.7488H65.291C65.291 32.7488 65.1591 32.7488 65.1591 32.6152V32.4815C65.1591 32.4815 65.1591 32.3478 65.1591 32.2141C65.1591 32.0805 65.1591 31.9468 65.1591 31.8131C65.1591 31.6795 65.1591 31.6795 65.0272 31.5458L64.8953 31.4121C64.8953 31.4121 64.7634 31.4121 64.6316 31.2785C64.7634 31.2785 64.8953 31.1448 65.0272 31.0111C65.1591 30.8775 65.1591 30.7438 65.1591 30.6101C65.1591 30.4764 65.1591 30.3428 65.0272 30.2091C65.0272 30.0754 64.8953 30.0754 64.7634 29.9418C64.6316 29.9418 64.4997 29.8081 64.3678 29.8081H63.1809V32.7488H63.3127ZM63.9721 30.6101H64.2359C64.3678 30.6101 64.4997 30.6101 64.4997 30.7438C64.6316 30.7438 64.6316 30.8775 64.6316 31.0111C64.6316 31.1448 64.6316 31.1448 64.6316 31.2785L64.4997 31.4121C64.3678 31.4121 64.3678 31.4121 64.2359 31.4121H63.9721V30.6101ZM66.346 30.6101H66.6098C66.7417 30.6101 66.7417 30.6101 66.8735 30.6101L67.0054 30.7438C67.0054 30.7438 67.0054 30.8775 67.0054 31.0111C67.0054 31.1448 67.0054 31.1448 67.0054 31.2785L66.8735 31.4121C66.8735 31.4121 66.7417 31.4121 66.6098 31.4121H66.346V30.6101ZM65.6866 32.7488H66.346V31.8131H66.6098C66.7417 31.8131 66.8735 31.8131 67.0054 31.8131C67.1373 31.8131 67.2692 31.6795 67.2692 31.6795C67.4011 31.6795 67.4011 31.5458 67.4011 31.4121C67.4011 31.2785 67.533 31.1448 67.533 31.0111C67.533 30.8775 67.533 30.8775 67.533 30.7438C67.533 30.6101 67.533 30.6101 67.4011 30.4765C67.4011 30.3428 67.2692 30.3428 67.2692 30.3428C67.2692 30.3428 67.1373 30.2091 67.0054 30.2091C66.8735 30.2091 66.7417 30.2091 66.7417 30.2091H65.6866V32.7488Z" fill="white"/>
<rect width="36.933" height="37.5602" fill="black" fill-opacity="0" transform="translate(0.405029)"/>
<path d="M13.4618 7.6194L12.9343 6.41638L13.198 6.28271C13.4618 6.14904 13.5937 5.8817 13.7255 5.61436C13.7255 5.34702 13.7255 5.21335 13.5937 4.94602C13.4618 4.54501 13.3299 4.41134 13.0661 4.27767C12.8024 4.144 12.6705 4.27767 12.4067 4.27767L11.7473 4.54501L13.198 7.48573L13.4618 7.6194ZM12.2748 5.07968L12.5386 4.94602C12.9342 4.81235 12.9343 4.94602 13.0661 5.34702C13.198 5.61436 13.3299 5.8817 12.9343 6.01537L12.6705 6.14904L12.2748 5.07968Z" fill="white"/>
<path d="M15.4397 6.01469C15.5716 6.54937 15.9672 6.68303 16.3629 6.68303C16.7585 6.54937 17.0223 6.28203 16.8904 5.74735L16.4948 4.00965C16.3629 3.47498 15.9672 3.34131 15.5716 3.34131C15.176 3.47498 14.9122 3.74231 15.0441 4.27699L15.4397 6.01469ZM15.7035 3.87598C15.8354 3.87598 15.9672 3.87598 16.0991 4.14332L16.4948 5.88102C16.4948 6.14836 16.3629 6.28203 16.231 6.28203C16.0991 6.28203 15.8354 6.28203 15.8354 6.01469L15.4397 4.27699C15.4397 4.00965 15.5716 3.87598 15.7035 3.87598Z" fill="white"/>
<path d="M18.8688 4.9457H19.1326L19.5282 6.41606H20.0558L19.5282 4.9457C19.792 4.81204 19.9239 4.5447 19.9239 4.14369C19.9239 3.47534 19.6601 3.20801 19.1326 3.20801H18.3413V6.54973H18.8688V4.9457ZM18.8688 3.47534H19.1326C19.5282 3.47534 19.5282 3.60902 19.5282 4.01002C19.5282 4.27736 19.5282 4.5447 19.1326 4.5447H18.8688V3.47534Z" fill="white"/>
<path d="M21.9018 6.6834L22.4293 3.87635H22.9568L23.0887 3.47534L21.5061 3.20801L21.3743 3.60901L21.9018 3.74268L21.3743 6.54973L21.9018 6.6834Z" fill="white"/>
<path d="M24.0123 7.35178C24.4079 7.48544 24.8036 7.35177 25.0673 6.95077L25.7267 5.34674C25.9905 4.81206 25.7267 4.41105 25.3311 4.27739C24.9354 4.14372 24.5398 4.14372 24.276 4.67839L23.6166 6.28242C23.4847 6.8171 23.7485 7.21811 24.0123 7.35178ZM24.0123 6.54976L24.6717 4.94573C24.8036 4.67839 24.9354 4.67839 25.0673 4.81206C25.1992 4.94573 25.3311 5.0794 25.1992 5.21307L24.5398 6.8171C24.4079 7.08443 24.276 7.08444 24.1442 6.95077C24.1442 6.95077 24.0123 6.68343 24.0123 6.54976Z" fill="white"/>
<path d="M19.0004 0C8.71358 0 0.405029 8.42115 0.405029 18.8473C0.405029 26.1991 4.49337 32.4816 10.5599 35.556C9.24111 34.7539 7.92229 33.8183 6.86724 32.7489C6.73536 32.6152 6.73536 32.6152 6.60347 32.4816C6.60347 32.4816 6.60347 32.4816 6.47159 32.3479C6.33971 32.2142 6.33971 32.2142 6.20783 32.0806C3.96584 29.5409 2.38326 26.3328 1.85573 22.7237H36.5406C36.4088 23.2584 36.4088 23.9268 36.145 24.4614C36.145 24.5951 36.145 24.7288 36.0131 24.8624C35.8812 25.3971 35.6175 25.9318 35.4856 26.6001C35.4856 26.7338 35.3537 26.7338 35.3537 26.8675C35.3537 27.0011 35.2218 27.0011 35.2218 27.1348C35.0899 27.4022 34.9581 27.6695 34.8262 28.0705C34.8262 28.0705 34.8262 28.0705 34.8262 28.2042C34.8262 28.3378 34.6943 28.3378 34.6943 28.4715V28.6052C34.6943 28.7388 34.5624 28.7388 34.5624 28.8725C34.5624 28.8725 34.5624 29.0062 34.4305 29.0062C34.4305 29.1399 34.2987 29.1398 34.2987 29.2735C34.2987 29.2735 34.2987 29.4072 34.1668 29.4072C34.0349 29.5409 34.0349 29.6745 33.903 29.8082C33.903 29.8082 33.903 29.9419 33.7711 29.9419L33.6392 30.0755L33.5074 30.2092L33.3755 30.3429L33.2436 30.4765L33.1117 30.6102L32.9798 30.7439C32.9798 30.7439 32.9798 30.8775 32.8479 30.8775C32.8479 31.0112 32.7161 31.0112 32.7161 31.1449C32.7161 31.1449 32.7161 31.1449 32.7161 31.2786C32.5842 31.4122 32.5842 31.4122 32.4523 31.5459C32.4523 31.5459 32.4523 31.6796 32.3204 31.6796C32.3204 31.8132 32.1885 31.8132 32.1885 31.9469C32.1885 31.9469 32.1885 32.0806 32.0567 32.0806L31.9248 32.2142C31.9248 32.2142 31.9248 32.3479 31.7929 32.3479L31.661 32.4816C31.661 32.4816 31.661 32.4816 31.5291 32.6152C31.3973 32.7489 31.3973 32.7489 31.2654 32.8826C31.0016 33.1499 30.7378 33.2836 30.4741 33.5509C34.6943 30.0755 37.3319 24.8624 37.3319 18.981C37.5957 8.42115 29.2871 0 19.0004 0ZM36.2769 22.3227H1.98761C1.98761 22.0554 1.85573 21.6544 1.85573 21.387H36.5406C36.2769 21.6544 36.2769 21.9217 36.2769 22.3227ZM6.86724 20.585V16.8423C6.86724 16.4413 7.79041 16.0403 8.84546 16.0403C9.90052 16.0403 10.8237 16.4413 10.8237 16.8423V20.585H6.86724ZM17.154 20.585V16.8423C17.154 16.4413 18.0772 16.0403 19.1322 16.0403C20.1873 16.0403 21.1105 16.4413 21.1105 16.8423V20.585H17.154ZM27.3089 20.585V16.8423C27.3089 16.4413 28.2321 16.0403 29.2871 16.0403C30.3422 16.0403 31.2654 16.4413 31.2654 16.8423V20.585H27.3089ZM36.4088 20.585H34.0349V13.6342H24.2756V20.585H23.88V13.6342H14.1207V20.585H13.5932V13.6342H3.96584V20.585H1.59197C1.59197 20.0504 1.46008 19.382 1.46008 18.8473C1.46008 13.9016 3.43831 9.4905 6.60347 6.28244C9.76864 3.07439 14.1207 1.06935 19.0004 1.06935C23.88 1.06935 28.2321 3.07439 31.3973 6.28244C34.5624 9.4905 36.5406 13.9016 36.5406 18.8473C36.5406 19.382 36.5406 20.0504 36.4088 20.585Z" fill="white"/>
<path d="M20.7149 11.6288V10.2921H20.0555V10.0248V9.89113C20.0555 9.35646 19.528 8.82178 19.0005 8.82178C18.4729 8.82178 17.9454 9.35646 17.9454 9.89113C17.9454 9.89113 17.9454 9.89113 17.9454 10.0248V10.2921H17.286V11.6288L14.5165 12.6982H14.1208V13.2329H23.8801V12.6982H23.6163L20.7149 11.6288Z" fill="white"/>
<path d="M31.0018 10.2924H30.3424V10.0251V9.8914C30.3424 9.35672 29.8149 8.82204 29.2874 8.82204C28.7598 8.82204 28.2323 9.35672 28.2323 9.8914C28.2323 9.8914 28.2323 9.8914 28.2323 10.0251V10.2924H27.5729V11.3618C25.4628 8.95571 22.4295 7.48535 19.1325 7.48535C15.7035 7.48535 12.6703 8.95571 10.5602 11.4954V10.2924H9.90074V10.0251V9.8914C9.90074 9.35672 9.37322 8.82204 8.84569 8.82204C8.31816 8.82204 7.79064 9.35672 7.79064 9.8914C7.79064 9.8914 7.79064 9.8914 7.79064 10.0251V10.2924H7.13123V11.6291L4.36171 12.6984H3.96606V13.2331H13.7253V12.6984H13.3297L11.2196 11.8964C13.1978 9.75773 15.9673 8.42104 19.0006 8.42104C22.0339 8.42104 24.8034 9.75773 26.7816 11.8964L24.6715 12.6984H24.2759V13.2331H34.0351V12.6984H33.7714L31.0018 11.6291V10.2924Z" fill="white"/>
<path d="M17.4181 31.813L17.0225 33.016L17.55 33.1497L17.4181 31.813Z" fill="white"/>
<path d="M20.3198 25.5308L20.0554 26.0654H20.452L20.3198 25.5308Z" fill="white"/>
<path d="M16.0997 25.3975H15.9675V26.1995H16.0997C16.2319 26.1995 16.2319 26.1995 16.2319 26.0658C16.2319 26.0658 16.2319 25.9321 16.2319 25.7985C16.2319 25.6648 16.2319 25.5311 16.2319 25.5311C16.2319 25.5311 16.2319 25.3975 16.0997 25.3975Z" fill="white"/>
<path d="M14.7805 30.6102L14.5167 30.4766L14.2529 31.4122L14.5167 31.5459C14.7805 31.6796 14.9123 31.5459 15.0442 31.1449C15.0442 31.0112 15.0442 30.7439 14.7805 30.6102Z" fill="white"/>
<path d="M14.3852 26.1995C14.3852 26.1995 14.3852 26.0658 14.3852 25.7985C14.3852 25.5311 14.3852 25.5311 14.3852 25.3975H14.253H14.1208C14.1208 25.3975 14.1208 25.5311 14.1208 25.7985C14.1208 26.0658 14.1208 26.0658 14.1208 26.1995H14.253H14.3852Z" fill="white"/>
<path d="M12.2751 25.3975H12.0107V25.6648H12.2751C12.4073 25.6648 12.4073 25.5311 12.4073 25.5311C12.4073 25.5311 12.4073 25.3975 12.2751 25.3975Z" fill="white"/>
<path d="M12.0111 29.8081L11.0879 30.7438L11.4835 31.0111L12.0111 29.8081Z" fill="white"/>
<path d="M31.7931 32.3471C31.925 32.3471 31.925 32.3471 31.7931 32.3471C31.925 32.2134 32.0569 32.0797 32.0569 32.0797C32.0569 32.0797 32.0569 31.9461 32.1888 31.9461L32.3207 31.8124C32.3207 31.8124 32.3207 31.6787 32.4525 31.6787C32.4525 31.5451 32.5844 31.5451 32.5844 31.4114C32.5844 31.4114 32.5844 31.4114 32.7163 31.2777C32.8482 31.1441 32.8482 31.1441 32.9801 31.0104C32.9801 31.0104 32.9801 31.0104 32.9801 30.8767C32.9801 30.743 33.1119 30.743 33.1119 30.6094C33.1119 30.6094 33.1119 30.4757 33.2438 30.4757L33.3757 30.342L33.5076 30.2084L33.6395 30.0747L33.7714 29.941L33.9032 29.8074L34.0351 29.6737C34.0351 29.6737 34.0351 29.54 34.167 29.54C34.2989 29.4064 34.2989 29.2727 34.4308 29.139C34.4308 29.139 34.4308 29.0054 34.5626 29.0054C34.5626 28.8717 34.6945 28.8717 34.6945 28.738C34.6945 28.738 34.6945 28.6043 34.8264 28.6043C34.8264 28.4707 34.9583 28.4707 34.9583 28.337V28.2033C34.9583 28.0697 35.0902 28.0697 35.0902 27.936C35.0902 27.936 35.0902 27.936 35.0902 27.8023C35.2221 27.535 35.3539 27.2677 35.4858 26.8666C35.4858 26.733 35.6177 26.733 35.6177 26.5993C35.6177 26.4656 35.7496 26.4656 35.7496 26.332C36.0133 25.7973 36.1452 25.2626 36.2771 24.5943C36.2771 24.4606 36.2771 24.3269 36.409 24.1933C36.5409 23.6586 36.6728 22.9902 36.8046 22.4556H1.85596C2.38348 26.0646 3.96607 29.2727 6.20806 31.8124C6.33994 31.9461 6.33994 31.9461 6.47182 32.0797C6.47182 32.0797 6.47182 32.0797 6.6037 32.2134C6.73558 32.3471 6.73558 32.3471 6.86747 32.4807C7.92252 33.5501 9.24134 34.6194 10.5602 35.2878C13.0659 36.7582 16.0992 37.5602 19.2644 37.5602C23.7483 37.5602 27.8367 35.8225 30.87 33.0154C31.1337 32.7481 31.3975 32.6144 31.6612 32.3471C31.6612 32.6144 31.7931 32.4807 31.7931 32.3471ZM6.33994 25.6636L5.54865 25.53L6.33994 25.1289L6.20806 24.3269L6.73558 24.8616L7.52688 24.4606L7.13123 25.2626L7.65876 25.931L6.86747 25.7973L6.47182 26.5993L6.33994 25.6636ZM30.87 24.5943L31.6612 24.9953L32.3207 24.3269L32.1888 25.1289L32.9801 25.53L32.1888 25.6636L32.0569 26.4656L31.6612 25.6636L30.87 25.7973L31.3975 25.1289L30.87 24.5943ZM28.2323 31.4114L27.8367 31.6787L25.8584 29.0054L26.2541 28.738L27.0454 29.8074L27.441 29.4064L26.6497 28.337L27.0454 28.0697L29.0236 30.743L28.628 31.0104L27.8367 29.941L27.441 30.342L28.2323 31.4114ZM24.144 30.0747L25.3309 32.6144L26.1222 32.2134L26.386 32.6144L25.0672 33.2828L23.6165 30.342L24.144 30.0747ZM23.7483 26.4656V25.2626H24.0121V26.4656H23.7483ZM25.3309 26.4656H25.0672L24.8034 25.931H24.6715V26.4656H24.4077V25.2626H24.9353C25.199 25.2626 25.3309 25.3963 25.3309 25.6636C25.3309 25.7973 25.199 25.931 25.0672 25.931L25.3309 26.4656ZM25.7266 25.7973C25.7266 25.53 25.7266 25.3963 25.8584 25.2626C25.9903 25.1289 25.9903 25.1289 26.1222 25.1289C26.2541 25.1289 26.386 25.1289 26.386 25.2626C26.5179 25.3963 26.5179 25.53 26.5179 25.7973C26.5179 26.0646 26.5179 26.1983 26.386 26.332C26.386 26.4656 26.2541 26.4656 26.1222 26.4656C25.9903 26.4656 25.8584 26.4656 25.8584 26.332C25.7266 26.1983 25.7266 26.0646 25.7266 25.7973ZM23.2208 25.6636V25.931H22.6933V26.1983H23.2208V26.4656H22.5614V25.2626H23.3527V25.53H22.8252V25.7973H23.2208V25.6636ZM22.4295 30.6094L23.3527 33.8174L22.957 33.9511L22.0339 30.743L22.4295 30.6094ZM21.902 26.4656L21.3745 25.6636V26.4656H21.1107V25.2626H21.3745L21.902 26.0646V25.2626H22.1658V26.4656H21.902ZM19.66 31.0104L20.1875 33.2828L20.3194 31.0104H20.8469L20.4513 34.3521H20.0556L19.1325 31.1441L19.66 31.0104ZM19.0006 26.4656C18.8687 26.4656 18.7368 26.4656 18.7368 26.332L18.8687 26.1983H19.0006C19.1325 26.1983 19.1325 26.1983 19.1325 25.931V25.1289H19.3962V25.931C19.3962 26.332 19.2644 26.4656 19.0006 26.4656ZM19.7919 26.4656L20.1875 25.2626H20.3194L20.7151 26.4656H20.4513L20.3194 26.1983H19.9238V26.4656H19.7919ZM17.2861 30.8767H17.6818L18.0774 34.2184H17.5499V33.5501L16.8905 33.4164L16.6267 34.0848H16.0992L17.2861 30.8767ZM16.0992 26.4656H15.7035V25.2626H16.0992C16.2311 25.2626 16.363 25.2626 16.363 25.3963C16.4948 25.53 16.4948 25.6636 16.4948 25.931C16.4948 26.0646 16.4948 26.332 16.363 26.4656C16.363 26.4656 16.2311 26.4656 16.0992 26.4656ZM17.6818 25.6636V25.931H17.2861V26.1983H17.8137V26.4656H17.0224V25.2626H17.8137V25.53H17.2861V25.7973H17.6818V25.6636ZM14.7804 33.6838L14.2528 33.5501V32.0797L13.9891 31.9461L13.5934 33.2828L13.1978 33.1491L14.2528 30.0747L14.9123 30.342C15.4398 30.4757 15.5717 30.8767 15.4398 31.5451C15.3079 31.9461 15.176 32.0797 14.7804 32.2134V33.6838ZM13.1978 26.4656V25.2626H13.3297V26.4656H13.1978ZM13.8572 25.7973C13.8572 25.53 13.8572 25.3963 13.9891 25.2626C14.121 25.1289 14.121 25.1289 14.2528 25.1289C14.3847 25.1289 14.5166 25.1289 14.5166 25.2626C14.6485 25.3963 14.6485 25.53 14.6485 25.7973C14.6485 26.0646 14.6485 26.1983 14.5166 26.332C14.5166 26.4656 14.3847 26.4656 14.2528 26.4656C14.121 26.4656 13.9891 26.4656 13.9891 26.332C13.8572 26.1983 13.8572 26.0646 13.8572 25.7973ZM10.8239 31.0104L10.2964 31.5451L9.90075 31.2777L12.2746 28.8717L12.5384 29.139L11.3514 32.3471L10.9558 32.0797L11.2196 31.4114L10.8239 31.0104ZM9.63698 28.337L8.31817 29.0054L8.18628 28.8717L8.84569 27.535L7.39499 28.8717L7.13123 28.4707L9.5051 26.1983L9.76887 26.4656L8.97757 28.0697L10.692 27.2677L10.9558 27.8023L8.58193 30.0747L8.31817 29.6737L9.63698 28.337ZM12.5384 26.4656L12.2746 25.931H12.1427V26.4656H11.879V25.2626H12.4065C12.6703 25.2626 12.8021 25.3963 12.8021 25.6636C12.8021 25.7973 12.6703 25.931 12.5384 25.931L12.8021 26.4656H12.5384ZM30.87 29.139L30.4743 29.54L28.3642 26.8666L28.628 26.5993L31.6612 28.0697L31.3975 28.4707L30.7381 28.0697L30.3424 28.6043L30.87 29.139Z" fill="white"/>
<path d="M29.2871 27.2681L30.0784 28.3374L30.3422 27.9364L29.2871 27.2681Z" fill="white"/>
<path d="M24.9358 25.3975H24.6714V25.6648H24.9358C25.068 25.6648 25.068 25.5311 25.068 25.5311C25.068 25.5311 25.068 25.3975 24.9358 25.3975Z" fill="white"/>
<path d="M26.2544 26.1995C26.2544 26.1995 26.2544 26.0658 26.2544 25.7985C26.2544 25.5311 26.2544 25.5311 26.2544 25.3975H26.1222H25.99C25.99 25.3975 25.99 25.5311 25.99 25.7985C25.99 26.0658 25.99 26.0658 25.99 26.1995H26.1222C26.2544 26.1995 26.2544 26.1995 26.2544 26.1995Z" fill="white"/>
</svg>
