<svg width="181" height="40" viewBox="0 0 181 40" fill="none" xmlns="http://www.w3.org/2000/svg">
<rect width="179.339" height="39.3837" fill="black" fill-opacity="0" transform="translate(0.888672)"/>
<path fill-rule="evenodd" clip-rule="evenodd" d="M134.838 23.5261L134.317 21.8364L133.665 23.5261H134.838ZM134.186 31.5849L133.665 29.8951L133.143 31.5849H134.186ZM136.143 33.4046H134.838L134.447 32.4947H132.621L132.23 33.4046H131.186L133.012 28.5953H134.447L136.143 33.4046ZM131.186 33.4046H129.752L128.447 31.7148H127.926V33.4046H126.621V28.5953H128.708C128.969 28.5953 129.23 28.5953 129.491 28.5953C129.752 28.5953 129.882 28.7253 130.013 28.8553C130.143 28.9853 130.273 29.1153 130.404 29.2452C130.534 29.3752 130.534 29.6352 130.534 29.8951C130.534 30.2851 130.404 30.545 130.273 30.805C130.143 31.0649 129.882 31.1949 129.621 31.3249L131.186 33.4046ZM129.23 30.0251C129.23 29.8951 129.23 29.7652 129.1 29.7652C128.969 29.6352 128.969 29.6352 128.839 29.5052C128.708 29.5052 128.708 29.5052 128.578 29.5052C128.447 29.5052 128.317 29.5052 128.187 29.5052H127.795V30.805H128.187C128.317 30.805 128.578 30.805 128.708 30.805C128.839 30.805 128.969 30.675 129.1 30.675C129.23 30.545 129.23 30.545 129.23 30.415C129.23 30.2851 129.23 30.2851 129.23 30.0251ZM125.317 31.7148C125.317 32.2348 125.187 32.7547 124.796 33.0146C124.404 33.2746 123.882 33.5345 123.23 33.5345C122.578 33.5345 122.056 33.4046 121.665 33.0146C121.274 32.6247 121.144 32.2348 121.144 31.7148V28.7253H122.317V31.7148C122.317 31.9748 122.448 32.2348 122.578 32.4947C122.709 32.6247 122.969 32.7547 123.23 32.7547C123.491 32.7547 123.752 32.6247 123.882 32.4947C124.013 32.3647 124.143 32.1048 124.143 31.7148V28.7253H125.448V31.7148H125.317ZM120.361 29.5052H118.926V33.4046H117.752V29.5052H116.318V28.5953H120.491V29.5052H120.361ZM115.926 33.4046H112.405V28.5953H113.709V32.4947H115.926V33.4046ZM111.361 31.7148C111.361 32.2348 111.101 32.7547 110.84 33.0146C110.448 33.2746 109.927 33.5345 109.275 33.5345C108.622 33.5345 108.101 33.4046 107.709 33.0146C107.318 32.6247 107.188 32.2348 107.188 31.7148V28.7253H108.362V31.7148C108.362 31.9748 108.492 32.2348 108.622 32.4947C108.753 32.6247 109.014 32.7547 109.275 32.7547C109.535 32.7547 109.796 32.6247 109.927 32.4947C110.057 32.3647 110.188 32.1048 110.188 31.7148V28.7253H111.492V31.7148H111.361ZM104.579 33.5345C104.188 33.5345 103.927 33.5346 103.536 33.4046C103.275 33.2746 103.014 33.1446 102.753 32.8847C102.492 32.6247 102.362 32.3647 102.231 32.1048C102.101 31.8448 102.101 31.4549 102.101 31.0649C102.101 30.675 102.231 30.4151 102.231 30.0251C102.362 29.7652 102.492 29.5052 102.753 29.2452C103.014 28.9853 103.275 28.8553 103.536 28.7253C103.797 28.5953 104.188 28.5953 104.579 28.5953C104.84 28.5953 104.97 28.5953 105.101 28.5953C105.231 28.5953 105.362 28.5953 105.623 28.7253C105.753 28.7253 105.883 28.8553 106.014 28.8553C106.144 28.8553 106.275 28.9853 106.275 28.9853V30.1551H106.144C106.014 30.1551 106.014 30.0251 105.883 30.0251C105.753 29.8951 105.753 29.8951 105.623 29.7652C105.492 29.6352 105.362 29.6352 105.231 29.6352C105.101 29.6352 104.97 29.5052 104.84 29.5052C104.71 29.5052 104.449 29.5052 104.318 29.6352C104.188 29.6352 104.057 29.7652 103.927 29.8951C103.797 30.0251 103.666 30.1551 103.666 30.415C103.536 30.675 103.536 30.805 103.536 31.1949C103.536 31.4549 103.536 31.7148 103.666 31.9748C103.797 32.2348 103.927 32.3647 104.057 32.4947C104.188 32.6247 104.318 32.7547 104.449 32.7547C104.579 32.7547 104.71 32.8847 104.97 32.8847C105.231 32.8847 105.231 32.8847 105.362 32.7547C105.492 32.7547 105.623 32.6247 105.753 32.6247C105.883 32.4947 106.014 32.4947 106.014 32.3647C106.144 32.2348 106.144 32.2348 106.275 32.2348H106.405V33.4046C106.275 33.4046 106.144 33.5345 106.014 33.5345C105.883 33.5345 105.753 33.6645 105.623 33.6645C105.492 33.6645 105.362 33.7945 105.231 33.7945C104.97 33.5346 104.84 33.5345 104.579 33.5345ZM99.1011 33.4046H95.5795V28.5953H99.1011V29.5052H96.8838V30.2851H98.9707V31.1949H96.8838V32.3647H99.1011V33.4046ZM93.3623 31.0649C93.3623 30.805 93.2318 30.545 93.2318 30.2851C93.1014 30.0251 92.971 29.8951 92.7101 29.7652C92.5797 29.6352 92.4493 29.6352 92.3188 29.6352C92.1884 29.6352 91.9276 29.6352 91.6667 29.6352H91.4058V32.6247H91.6667C91.9276 32.6247 92.1884 32.6247 92.3188 32.6247C92.4493 32.6247 92.5797 32.4947 92.7101 32.4947C92.971 32.3647 93.1014 32.2348 93.2318 31.9748C93.3623 31.5849 93.3623 31.3249 93.3623 31.0649ZM94.6666 31.0649C94.6666 31.4549 94.5361 31.9748 94.4057 32.2348C94.1448 32.6247 94.0144 32.8847 93.6231 33.0146C93.3623 33.1446 93.1014 33.2746 92.8406 33.2746C92.5797 33.4046 92.1884 33.4046 91.7971 33.4046H90.1016V28.5953H91.7971C92.1884 28.5953 92.5797 28.5953 92.8406 28.7253C93.1014 28.8553 93.3623 28.8553 93.4927 28.9853C93.884 29.2452 94.1448 29.5052 94.2753 29.7652C94.5361 30.1551 94.6666 30.545 94.6666 31.0649ZM136.795 25.4758H135.491L135.099 24.566H133.273L132.882 25.4758H131.578L133.404 20.6666H134.838L136.795 25.4758ZM131.317 25.4758H128.578V24.566H129.36V21.4465H128.578V20.5366H131.317V21.4465H130.534V24.566H131.317V25.4758ZM128.187 25.4758H126.621L125.317 23.7861H124.796V25.4758H123.622V20.6666H125.708C125.969 20.6666 126.23 20.6666 126.491 20.6666C126.752 20.6666 126.882 20.7966 127.013 20.9266C127.143 21.0565 127.404 21.1865 127.404 21.3165C127.534 21.4465 127.534 21.7064 127.534 21.9664C127.534 22.3563 127.404 22.6163 127.274 22.8763C127.143 23.1362 126.882 23.2662 126.621 23.3962L128.187 25.4758ZM126.361 22.0964C126.361 21.9664 126.361 21.8364 126.23 21.8364C126.23 21.7064 126.1 21.7064 125.969 21.5765C125.839 21.5765 125.839 21.5765 125.708 21.5765C125.578 21.5765 125.448 21.5765 125.317 21.5765H124.926V22.8763H125.317C125.578 22.8763 125.708 22.8763 125.839 22.8763C125.969 22.8763 126.1 22.7463 126.23 22.7463C126.361 22.6163 126.361 22.6163 126.491 22.4863C126.23 22.3563 126.361 22.2264 126.361 22.0964ZM121.013 23.5261L120.361 21.8364L119.839 23.5261H121.013ZM122.969 25.4758H121.665L121.274 24.566H119.448L119.057 25.4758H117.752L119.578 20.6666H121.013L122.969 25.4758ZM117.752 21.5765H116.318V25.4758H115.013V21.5765H113.579V20.6666H117.883V21.5765H117.752ZM112.927 25.4758H109.405V20.6666H112.927V21.5765H110.709V22.3563H112.796V23.2662H110.709V24.436H112.927V25.4758ZM109.014 25.4758H107.579L106.275 23.7861H105.753V25.4758H104.579V20.6666H106.666C106.927 20.6666 107.188 20.6666 107.449 20.6666C107.709 20.6666 107.84 20.7966 107.97 20.9266C108.101 21.0565 108.362 21.1865 108.362 21.3165C108.492 21.4465 108.492 21.7064 108.492 21.9664C108.492 22.3563 108.362 22.6163 108.231 22.8763C108.101 23.1362 107.84 23.2662 107.579 23.3962L109.014 25.4758ZM107.057 22.0964C107.057 21.9664 107.057 21.8364 106.927 21.8364C106.927 21.7064 106.796 21.7064 106.666 21.5765C106.536 21.5765 106.536 21.5765 106.405 21.5765C106.275 21.5765 106.144 21.5765 106.014 21.5765H105.623V22.8763H106.014C106.275 22.8763 106.405 22.8763 106.536 22.8763C106.666 22.8763 106.796 22.7463 106.927 22.7463C107.057 22.6163 107.057 22.6163 107.188 22.4863C107.057 22.3563 107.057 22.2264 107.057 22.0964ZM101.71 25.4758C101.318 25.4758 101.058 25.4758 100.666 25.3459C100.405 25.2159 100.145 25.0859 99.8837 24.8259C99.6228 24.566 99.4924 24.306 99.362 24.0461C99.2316 23.7861 99.2315 23.3962 99.2315 23.0062C99.2315 22.6163 99.2316 22.3563 99.362 21.9664C99.4924 21.7064 99.6228 21.4465 99.8837 21.1865C100.145 20.9266 100.275 20.7966 100.666 20.6666C100.927 20.5366 101.318 20.5366 101.71 20.5366C101.971 20.5366 102.101 20.5366 102.231 20.5366C102.362 20.5366 102.492 20.5366 102.623 20.6666C102.753 20.6666 102.884 20.7966 103.014 20.7966C103.144 20.7966 103.275 20.9266 103.275 20.9266V22.0964H103.144C103.014 22.0964 103.014 21.9664 102.884 21.9664C102.753 21.8364 102.623 21.8364 102.623 21.7064C102.492 21.5765 102.362 21.5765 102.231 21.5765C102.101 21.5765 101.971 21.4465 101.84 21.4465C101.71 21.4465 101.449 21.4465 101.318 21.5765C101.188 21.5765 101.058 21.7064 100.927 21.8364C100.797 21.9664 100.666 22.0964 100.666 22.3563C100.536 22.6163 100.536 22.7463 100.536 23.1362C100.536 23.3962 100.536 23.6561 100.666 23.9161C100.797 24.176 100.927 24.306 100.927 24.436C101.058 24.566 101.188 24.696 101.318 24.696C101.449 24.696 101.579 24.8259 101.84 24.8259C101.971 24.8259 102.101 24.8259 102.231 24.696C102.362 24.696 102.492 24.566 102.623 24.566C102.753 24.436 102.884 24.436 102.884 24.306C103.014 24.176 103.014 24.176 103.144 24.176H103.275V25.3459C103.144 25.3459 103.014 25.4758 102.884 25.4758C102.753 25.4758 102.623 25.6058 102.492 25.6058C102.362 25.6058 102.231 25.7358 102.101 25.7358C102.231 25.4758 101.971 25.4758 101.71 25.4758ZM98.5794 25.4758H95.0578V20.6666H98.5794V21.5765H96.3621V22.3563H98.449V23.2662H96.3621V24.436H98.5794V25.4758ZM94.2753 23.9161C94.2753 24.436 94.0144 24.8259 93.6231 25.0859C93.2318 25.3459 92.7101 25.4758 92.058 25.4758C91.6667 25.4758 91.2754 25.4758 91.0146 25.3459C90.7537 25.2159 90.4929 25.2159 90.232 25.0859V23.9161H90.3624C90.6233 24.176 90.8841 24.306 91.2754 24.436C91.5363 24.566 91.9276 24.566 92.1884 24.566C92.3189 24.566 92.3188 24.566 92.4493 24.566C92.5797 24.566 92.7101 24.566 92.7101 24.436C92.8406 24.436 92.8406 24.306 92.971 24.306C92.971 24.306 93.1014 24.176 93.1014 24.0461C93.1014 23.9161 93.1014 23.7861 92.971 23.7861C92.8406 23.6561 92.7101 23.6561 92.5797 23.6561C92.4493 23.6561 92.1884 23.5261 92.058 23.5261C91.7971 23.5261 91.6667 23.3962 91.5363 23.3962C91.145 23.2662 90.8841 23.1362 90.6233 22.8763C90.4928 22.6163 90.3624 22.3563 90.3624 22.0964C90.3624 21.7064 90.6233 21.3165 91.0146 21.0565C91.4058 20.7966 91.9276 20.6666 92.5797 20.6666C92.971 20.6666 93.2318 20.6666 93.4927 20.7966C93.7536 20.9266 94.0144 20.9266 94.2753 21.0565V22.2264H94.1448C94.0144 22.0964 93.7536 21.9664 93.4927 21.8364C93.2318 21.7064 92.971 21.7064 92.5797 21.7064C92.4493 21.7064 92.3188 21.7064 92.3188 21.7064C92.1884 21.7064 92.058 21.7064 92.058 21.8364C91.9276 21.8364 91.9276 21.9664 91.7971 21.9664C91.7971 22.0964 91.6667 22.0964 91.6667 22.2264C91.6667 22.3563 91.7971 22.4863 91.7971 22.4863C91.9276 22.6163 92.058 22.6163 92.3188 22.7463C92.4493 22.7463 92.7101 22.8763 92.8406 22.8763C92.971 22.8763 93.2318 23.0062 93.3623 23.0062C93.7536 23.1362 94.0144 23.2662 94.1448 23.5261C94.1448 23.2662 94.2753 23.5261 94.2753 23.9161Z" fill="white"/>
<path fill-rule="evenodd" clip-rule="evenodd" d="M159.489 30.9353C159.489 30.0254 158.837 29.6355 157.924 29.6355C156.881 29.6355 156.359 30.5453 156.359 31.5852C156.359 32.625 156.881 33.5348 157.924 33.5348C158.837 33.5348 159.489 33.1449 159.489 32.2351H158.576C158.576 32.625 158.316 32.8849 157.924 32.8849C157.403 32.8849 157.272 32.1051 157.272 31.5852C157.272 31.0652 157.403 30.2854 157.924 30.2854C158.446 30.2854 158.707 30.5453 158.576 30.9353H159.489ZM162.489 29.6355V31.7151C162.489 32.365 162.489 32.8849 161.707 32.8849C160.924 32.8849 160.924 32.365 160.924 31.7151V29.6355H160.142V31.9751C160.142 33.0149 160.794 33.4049 161.707 33.4049C162.62 33.4049 163.272 32.885 163.272 31.9751V29.6355H162.489ZM166.402 33.4049V32.755H164.837V29.6355H164.054V33.4049H166.402ZM166.011 30.2854V29.6355H169.011V30.2854H167.837V33.4049H167.054V30.2854H166.011ZM171.88 29.6355V31.7151C171.88 32.365 171.88 32.8849 171.098 32.8849C170.315 32.8849 170.315 32.365 170.315 31.7151V29.6355H169.532V31.9751C169.532 33.0149 170.185 33.4049 171.098 33.4049C172.011 33.4049 172.663 32.885 172.663 31.9751V29.6355H171.88ZM174.228 30.2854H174.88C175.271 30.2854 175.402 30.4153 175.402 30.8053C175.402 31.1952 175.141 31.3252 174.88 31.3252H174.228V30.2854ZM174.228 31.8451H175.141C175.402 31.8451 175.402 32.1051 175.532 32.365C175.532 32.755 175.663 33.0149 175.663 33.4049H176.576C176.445 33.1449 176.445 32.755 176.315 32.495C176.184 31.9751 176.184 31.5852 175.663 31.5852C176.184 31.4552 176.445 31.1952 176.445 30.6753C176.445 29.8954 175.793 29.7654 175.141 29.7654H173.576V33.4049H174.358V31.8451H174.228ZM177.358 33.4049L177.619 32.625H179.054L179.445 33.4049H180.227L178.923 29.6355H178.01L176.706 33.4049H177.358ZM177.88 31.9751L178.401 30.4153L178.923 31.9751H177.88ZM151.403 29.6355L152.055 30.4153H152.446L152.055 29.6355H151.403ZM152.446 33.4049H151.664L152.968 29.6355H153.881L155.185 33.4049H154.403L154.142 32.625H152.707L152.446 33.4049ZM152.968 31.9751H154.011L153.49 30.4153L152.968 31.9751ZM153.229 23.1365V22.7466H152.185V20.7969H151.664V23.1365H153.229ZM153.49 23.1365H155.055V22.7466H154.011V22.0967H155.055V21.7067H154.011V21.1868H155.055V20.7969H153.49V23.1365ZM156.098 20.7969H155.577V23.1365H156.098V20.7969ZM157.403 23.1365H158.968V22.7466H157.924V22.0967H158.968V21.7067H157.924V21.1868H158.968V20.7969H157.403V23.1365ZM161.315 21.4468C161.315 20.9269 160.924 20.7969 160.533 20.7969C160.011 20.7969 159.62 21.0568 159.62 21.5768C159.62 21.9667 160.011 22.0967 160.402 22.2266C160.663 22.2266 160.924 22.3566 160.924 22.6166C160.924 22.8765 160.663 22.8765 160.402 22.8765C160.142 22.8765 160.011 22.7466 160.011 22.4866H159.489C159.489 23.1365 159.881 23.2665 160.402 23.2665C160.924 23.2665 161.446 23.0065 161.446 22.4866C161.446 21.9667 160.924 21.9667 160.533 21.8367C160.272 21.8367 160.142 21.7067 160.142 21.4468C160.142 21.1868 160.272 21.1868 160.533 21.1868C160.794 21.1868 160.924 21.3168 160.924 21.5768L161.315 21.4468ZM161.576 21.1868H162.228V23.1365H162.75V21.1868H163.402V20.7969H161.576V21.1868ZM163.924 23.1365H163.402L164.185 20.7969H164.837L165.62 23.1365H165.098L164.967 22.6166H164.054L163.924 23.1365ZM164.185 22.2266H164.837L164.576 21.1868L164.185 22.2266ZM166.533 21.1868H166.793C167.446 21.1868 167.446 21.5768 167.446 21.9667C167.446 22.3566 167.315 22.7466 166.793 22.7466H166.533V21.1868ZM166.011 23.1365H166.793C167.576 23.1365 167.967 22.7466 167.967 21.9667C167.967 21.1868 167.576 20.7969 166.793 20.7969H166.011V23.1365ZM169.924 20.7969V22.0967C169.924 22.4866 169.924 22.8765 169.402 22.8765C168.88 22.8765 168.88 22.4866 168.88 22.0967V20.7969H168.359V22.2266C168.359 22.8765 168.75 23.1365 169.402 23.1365C169.924 23.1365 170.445 22.8765 170.445 22.2266V20.7969H169.924ZM171.228 23.1365L171.358 22.6166H172.271L172.402 23.1365H172.924L172.141 20.7969H171.619L170.837 23.1365H171.228ZM171.619 22.2266L172.011 21.1868L172.271 22.2266H171.619ZM174.88 23.1365V22.7466H173.836V20.7969H173.315V23.1365H174.88ZM176.706 21.1868H176.967C177.619 21.1868 177.619 21.5768 177.619 21.9667C177.619 22.3566 177.489 22.7466 176.967 22.7466H176.706V21.1868ZM176.184 23.1365H176.967C177.749 23.1365 178.141 22.7466 178.141 21.9667C178.141 21.1868 177.749 20.7969 176.967 20.7969H176.184V23.1365ZM178.532 23.1365H180.097V22.7466H179.054V22.0967H180.097V21.7067H179.054V21.1868H180.097V20.7969H178.532V23.1365ZM152.446 24.5663H151.664V28.2057H152.446V24.5663ZM156.62 28.2057V24.4363H155.837V27.2958L154.403 24.3063H153.229V28.2057H154.011V25.0862L155.446 28.2057H156.62ZM160.402 25.7361C160.402 24.8262 159.75 24.4363 158.837 24.4363C157.794 24.4363 157.272 25.3461 157.272 26.386C157.272 27.4258 157.794 28.3357 158.837 28.3357C159.75 28.3357 160.402 27.9457 160.402 27.0359H159.489C159.489 27.4258 159.229 27.6858 158.837 27.6858C158.316 27.6858 158.185 26.9059 158.185 26.386C158.185 25.8661 158.316 25.0862 158.837 25.0862C159.359 25.0862 159.62 25.3461 159.489 25.7361H160.402ZM160.924 28.2057H163.533V27.5558H161.837V26.516H163.402V25.8661H161.837V24.9562H163.533V24.3063H161.055V28.2057H160.924ZM167.576 28.2057V24.4363H166.793V27.2958L165.359 24.3063H164.185V28.2057H164.967V25.0862L166.402 28.2057H167.576ZM168.098 25.0862H169.272V28.2057H170.054V25.0862H171.228V24.4363H168.228V25.0862H168.098ZM172.402 24.5663H171.619V28.2057H172.402V24.5663ZM174.228 28.2057H175.141L176.576 24.4363H175.793L174.749 27.4258L173.836 24.4363H172.924L174.228 28.2057ZM178.401 28.3357C179.575 28.3357 180.227 27.5558 180.227 26.386C180.227 25.3461 179.706 24.4363 178.401 24.4363C177.228 24.4363 176.576 25.2162 176.576 26.386C176.576 27.4258 177.097 28.3357 178.401 28.3357ZM178.401 25.0862C179.184 25.0862 179.314 25.8661 179.314 26.386C179.314 27.0359 179.184 27.6858 178.401 27.6858C177.619 27.6858 177.488 26.9059 177.488 26.386C177.488 25.7361 177.619 25.0862 178.401 25.0862Z" fill="white"/>
<rect width="77.2137" height="39.3837" fill="black" fill-opacity="0" transform="translate(0.888672)"/>
<path d="M33.8872 0.649902H1.67139V38.6039H33.8872V0.649902Z" fill="#231F20"/>
<path fill-rule="evenodd" clip-rule="evenodd" d="M44.9734 31.3249C44.8429 31.3249 44.7125 31.4549 44.5821 31.5849C44.4517 31.7148 44.4517 31.8448 44.4517 31.9748C44.4517 32.1048 44.4517 32.1048 44.4517 32.2348C44.4517 32.2348 44.4517 32.3647 44.5821 32.3647C44.5821 32.3647 44.7125 32.4947 44.8429 32.4947C44.9734 32.4947 45.1038 32.4947 45.2342 32.4947C45.3647 32.4947 45.4951 32.4947 45.7559 32.3647C45.8864 32.3647 46.0168 32.2348 46.1472 32.1048V31.0649C45.8864 31.0649 45.7559 31.0649 45.4951 31.1949C45.2342 31.1949 45.1038 31.1949 44.9734 31.3249Z" fill="white"/>
<path fill-rule="evenodd" clip-rule="evenodd" d="M77.972 0H33.8872V39.3837H78.1024V0H77.972Z" fill="white"/>
<path fill-rule="evenodd" clip-rule="evenodd" d="M0.888672 39.3837H77.9718V0H0.888672V39.3837ZM1.67124 38.6038V0.649896V0.389939H33.887H77.3197V38.8638H33.887H1.67124V38.6038Z" fill="white"/>
<path d="M33.8872 0.130371H1.67139V0.650288H33.8872V0.130371Z" fill="white"/>
<path d="M33.8872 38.604H1.67139V39.1239H33.8872V38.604Z" fill="white"/>
<path fill-rule="evenodd" clip-rule="evenodd" d="M23.0617 16.8975H22.2791L22.8008 17.1574L23.0617 16.8975ZM18.1054 7.01904C23.1921 7.01904 27.3658 12.6081 27.3658 19.4971C27.3658 26.386 23.1921 31.9751 18.1054 31.9751C13.0187 31.9751 8.84497 26.386 8.84497 19.4971C8.84497 12.6081 12.8883 7.01904 18.1054 7.01904ZM24.2355 11.1784C23.0617 9.48865 21.4965 8.31883 19.6705 7.79892C19.9314 8.05888 19.9314 8.5788 19.9314 8.5788L20.1922 13.518C20.4531 13.518 20.714 13.518 20.8444 13.518H22.2791L24.2355 11.1784ZM18.1054 7.66894C14.9751 7.66894 12.1057 10.0086 10.671 13.518H14.0621L14.323 13.1281C15.236 11.1784 15.8881 12.3482 15.8881 12.3482C15.8881 12.3482 16.149 12.0882 16.5402 11.8283C17.062 11.5683 17.4532 12.2182 17.4532 12.2182C17.4532 12.2182 17.5837 11.6983 18.3662 11.6983C18.4967 11.6983 18.888 8.96873 18.888 8.96873C18.888 8.96873 19.0184 7.9289 19.4097 7.66894C18.7575 7.66894 18.4967 7.66894 18.1054 7.66894ZM10.2797 14.1679C10.0188 14.9478 9.75798 15.7277 9.62755 16.5075L11.584 17.2874C12.1057 17.2874 12.3665 16.5075 12.3665 16.5075L12.6274 15.9876C11.4535 15.7277 10.671 14.9478 10.2797 14.1679ZM12.7578 24.8262C12.8882 22.8765 14.1925 21.1868 16.0185 20.5369H9.49711C9.62754 22.3566 10.0188 23.9163 10.5405 25.4761H12.7578C12.7578 25.2161 12.7578 25.0862 12.7578 24.8262ZM18.1054 19.627C17.975 19.757 17.975 19.887 17.975 20.017L17.7141 20.5369H17.4532L17.1924 19.4971H15.8881C15.8881 19.3671 16.149 18.9771 16.4098 18.7172L16.6707 18.8472H16.8011C16.8011 18.7172 16.8011 18.7172 16.8011 18.7172L16.6707 18.5872C16.6707 18.5872 16.149 18.3272 15.6272 17.5474C15.236 16.7675 14.9751 16.2476 14.9751 16.2476C14.9751 16.2476 13.2795 16.3776 11.9753 15.4677H13.0187C13.1491 15.4677 13.1491 15.4677 13.1491 15.3377C13.1491 15.2077 13.1491 15.2077 13.0187 15.2077H11.584C11.4535 15.0778 11.3231 14.9478 11.0623 14.6878H13.41C13.41 14.6878 13.5404 14.6878 13.5404 14.5578C13.5404 14.4279 13.5404 14.4279 13.41 14.4279H10.9318C10.8014 14.2979 10.671 14.0379 10.671 13.9079H15.4968C15.4968 13.9079 16.2794 13.9079 16.8011 14.1679C17.3228 14.5578 17.5837 15.0778 17.5837 15.0778L18.2358 16.2476L18.888 15.0778C18.888 15.0778 19.1488 14.5578 19.6705 14.1679C20.1922 13.9079 20.9748 13.9079 20.9748 13.9079H25.8007C25.6702 14.0379 25.6702 14.2979 25.5398 14.4279H23.0617C22.9312 14.4279 22.9312 14.4279 22.9312 14.5578C22.9312 14.6878 22.9312 14.6878 23.0617 14.6878H25.4094C25.2789 14.8178 25.1485 14.9478 24.8877 15.0778H23.4529C23.4529 15.0778 23.3225 15.0778 23.3225 15.2077C23.3225 15.3377 23.3225 15.3377 23.4529 15.3377H24.2355C22.8008 16.2476 21.1052 16.1176 21.1052 16.1176L20.9748 16.3776L22.9312 16.6375C23.0617 16.6375 23.1921 17.0274 23.1921 17.0274C23.1921 17.0274 23.4529 17.0274 23.5834 17.1574C23.7138 17.2874 23.7138 17.6773 23.7138 17.6773C23.7138 17.6773 22.8008 17.5474 21.6269 17.8073C20.5835 18.0673 20.0618 18.1973 19.801 18.3272C18.6271 18.7172 18.2358 19.2371 18.1054 19.627ZM18.6271 20.5369L18.888 19.4971H20.1922C20.1922 19.3671 19.801 18.8472 19.6705 18.5872C18.4967 19.1071 18.2358 19.757 18.2358 19.887L18.4967 20.4069H18.6271V20.5369ZM23.3225 25.3461H25.5398C26.1919 23.9163 26.5832 22.2266 26.7137 20.4069H20.0618C22.0182 21.3168 23.4529 23.2665 23.3225 25.3461Z" fill="white"/>
<path fill-rule="evenodd" clip-rule="evenodd" d="M18.4967 20.407C15.7577 20.1471 13.2795 22.0968 13.0187 24.8263C12.7578 27.5559 14.7142 30.0255 17.4532 30.2854C20.1922 30.5454 22.6704 28.5957 22.9312 25.8662C23.3225 23.1366 21.3661 20.797 18.4967 20.407Z" fill="#231F20"/>
<path fill-rule="evenodd" clip-rule="evenodd" d="M20.5833 23.6567C20.0616 22.8769 19.1486 22.3569 17.9748 22.3569C16.2792 22.3569 14.8445 23.7867 14.8445 25.4764C14.8445 25.8664 14.8445 26.1263 14.9749 26.5163C16.0183 25.0865 17.453 24.4366 18.4965 24.0467C19.5399 23.6567 20.3225 23.6567 20.5833 23.6567ZM21.105 25.0865C21.105 25.2165 21.105 25.2165 21.105 25.3465C21.105 27.0362 19.6703 28.466 17.9748 28.466C17.1922 28.466 16.54 28.206 16.0183 27.6861C17.8443 25.4764 20.3225 25.2165 21.105 25.0865Z" fill="white"/>
<path fill-rule="evenodd" clip-rule="evenodd" d="M18.6271 24.0467L18.1054 23.6567L17.5837 24.0467L17.7141 23.3968L17.1924 22.8769H17.8445L18.1054 22.3569L18.2358 22.8769H19.0184L18.3662 23.3968L18.6271 24.0467Z" fill="#231F20"/>
<path fill-rule="evenodd" clip-rule="evenodd" d="M15.8882 26.646C15.8882 26.776 15.8882 26.776 15.8882 26.646C16.0186 26.776 16.0186 26.776 16.0186 26.906V27.0359C16.0186 27.0359 16.0186 27.1659 15.8882 27.1659L15.7577 27.0359C15.7577 27.0359 15.7577 27.0359 15.6273 27.0359C15.6273 27.0359 15.6273 27.0359 15.4969 27.0359L15.3665 26.906V26.776C15.3665 26.776 15.3665 26.776 15.4969 26.776C15.4969 26.776 15.4969 26.776 15.6273 26.776C15.6273 26.646 15.6273 26.646 15.8882 26.646C15.7577 26.646 15.7577 26.646 15.8882 26.646ZM15.7577 26.776C15.6273 26.776 15.6273 26.776 15.7577 26.776C15.6273 26.776 15.6273 26.776 15.7577 26.776C15.6273 26.776 15.6273 26.776 15.6273 26.776C15.6273 26.906 15.6273 26.906 15.7577 26.776C15.6273 26.906 15.6273 26.906 15.7577 26.776C15.6273 26.906 15.6273 26.906 15.7577 26.776C15.6273 26.906 15.7577 26.906 15.7577 26.776Z" fill="white"/>
<path fill-rule="evenodd" clip-rule="evenodd" d="M16.6707 26.2561H16.4098V26.516V26.646L16.2794 26.776L16.0186 26.1261L16.149 25.9961L16.6707 26.2561ZM16.4098 26.2561L16.149 26.1261L16.4098 26.2561Z" fill="white"/>
<path fill-rule="evenodd" clip-rule="evenodd" d="M17.0618 25.8664C17.0618 25.9964 17.0618 25.9964 17.0618 25.9964C17.0618 25.9964 17.0618 25.9964 17.0618 26.1264L16.801 26.2563L16.4097 25.7364L16.5401 25.6064C16.5401 25.6064 16.5401 25.6064 16.6705 25.6064C16.6705 25.6064 16.6705 25.6064 16.6705 25.7364C16.6705 25.7364 16.6705 25.7364 16.6705 25.8664C16.9314 25.7364 16.9314 25.7364 17.0618 25.8664C17.0618 25.7364 17.0618 25.7364 17.0618 25.8664ZM16.801 25.7364C16.6705 25.7364 16.6705 25.7364 16.801 25.7364C16.6705 25.7364 16.6705 25.7364 16.6705 25.7364V25.8664L16.801 25.7364C16.6705 25.8664 16.801 25.8664 16.801 25.7364ZM16.9314 25.8664C16.9314 25.8664 16.801 25.8664 16.9314 25.8664C16.801 25.8664 16.801 25.8664 16.801 25.8664L16.9314 25.9964C16.9314 25.9964 16.9314 25.9964 16.9314 25.8664C16.9314 25.9964 16.9314 25.9964 16.9314 25.8664C16.9314 25.9964 16.9314 25.9964 16.9314 25.8664Z" fill="white"/>
<path fill-rule="evenodd" clip-rule="evenodd" d="M17.3227 25.3458C17.1922 25.3458 17.1922 25.3458 17.3227 25.3458C17.1922 25.3458 17.1922 25.3458 17.1922 25.3458L17.3227 25.4758V25.3458C17.3227 25.4758 17.3227 25.4758 17.3227 25.3458C17.3227 25.4758 17.3227 25.4758 17.3227 25.3458C17.3227 25.4758 17.3227 25.4758 17.3227 25.3458C17.3227 25.4758 17.3227 25.3458 17.3227 25.3458ZM17.714 25.6058L17.5835 25.7357L17.3227 25.6058L17.4531 25.7357L17.3227 25.8657L16.9314 25.3458L17.1922 25.2158C17.1922 25.2158 17.1922 25.2158 17.3227 25.2158C17.3227 25.2158 17.3227 25.2158 17.4531 25.2158C17.4531 25.2158 17.4531 25.2158 17.4531 25.3458C17.4531 25.3458 17.4531 25.3458 17.4531 25.4758L17.714 25.6058Z" fill="white"/>
<path fill-rule="evenodd" clip-rule="evenodd" d="M18.1053 25.4765L17.714 25.6064V25.4765H17.8444L17.5836 25.0865V25.2165L17.4531 25.0865L17.8444 24.9565L17.714 25.0865L17.9748 25.3465L18.1053 25.4765Z" fill="white"/>
<path fill-rule="evenodd" clip-rule="evenodd" d="M18.6272 25.2161L18.236 25.3461L17.9751 24.8262H18.1055L18.236 25.2161L18.4968 25.0861L18.6272 25.2161Z" fill="white"/>
<path fill-rule="evenodd" clip-rule="evenodd" d="M19.279 24.9559L18.8878 25.0858V24.9559H19.0182L18.8878 24.6959H18.7573V24.5659H18.8878L19.0182 25.0858L19.279 24.9559Z" fill="white"/>
<path fill-rule="evenodd" clip-rule="evenodd" d="M19.801 24.696C19.801 24.826 19.6706 24.956 19.6706 24.956H19.5402C19.5402 24.956 19.5402 24.956 19.4097 24.956C19.4097 24.956 19.4097 24.956 19.4097 24.826C19.4097 24.826 19.4097 24.826 19.4097 24.696C19.4097 24.696 19.4097 24.696 19.2793 24.696V24.566C19.2793 24.566 19.4097 24.566 19.4097 24.436H19.5402C19.5402 24.436 19.6706 24.436 19.6706 24.566C19.6706 24.566 19.6706 24.566 19.6706 24.696C19.6706 24.566 19.6706 24.566 19.801 24.696C19.801 24.566 19.801 24.696 19.801 24.696ZM19.5402 24.436C19.4097 24.436 19.4097 24.436 19.4097 24.436C19.4097 24.566 19.5402 24.566 19.5402 24.436C19.5402 24.566 19.5402 24.566 19.5402 24.436C19.5402 24.566 19.5402 24.566 19.5402 24.436C19.5402 24.566 19.5402 24.436 19.5402 24.436ZM19.6706 24.696C19.5402 24.696 19.5402 24.696 19.6706 24.696C19.5402 24.566 19.5402 24.566 19.5402 24.566C19.5402 24.826 19.5402 24.826 19.6706 24.696C19.5402 24.826 19.6706 24.826 19.6706 24.696C19.6706 24.826 19.6706 24.826 19.6706 24.696Z" fill="white"/>
<path fill-rule="evenodd" clip-rule="evenodd" d="M20.3227 24.4361V24.566V24.696C20.3227 24.696 20.3227 24.826 20.1923 24.826H20.0618V24.696C20.0618 24.696 20.0618 24.696 19.9314 24.696C19.9314 24.696 19.9314 24.696 19.9314 24.566V24.4361L20.0618 24.3061H20.1923C20.1923 24.3061 20.1923 24.3061 20.3227 24.3061C20.3227 24.1761 20.3227 24.1761 20.3227 24.4361C20.3227 24.3061 20.3227 24.3061 20.3227 24.4361ZM20.1923 24.4361C20.1923 24.4361 20.1923 24.3061 20.1923 24.4361C20.1923 24.3061 20.1923 24.3061 20.1923 24.4361C20.0618 24.3061 20.0618 24.3061 20.1923 24.4361L20.0618 24.3061C20.0618 24.4361 20.0618 24.4361 20.1923 24.4361C20.0618 24.4361 20.0618 24.4361 20.1923 24.4361Z" fill="white"/>
<path fill-rule="evenodd" clip-rule="evenodd" d="M20.9746 24.6963H20.4529V24.5663C20.4529 24.5663 20.4529 24.5663 20.5833 24.4363C20.5833 24.4363 20.5833 24.4363 20.5833 24.3063C20.5833 24.3063 20.5833 24.3063 20.5833 24.1764C20.5833 24.1764 20.5833 24.1764 20.4529 24.1764V24.0464C20.4529 24.0464 20.4529 24.0464 20.5833 24.0464C20.5833 24.0464 20.5833 24.0464 20.7137 24.0464H20.8442V24.1764V24.3063C20.8442 24.3063 20.8442 24.3063 20.8442 24.4363C20.8442 24.4363 20.8442 24.4363 20.7137 24.4363L20.9746 24.6963Z" fill="white"/>
<path fill-rule="evenodd" clip-rule="evenodd" d="M16.2794 29.1156C16.2794 29.2456 16.2794 29.2456 16.2794 29.1156C16.2794 29.2456 16.2794 29.2456 16.2794 29.1156C16.2794 29.2456 16.2794 29.2456 16.2794 29.1156C16.2794 29.2456 16.4098 29.2456 16.4098 29.2456H16.5403L16.6707 29.1156C16.4098 29.1156 16.4098 29.1156 16.2794 29.1156C16.4098 29.1156 16.2794 29.1156 16.2794 29.1156ZM16.149 28.5957L16.4098 28.7257V29.1156H16.5403L16.6707 28.8557L16.8011 28.9856L16.5403 29.7655L16.2794 29.5056H16.149C16.149 29.5056 16.149 29.5056 16.0186 29.5056C16.0186 29.5056 16.0186 29.5056 16.0186 29.3756C16.0186 29.3756 16.0186 29.3756 16.0186 29.2456C16.0186 29.2456 16.0186 29.1156 16.149 29.1156H16.2794L16.149 28.5957Z" fill="white"/>
<path fill-rule="evenodd" clip-rule="evenodd" d="M15.6269 28.0757L16.0182 28.4656L15.6269 29.1155L15.1052 28.7256L15.2357 28.5956L15.4965 28.8556L15.6269 28.7256L15.3661 28.4656V28.3356L15.6269 28.5956L15.7574 28.4656L15.4965 28.2057L15.6269 28.0757Z" fill="white"/>
<path fill-rule="evenodd" clip-rule="evenodd" d="M15.2361 27.6857C15.2361 27.6857 15.2361 27.8157 15.3665 27.8157V27.9457V28.0757C15.3665 28.0757 15.3665 28.2057 15.2361 28.2057C15.2361 28.2057 15.1056 28.2057 15.1056 28.3356H14.9752H14.8448C14.8448 28.3356 14.7144 28.3356 14.7144 28.2057C14.7144 28.2057 14.7144 28.2057 14.7144 28.0757L14.8448 27.9457C14.8448 27.9457 14.8448 27.9457 14.9752 27.9457C14.9752 27.9457 14.9752 27.9457 15.1056 27.9457H15.2361C15.2361 27.9457 15.3665 27.9457 15.3665 27.8157C15.3665 27.8157 15.3665 27.8157 15.3665 27.6857C15.3665 27.6857 15.3665 27.6857 15.3665 27.5558C15.3665 27.5558 15.3665 27.5558 15.2361 27.5558L15.3665 27.4258C15.1056 27.5558 15.1056 27.5558 15.2361 27.6857C15.1056 27.5558 15.1056 27.5558 15.2361 27.6857C15.2361 27.5558 15.2361 27.5558 15.2361 27.6857Z" fill="white"/>
<path fill-rule="evenodd" clip-rule="evenodd" d="M14.0621 26.9062L14.1925 27.1662L14.7142 26.9062L14.8446 27.0362L14.3229 27.4262V27.5561L14.1925 27.6861L13.9316 27.0362L14.0621 26.9062Z" fill="white"/>
<path fill-rule="evenodd" clip-rule="evenodd" d="M14.4535 25.9961L14.5839 26.516L13.8013 26.646L13.6709 26.1261H13.8013L13.9318 26.516L14.0622 26.386L13.9318 26.1261L14.0622 25.9961L14.1926 26.386H14.4535L14.323 25.9961H14.4535Z" fill="white"/>
<path fill-rule="evenodd" clip-rule="evenodd" d="M14.1923 23.7867C14.0619 23.7867 14.0619 23.7867 14.1923 23.7867C14.0619 23.9167 14.0619 23.9167 14.1923 23.7867C14.0619 23.7867 14.0619 23.9167 14.0619 23.9167V24.0467H14.1923C14.1923 24.0467 14.1923 24.0467 14.1923 23.7867C14.3227 23.9167 14.3227 23.9167 14.1923 23.7867C14.1923 23.9167 14.1923 23.9167 14.1923 23.7867ZM14.8445 23.7867L14.714 24.0467L14.3227 24.1767V24.3066L14.5836 24.4366L14.4532 24.5666L13.801 24.1767L13.9315 23.9167V23.7867C13.9315 23.7867 13.9315 23.7867 13.9315 23.6567C13.9315 23.6567 13.9314 23.6567 14.0619 23.6567H14.1923C14.1923 23.6567 14.3227 23.6567 14.3227 23.7867V23.9167L14.8445 23.7867Z" fill="white"/>
<path fill-rule="evenodd" clip-rule="evenodd" d="M15.2358 23.1365L14.8445 23.6564L14.1924 23.1365L14.5837 22.7466H14.7141L14.4532 23.1365H14.5837L14.7141 22.8766L14.8445 23.0065L14.7141 23.2665L14.8445 23.3965L15.1054 23.0065L15.2358 23.1365Z" fill="white"/>
<path fill-rule="evenodd" clip-rule="evenodd" d="M16.0183 22.3563L15.8879 22.4863L15.4966 22.0964L15.6271 22.4863L15.4966 22.6163L15.2358 22.3563L15.4966 22.7463L15.3662 22.8763L14.8445 22.3563L14.9749 22.2264L15.4966 22.3563L15.3662 21.9664L15.4966 21.8364L16.0183 22.3563Z" fill="white"/>
<path fill-rule="evenodd" clip-rule="evenodd" d="M16.5401 21.4469C16.5401 21.5769 16.5401 21.5769 16.5401 21.4469C16.5401 21.5769 16.5401 21.5769 16.5401 21.7069C16.5401 21.7069 16.5401 21.7069 16.5401 21.8369C16.5401 21.8369 16.5401 21.8369 16.4097 21.9668H16.2792L16.4097 22.2268L16.2792 22.3568L15.8879 21.5769L16.1488 21.4469H16.2792H16.4097C16.4097 21.3169 16.4097 21.4469 16.5401 21.4469ZM16.4097 21.5769C16.2792 21.5769 16.2792 21.5769 16.4097 21.5769C16.2792 21.5769 16.2792 21.5769 16.2792 21.5769L16.4097 21.8369C16.4097 21.7069 16.4097 21.7069 16.4097 21.5769C16.4097 21.7069 16.4097 21.7069 16.4097 21.5769C16.4097 21.7069 16.4097 21.5769 16.4097 21.5769Z" fill="white"/>
<path fill-rule="evenodd" clip-rule="evenodd" d="M17.5836 21.4471C17.5836 21.577 17.5836 21.577 17.5836 21.707C17.5836 21.707 17.4532 21.837 17.3227 21.837C17.1923 21.837 17.1923 21.837 17.0619 21.837C17.0619 21.837 16.9315 21.707 16.9315 21.577L16.801 21.0571H16.9315L17.0619 21.577V21.707C17.0619 21.707 17.0619 21.707 17.1923 21.707H17.3227V21.577L17.1923 21.0571H17.3227L17.5836 21.4471Z" fill="white"/>
<path fill-rule="evenodd" clip-rule="evenodd" d="M18.6271 21.5767C18.6271 21.7066 18.6271 21.7066 18.4966 21.7066C18.4966 21.7066 18.4966 21.7066 18.3662 21.7066H18.2358H17.8445V20.9268H18.1053H18.2358C18.2358 20.9268 18.2358 20.9268 18.3662 20.9268C18.3662 20.9268 18.3662 20.9268 18.3662 21.0567C18.3662 21.0567 18.3662 21.0567 18.3662 21.1867C18.3662 21.1867 18.3662 21.1867 18.2358 21.1867C18.4966 21.3167 18.4966 21.4467 18.6271 21.5767C18.6271 21.4467 18.6271 21.4467 18.6271 21.5767ZM18.3662 21.1867C18.3662 21.1867 18.2358 21.1867 18.3662 21.1867C18.2358 21.1867 18.2358 21.1867 18.2358 21.0567V21.1867C18.2358 21.3167 18.2358 21.3167 18.3662 21.1867C18.2358 21.3167 18.3662 21.3167 18.3662 21.1867C18.3662 21.3167 18.3662 21.3167 18.3662 21.1867ZM18.3662 21.5767C18.3662 21.5767 18.3662 21.4467 18.3662 21.5767C18.3662 21.4467 18.3662 21.4467 18.3662 21.5767C18.3662 21.4467 18.3662 21.4467 18.3662 21.5767C18.2358 21.4467 18.2358 21.4467 18.1053 21.4467V21.5767C18.2358 21.5767 18.2358 21.5767 18.3662 21.5767Z" fill="white"/>
<path fill-rule="evenodd" clip-rule="evenodd" d="M19.4095 21.967L18.7573 21.837L19.0182 21.0571L19.279 21.1871L19.0182 21.707L19.4095 21.837V21.967Z" fill="white"/>
<path fill-rule="evenodd" clip-rule="evenodd" d="M19.9313 22.3562L19.54 22.0963V21.9663H19.6705L19.9313 21.5764L19.8009 21.4464L19.9313 21.3164L20.3226 21.5764L20.1922 21.7063L19.9313 22.0963L20.0618 22.2263L19.9313 22.3562Z" fill="white"/>
<path fill-rule="evenodd" clip-rule="evenodd" d="M20.4529 22.6162C20.3225 22.6162 20.3225 22.4862 20.4529 22.6162C20.3225 22.4862 20.3225 22.3562 20.3225 22.3562V22.2263C20.3225 22.2263 20.3225 22.0963 20.4529 22.0963L20.5834 21.9663H20.7138H20.8442C20.8442 21.9663 20.9747 21.9663 20.9747 22.0963L20.8442 22.2263C20.8442 22.2263 20.8442 22.2263 20.7138 22.2263C20.7138 22.2263 20.7138 22.2263 20.5834 22.2263C20.5834 22.2263 20.5834 22.2263 20.4529 22.3562V22.4862C20.4529 22.4862 20.4529 22.4862 20.4529 22.6162C20.4529 22.4862 20.4529 22.4862 20.4529 22.6162C20.5834 22.4862 20.5834 22.4862 20.5834 22.6162C20.5834 22.6162 20.5834 22.6162 20.7138 22.6162L20.5834 22.7462C20.5834 22.7462 20.4529 22.7462 20.4529 22.6162Z" fill="white"/>
<path fill-rule="evenodd" clip-rule="evenodd" d="M21.2356 23.5261L21.1051 23.3961L21.2356 23.2661L20.9747 23.0061H20.8443L20.7139 22.8762L21.4964 22.6162L21.6269 22.7462L21.2356 23.5261ZM21.2356 23.0061L21.366 22.7462L21.1051 22.8762L21.2356 23.0061Z" fill="white"/>
<path fill-rule="evenodd" clip-rule="evenodd" d="M21.6268 24.4363L21.4964 24.3063L22.0181 24.0464H21.6268V23.9164L21.8877 23.6564L21.366 23.7864V23.6564L22.0181 23.3965L22.1485 23.6564L21.8877 23.9164H22.279L22.4094 24.1764L21.6268 24.4363Z" fill="white"/>
<path fill-rule="evenodd" clip-rule="evenodd" d="M21.627 26.6459V26.5159V26.3859C21.627 26.256 21.7574 26.126 21.7574 26.126C21.8879 26.126 21.8879 26.126 22.0183 26.126C22.1487 26.126 22.2791 26.256 22.2791 26.256C22.2791 26.3859 22.4096 26.5159 22.2791 26.6459V26.7759C22.2791 26.7759 22.2792 26.9059 22.1487 26.9059H22.0183C22.0183 26.9059 22.0183 26.9059 22.0183 26.7759C22.0183 26.7759 22.0183 26.7759 22.0183 26.6459C22.0183 26.6459 22.0183 26.6459 22.0183 26.5159C22.0183 26.5159 22.0183 26.5159 21.8879 26.5159C21.7574 26.5159 21.7574 26.5159 21.627 26.5159L21.4966 26.6459H21.627V26.5159H21.7574L21.627 26.9059V26.6459Z" fill="white"/>
<path fill-rule="evenodd" clip-rule="evenodd" d="M21.2356 27.2958L21.4965 26.7759L22.1486 27.1658L21.8877 27.6857H21.7573L22.0182 27.2958L21.8877 27.1658L21.6269 27.5558L21.4965 27.4258L21.6269 27.1658L21.4965 27.0358L21.366 27.4258L21.2356 27.2958Z" fill="white"/>
<path fill-rule="evenodd" clip-rule="evenodd" d="M21.2356 28.2055C21.3661 28.2055 21.3661 28.2055 21.3661 28.2055L21.2356 28.0755C21.2356 28.0755 21.2356 28.0755 21.2356 28.2055C21.2356 28.0755 21.2356 28.0755 21.2356 28.2055C21.1052 28.2055 21.2356 28.2055 21.2356 28.2055ZM20.5835 28.0755L20.7139 27.9455H21.1052L20.8444 27.8155L20.9748 27.6855L21.6269 28.2055L21.3661 28.4654C21.3661 28.4654 21.3661 28.4654 21.2356 28.5954C21.2356 28.5954 21.2356 28.5954 21.1052 28.5954C21.1052 28.5954 21.1052 28.5954 20.9748 28.5954C20.9748 28.5954 20.9748 28.5954 20.8444 28.5954L20.7139 28.4654V28.3354L20.5835 28.0755Z" fill="white"/>
<path fill-rule="evenodd" clip-rule="evenodd" d="M19.9314 28.596L20.4531 28.2061L20.9748 28.856L20.4531 29.1159H20.3227L20.714 28.856L20.5835 28.726L20.3227 28.9859L20.1923 28.856L20.4531 28.596V28.466L20.0618 28.726L19.9314 28.596Z" fill="white"/>
<path fill-rule="evenodd" clip-rule="evenodd" d="M19.5398 29.3755C19.6702 29.3755 19.6702 29.3755 19.5398 29.3755C19.6702 29.3755 19.6702 29.3755 19.5398 29.3755C19.6702 29.3755 19.6702 29.3755 19.6702 29.3755L19.5398 29.2455C19.6702 29.2455 19.6702 29.2455 19.5398 29.3755C19.5398 29.2455 19.5398 29.2455 19.5398 29.3755C19.5398 29.2455 19.5398 29.2455 19.5398 29.3755ZM19.0181 28.9855L19.2789 28.8556L19.5398 28.9855H19.6702L19.5398 28.7256H19.6702L19.9311 29.5055H19.8006H19.6702C19.6702 29.5055 19.6702 29.5055 19.5398 29.5055C19.5398 29.5055 19.5398 29.5055 19.4094 29.5055C19.4094 29.5055 19.4094 29.5055 19.4094 29.3755V29.2455C19.4094 29.2455 19.4094 29.1155 19.5398 29.1155L19.0181 28.9855Z" fill="white"/>
<path fill-rule="evenodd" clip-rule="evenodd" d="M18.366 28.9854H18.8877L19.0181 29.7652H18.4964V29.6352H18.7573V29.5053H18.4964V29.3753H18.7573V29.1153L18.366 29.2453V28.9854Z" fill="white"/>
<path fill-rule="evenodd" clip-rule="evenodd" d="M29.9743 22.3565V22.2265C29.9743 21.8366 29.9743 21.4466 29.7134 21.1867C29.8438 21.1867 29.9743 21.0567 29.9743 20.7967C29.9743 20.6667 29.9743 20.5368 29.8438 20.5368C29.8438 20.5368 29.8438 20.5368 29.9743 20.4068C29.9743 20.5368 30.1047 20.5368 30.2351 20.5368C30.496 20.5368 30.6264 20.4068 30.6264 20.1468C30.6264 19.8869 30.496 19.7569 30.2351 19.7569C30.1047 19.7569 29.9743 19.7569 29.9743 19.8869C29.9743 19.8869 29.9743 19.8869 29.8438 19.7569C29.9743 19.7569 29.9743 19.6269 29.9743 19.4969C29.9743 19.367 29.8438 19.107 29.7134 19.107C30.1047 19.107 30.496 18.847 30.7568 18.4571C31.0177 18.0672 31.1481 17.6772 31.1481 17.1573C30.7568 17.1573 30.3656 17.4173 29.9743 17.6772V17.5472C29.9743 17.1573 29.8438 16.7674 29.583 16.5074C29.7134 16.3774 29.8438 16.2475 29.7134 16.1175C29.7134 15.9875 29.583 15.8575 29.4526 15.8575C29.4526 15.8575 29.4526 15.8575 29.4526 15.7275C29.583 15.8575 29.7134 15.8575 29.8438 15.8575C30.1047 15.8575 30.2351 15.5976 30.1047 15.4676C30.1047 15.2076 29.8438 15.0776 29.7134 15.2076C29.583 15.2076 29.4526 15.3376 29.4526 15.4676C29.4526 15.4676 29.4526 15.4676 29.3221 15.4676C29.4526 15.3376 29.4526 15.2076 29.4526 15.0776C29.4526 14.9477 29.3221 14.8177 29.0613 14.8177C29.4526 14.6877 29.7134 14.4277 29.9743 14.0378C30.2351 13.6479 30.2351 13.1279 30.1047 12.738C29.7134 12.868 29.3221 13.128 29.0613 13.5179V13.3879C28.9308 12.998 28.67 12.608 28.2787 12.4781C28.4091 12.3481 28.4091 12.2181 28.4091 12.0881C28.4091 11.9581 28.2787 11.9581 28.1483 11.8282V11.6982C28.2787 11.6982 28.4091 11.6982 28.5396 11.6982C28.67 11.5682 28.8004 11.4382 28.67 11.1783C28.5396 11.0483 28.4091 10.9183 28.1483 11.0483C28.0178 11.0483 28.0178 11.1783 27.8874 11.3082C27.8874 11.3082 27.8874 11.3082 27.757 11.3082C27.757 11.1783 27.757 11.0483 27.757 10.9183C27.6266 10.7883 27.4961 10.6583 27.2353 10.6583C27.6266 10.3984 27.8874 10.0084 27.8874 9.61851C28.0178 9.09859 27.8874 8.70866 27.6266 8.31872C27.2353 8.57868 26.9744 8.96861 26.844 9.35855C26.844 9.35855 26.844 9.22857 26.7136 9.22857C26.4527 8.83864 26.0614 8.70866 25.8006 8.57868C25.931 8.4487 25.8006 8.31871 25.8006 8.18874C25.6701 8.05876 25.5397 8.05876 25.4093 8.05876V7.92878C25.5397 7.92878 25.6701 7.92878 25.8006 7.7988C25.931 7.66882 25.931 7.40886 25.8006 7.27888C25.6701 7.14891 25.4093 7.14891 25.2789 7.27888C25.5397 7.14891 25.5397 7.27888 25.5397 7.40886H25.4093C25.4093 7.27888 25.4093 7.1489 25.2789 7.01892C25.1484 6.88895 25.018 6.88894 24.8876 6.88894C25.1484 6.62898 25.1484 6.23905 25.1484 5.71913C25.1484 5.19921 24.8876 4.80927 24.4963 4.54932C24.2354 4.80927 24.105 5.32919 24.105 5.71913L23.9746 5.58915C23.5833 5.32919 23.0616 5.19921 22.6703 5.19921C22.6703 5.58915 22.9311 6.10907 23.3224 6.36903L23.4529 6.49901C22.9311 6.49901 22.5399 6.75896 22.4094 7.1489C22.6703 7.40886 23.192 7.53884 23.7137 7.53884C24.105 7.53884 24.4963 7.27888 24.7571 7.01892C24.7571 7.1489 24.7571 7.27888 24.8876 7.40886C25.018 7.53884 25.1484 7.53884 25.2789 7.53884V7.66882C25.1484 7.66882 25.018 7.66882 24.8876 7.7988C24.7571 7.92878 24.7571 8.18874 24.8876 8.31872C25.018 8.4487 25.2789 8.4487 25.4093 8.31872C25.5397 8.18874 25.5397 8.05876 25.5397 7.92878H25.6701C25.6701 8.05876 25.6701 8.18874 25.8006 8.31872C25.931 8.4487 26.0614 8.44869 26.1918 8.44869C26.1918 8.83863 26.1918 9.22857 26.4527 9.48853L26.5831 9.61851C26.0614 9.48853 25.6701 9.61851 25.2789 9.87847C25.5397 10.2684 25.931 10.5284 26.3223 10.6583C26.7136 10.6583 27.1048 10.6583 27.4961 10.5284C27.3657 10.6583 27.3657 10.7883 27.3657 10.9183C27.3657 11.0483 27.4961 11.0483 27.6266 11.1783V11.3082C27.4961 11.3082 27.3657 11.1783 27.2353 11.3082C27.1048 11.4382 26.9744 11.5682 27.1048 11.8282C27.2353 11.9581 27.3657 12.0881 27.6266 11.9581C27.757 11.9581 27.757 11.8282 27.8874 11.6982H28.0178C28.0178 11.8282 27.8874 11.9581 28.0178 12.0881C28.0178 12.2181 28.2787 12.3481 28.4091 12.3481C28.2787 12.738 28.2787 13.128 28.4091 13.5179V13.6479C28.0178 13.5179 27.4961 13.3879 27.1048 13.5179C27.2353 13.9078 27.4961 14.2978 28.0178 14.5577C28.4091 14.6877 28.8004 14.8177 29.1917 14.6877C29.0613 14.8177 29.0613 14.9477 29.0613 15.0776C29.0613 15.2076 29.1917 15.3376 29.3221 15.3376C29.3221 15.3376 29.3221 15.3376 29.1917 15.4676C29.0613 15.3376 28.9308 15.3376 28.8004 15.3376C28.5396 15.3376 28.4091 15.5976 28.5396 15.7275C28.5396 15.9875 28.8004 16.1175 28.9308 15.9875C29.0613 15.9875 29.1917 15.8575 29.1917 15.7275C29.1917 15.7275 29.1917 15.7275 29.3221 15.8575C29.1917 15.9875 29.1917 16.1175 29.1917 16.2475C29.1917 16.3774 29.3221 16.5074 29.4526 16.5074C29.3221 16.7674 29.1917 17.1573 29.1917 17.5472V17.6772C28.8004 17.4173 28.4091 17.2873 28.0178 17.2873C28.0178 17.6772 28.2787 18.1971 28.67 18.4571C29.0613 18.7171 29.4526 18.847 29.7134 18.847C29.583 18.847 29.4526 18.977 29.4526 19.237C29.4526 19.367 29.4526 19.4969 29.583 19.4969C29.583 19.4969 29.583 19.4969 29.4526 19.6269C29.4526 19.4969 29.3221 19.4969 29.1917 19.4969C28.9308 19.4969 28.8004 19.6269 28.8004 19.8869C28.8004 20.0169 28.9308 20.2768 29.1917 20.2768C29.3221 20.2768 29.4526 20.2768 29.4526 20.1468C29.4526 20.1468 29.4526 20.1468 29.583 20.2768C29.4526 20.4068 29.4526 20.4068 29.4526 20.5368C29.4526 20.6667 29.583 20.7967 29.7134 20.9267C29.4526 21.1867 29.3221 21.5766 29.1917 21.9665V22.0965C28.9308 21.7066 28.4091 21.4466 28.0178 21.4466C27.8874 21.8366 28.0178 22.3565 28.2787 22.7464C28.5396 23.1364 28.9308 23.2663 29.3221 23.3963C29.1917 23.3963 29.0613 23.5263 28.9308 23.6563C28.9308 23.7863 28.9308 23.9162 29.0613 24.0462H28.9308C28.9308 23.9162 28.8004 23.9162 28.67 23.7862C28.5396 23.7862 28.2787 23.7863 28.1483 24.0462C28.1483 24.3062 28.1483 24.4361 28.4091 24.5661C28.5396 24.5661 28.67 24.5661 28.8004 24.4361C28.8004 24.4361 28.8004 24.5661 28.9308 24.5661C28.8004 24.5661 28.67 24.6961 28.67 24.8261C28.67 24.9561 28.67 25.086 28.8004 25.216C28.5396 25.346 28.1483 25.7359 28.0178 26.1259V26.2559C27.8874 25.8659 27.4961 25.476 27.1048 25.346C26.9744 25.7359 26.9744 26.2559 27.1048 26.6458C27.2353 27.0357 27.6266 27.2957 27.8874 27.5557C27.757 27.5557 27.6266 27.5556 27.4961 27.6856C27.4961 27.8156 27.4961 27.9456 27.4961 28.0756H27.3657C27.3657 27.9456 27.2353 27.8156 27.2353 27.8156C27.1048 27.6856 26.844 27.8156 26.7136 27.9456C26.5831 28.0756 26.7136 28.3355 26.844 28.4655C26.9744 28.4655 27.1048 28.4655 27.2353 28.4655V28.5955C27.1048 28.5955 26.9744 28.7255 26.9744 28.7255C26.9744 28.8554 26.9744 28.9854 26.9744 29.1154C26.5831 29.2454 26.3223 29.3754 26.0614 29.7653C26.0614 29.7653 26.0614 29.8953 25.931 29.8953C25.931 29.3754 25.6701 28.9854 25.2789 28.7255C25.018 29.1154 24.8876 29.5053 24.8876 30.0253C24.8876 30.4152 25.1484 30.8051 25.4093 31.0651C25.2789 30.9351 25.1484 31.0651 25.018 31.0651C24.8876 31.1951 24.8876 31.3251 24.8876 31.455H24.7571C24.7571 31.3251 24.7571 31.1951 24.6267 31.0651C24.4963 30.9351 24.2354 30.9351 24.105 31.0651C23.9746 31.1951 23.9746 31.455 24.105 31.585C24.2354 31.715 24.3658 31.715 24.3658 31.715V31.845C24.2354 31.845 24.105 31.845 23.9746 31.9749C23.8441 32.1049 23.8441 32.3649 23.9746 32.4949C24.105 32.6248 24.3658 32.6248 24.4963 32.4949C24.6267 32.3649 24.6267 32.2349 24.6267 32.1049H24.7571C24.7571 32.2349 24.7571 32.3649 24.8876 32.3649C25.018 32.4949 25.2789 32.4949 25.4093 32.3649C25.5397 32.2349 25.5397 31.9749 25.4093 31.845C25.1484 32.1049 25.018 32.1049 25.018 32.1049V31.9749C25.1484 31.9749 25.2789 31.9749 25.4093 31.845C25.5397 31.715 25.5397 31.455 25.4093 31.3251C25.6701 31.585 26.1919 31.715 26.5831 31.585C27.1048 31.585 27.4961 31.325 27.757 30.9351C27.3657 30.6752 26.9744 30.5452 26.4527 30.5452L26.5831 30.4152C26.844 30.1552 26.9744 29.7653 26.9744 29.3754C27.1048 29.3754 27.2353 29.3754 27.3657 29.2454C27.3657 29.1154 27.3657 28.9854 27.3657 28.8554H27.4961C27.4961 28.9854 27.6266 29.1154 27.6266 29.1154C27.757 29.2454 28.0178 29.1154 28.1483 28.9854C28.2787 28.8554 28.1483 28.5955 28.0178 28.4655C27.8874 28.4655 27.757 28.4655 27.6266 28.4655V28.3355C27.757 28.3355 27.8874 28.2055 27.8874 28.2055C28.0178 28.0756 27.8874 27.8156 27.757 27.6856C28.1483 27.8156 28.5396 27.8156 28.9308 27.6856C29.3221 27.5556 29.7134 27.1657 29.8438 26.7758C29.4526 26.6458 28.9308 26.6458 28.5396 26.7758C28.5396 26.7758 28.5396 26.6458 28.67 26.6458C28.8004 26.2559 28.8004 25.8659 28.67 25.476C28.8004 25.476 28.9308 25.346 29.0613 25.216C29.0613 25.086 29.0613 24.9561 29.0613 24.8261C29.0613 24.8261 29.0613 24.8261 29.1917 24.8261C29.1917 24.9561 29.3221 25.086 29.4526 25.086C29.7134 25.086 29.8438 25.086 29.9743 24.8261C29.9743 24.6961 29.9743 24.4361 29.7134 24.3062C29.583 24.3062 29.4526 24.3062 29.3221 24.4361V24.3062C29.4526 24.3062 29.583 24.1762 29.583 24.0462C29.583 23.9162 29.583 23.6563 29.3221 23.6563C29.7134 23.6563 30.2351 23.6563 30.496 23.2663C30.8873 23.0064 31.1481 22.6164 31.1481 22.0965C30.7568 21.9665 30.3656 22.0965 29.9743 22.3565Z" fill="white"/>
<path fill-rule="evenodd" clip-rule="evenodd" d="M13.2794 4.67969C13.2794 4.67969 13.149 4.67969 13.2794 4.67969L11.323 6.49939C11.5838 5.8495 11.9751 5.1996 11.9751 5.1996L10.0187 7.79919C9.23613 8.70904 8.58399 9.74888 7.93185 10.7887L8.58399 8.57907V8.44908L8.06228 8.18912H7.93185L6.36671 11.0487C6.36671 11.0487 6.36671 11.0487 6.36671 11.1787C6.36671 11.1787 6.36671 11.1787 6.49714 11.1787C6.49714 11.1787 7.671 9.87886 7.80142 9.6189C7.80142 9.87886 7.671 11.3086 7.671 11.5686C7.54057 11.6986 7.54056 11.9585 7.41014 12.2185C6.88842 13.3883 6.49714 14.6881 6.36671 15.9879V13.5183L5.71457 13.3883L4.67114 16.5078V16.6378C4.67114 16.6378 4.67114 16.6378 4.80157 16.6378C4.80157 16.6378 5.45371 15.078 5.58414 14.8181C5.71457 15.078 5.97543 16.6378 5.97543 16.8977C5.97543 17.6776 5.97543 18.5875 5.97543 19.4973C5.97543 20.0172 5.97543 20.5372 5.97543 20.9271L5.32328 18.5875H4.67114L4.80157 21.8369C4.80157 21.8369 5.06243 20.1472 5.19286 19.8873C5.32329 20.1472 5.97542 21.447 6.10585 21.707C6.23628 23.1367 6.62757 24.5665 7.14928 25.9963L5.97543 23.9166C5.97543 23.9166 5.97543 23.9166 5.845 23.9166L5.19286 24.1766C5.19286 24.1766 5.19286 24.1766 5.19286 24.3066L6.10585 27.4261C6.10585 27.4261 6.10585 27.4261 6.23628 27.4261C6.23628 27.4261 6.10585 25.7363 5.97543 25.3464C6.23628 25.6063 7.14928 26.6462 7.41014 26.9061C7.93185 28.2059 8.71442 29.5057 9.49699 30.5456L7.671 28.9858C7.671 28.9858 7.67099 28.9858 7.54056 28.9858L7.01886 29.3758C7.01886 29.3758 7.01886 29.3757 7.01886 29.5057L8.84484 32.1053C8.84484 32.1053 8.84485 32.1053 8.97528 32.1053C8.97528 32.1053 8.32313 30.5456 8.06228 30.1556C8.32313 30.2856 9.49699 30.9355 9.88828 31.1955C10.1491 31.4554 10.41 31.7154 10.6708 31.9753C10.8013 32.1053 11.0621 32.1053 11.1926 31.9753C11.323 31.8454 11.323 31.5854 11.1926 31.4554C10.9317 31.1955 10.6708 30.9355 10.41 30.5456C10.41 30.0256 10.2796 29.1158 10.2796 28.8558C10.5404 29.1158 11.5838 30.4156 11.5838 30.4156C11.5838 30.4156 11.5838 30.4156 11.7143 30.4156C11.7143 30.4156 11.7143 30.4156 11.7143 30.2856L10.0187 27.556L9.36656 27.816C9.36656 27.816 9.36656 27.816 9.36656 27.946L10.0187 30.1556C9.1057 29.1158 8.45356 27.816 7.93185 26.3862C8.06228 25.8663 8.19271 24.9565 8.32314 24.6965C8.45357 24.9565 9.23613 26.6462 9.23613 26.6462C9.23613 26.6462 9.23613 26.6462 9.23613 26.5162L8.45357 23.3967H7.80142V25.7363C7.27971 24.3066 7.01885 22.8768 6.75799 21.447C7.01885 21.0571 7.41013 20.1472 7.54056 19.8873C7.54056 20.1472 7.93185 21.9669 7.93185 21.9669C7.93185 21.9669 7.93185 21.9669 7.93185 21.8369V18.7174C7.93185 18.7174 7.93185 18.7174 7.93185 18.5875L7.27971 18.4575C7.27971 18.4575 7.27971 18.4575 7.14928 18.4575L6.49714 20.7971C6.49714 20.2772 6.49714 19.8873 6.49714 19.3673C6.49714 18.4575 6.62757 17.4177 6.75799 16.5078C7.01885 16.1179 7.80142 15.338 7.93185 15.078C7.93185 15.468 7.80142 17.1577 7.80142 17.1577L8.58399 14.0382L8.06228 13.9082C8.06228 13.9082 8.06228 13.9082 7.93185 13.9082L6.88842 15.9879C7.14928 14.4281 7.67099 12.9984 8.1927 11.5686C8.58399 11.3086 9.49699 10.7887 9.62742 10.6587C9.49699 10.9187 8.84484 12.6084 8.84484 12.6084C8.84484 12.6084 8.84485 12.6084 8.97528 12.6084L10.6708 9.87886C10.6708 9.87886 10.6708 9.87886 10.6708 9.74888L10.1491 9.35894C10.1491 9.35894 10.1491 9.35894 10.0187 9.35894L8.58399 11.1787C9.10571 10.1388 9.75785 9.09898 10.5404 8.18912L13.0186 6.10946C13.0186 6.10946 12.236 6.49939 11.7143 6.88933L13.2794 4.67969C13.2794 4.80967 13.2794 4.80967 13.2794 4.67969Z" fill="white"/>
<path fill-rule="evenodd" clip-rule="evenodd" d="M28.5394 34.5745C28.5394 34.5745 27.496 32.8848 27.2351 32.4948C26.1917 33.1447 25.0179 33.4047 23.844 33.4047C22.5397 33.4047 21.3659 33.0147 20.4529 32.4948C20.3224 32.7548 19.9312 33.2747 19.6703 33.6646L17.453 32.2349C17.453 32.2349 17.0617 32.8848 16.6704 33.5347C15.3662 32.8848 13.9315 32.4948 12.3663 32.4948C10.6707 32.4948 8.97518 33.0147 7.6709 33.7946C7.6709 33.7946 8.71432 35.3544 8.97518 35.8743C10.0186 35.2244 11.1925 34.9644 12.3663 34.9644C13.6706 34.9644 14.8445 35.3544 15.7575 35.8743C15.8879 35.7443 16.2792 35.0944 16.54 34.7045L18.7573 36.0043C18.8877 35.7443 19.279 35.2244 19.5399 34.8344C20.8442 35.4843 22.2789 35.8743 23.844 35.8743C25.5396 35.8743 27.2351 35.4843 28.5394 34.5745Z" fill="white"/>
<path fill-rule="evenodd" clip-rule="evenodd" d="M20.7139 33.6652C20.9747 33.7952 20.8443 33.9252 20.8443 34.0552C20.7139 34.3151 20.7138 34.3151 20.5834 34.3151H20.453L20.7139 33.6652ZM20.1921 34.3151L20.453 34.4451C20.7138 34.5751 20.8443 34.3151 20.9747 34.1851C21.1051 33.9252 21.1051 33.6652 20.8443 33.6652L20.5834 33.4053L20.1921 34.3151Z" fill="#231F20"/>
<path fill-rule="evenodd" clip-rule="evenodd" d="M21.4963 34.8348L21.6268 34.7048L21.2355 34.5748L21.3659 34.3148L21.6268 34.4448V34.3148L21.3659 34.1849L21.4963 33.9249L21.7572 34.0549L21.8876 33.9249L21.3659 33.7949L20.9746 34.7048L21.4963 34.8348Z" fill="#231F20"/>
<path fill-rule="evenodd" clip-rule="evenodd" d="M22.6704 34.0552L22.54 34.835C22.54 34.835 22.54 34.965 22.4095 34.835C22.2791 34.835 22.2791 34.7051 22.4095 34.7051H22.1487C22.1487 34.965 22.1487 35.095 22.4095 35.095C22.54 35.095 22.6704 35.095 22.6704 34.965L22.8008 34.1852L22.6704 34.0552Z" fill="#231F20"/>
<path fill-rule="evenodd" clip-rule="evenodd" d="M23.0616 35.0944V34.9644H23.3225V35.2244H23.5833L23.4529 34.1846H23.1921L22.8008 35.0944H23.0616ZM23.3225 34.8345H23.1921L23.3225 34.4445V34.8345Z" fill="#231F20"/>
<path fill-rule="evenodd" clip-rule="evenodd" d="M23.9745 35.2244V34.4445L24.2353 35.0944H24.4962V34.1846H24.3658V34.8345L24.1049 34.1846H23.7136L23.844 35.2244H23.9745Z" fill="#231F20"/>
<path fill-rule="evenodd" clip-rule="evenodd" d="M25.4093 34.965V34.835L25.018 34.965V34.7051L25.2789 34.5751V34.4451L24.8876 34.5751V34.3151L25.2789 34.1852L25.1484 34.0552L24.6267 34.1852L24.8876 35.095L25.4093 34.965Z" fill="#231F20"/>
<path fill-rule="evenodd" clip-rule="evenodd" d="M25.8007 34.965L25.5399 34.0552H25.4094L25.5399 34.965H25.8007Z" fill="#231F20"/>
<path fill-rule="evenodd" clip-rule="evenodd" d="M25.9308 34.0549C26.0613 34.0549 26.1917 34.0549 26.1917 34.0549V34.1849H26.0613L25.9308 34.0549ZM26.0613 34.4448C26.1917 34.4448 26.3221 34.4449 26.3221 34.5748V34.7048H26.4525L26.3221 34.4448C26.3221 34.3149 26.1917 34.3149 26.0613 34.3149C26.1917 34.3149 26.1917 34.1849 26.1917 34.0549C26.1917 33.9249 26.0613 33.795 25.9308 33.9249L25.5396 34.0549L25.8004 34.9648H25.9308L26.0613 34.4448Z" fill="#231F20"/>
<path fill-rule="evenodd" clip-rule="evenodd" d="M27.1047 34.4446C26.9743 34.4446 26.9743 34.4446 26.8438 34.1847C26.7134 33.9247 26.7134 33.7947 26.8438 33.7947C26.9743 33.7947 26.9743 33.7947 27.1047 34.0547C27.1047 34.1847 27.2351 34.3147 27.1047 34.4446ZM27.1047 34.5746C27.3655 34.4446 27.3656 34.1847 27.2351 33.9247C27.1047 33.6648 26.9743 33.5348 26.7134 33.6648C26.4526 33.7947 26.4526 34.0547 26.583 34.3147C26.7134 34.4446 26.8438 34.5746 27.1047 34.5746Z" fill="#231F20"/>
<path fill-rule="evenodd" clip-rule="evenodd" d="M17.5835 33.535C17.714 33.6649 17.714 33.6649 17.714 33.7949C17.714 33.7949 17.5835 33.9249 17.5835 33.7949V33.535ZM17.3227 33.9249C17.4531 34.0549 17.4531 34.0549 17.3227 34.1849C17.3227 34.1849 17.3227 34.3148 17.1922 34.3148L17.3227 34.4448L17.4531 34.1849C17.5835 34.0549 17.4531 33.9249 17.4531 33.9249C17.5835 33.9249 17.714 33.9249 17.714 33.7949C17.8444 33.6649 17.714 33.535 17.714 33.405L17.4531 33.145L16.9314 33.9249L17.0618 34.0549L17.3227 33.9249Z" fill="#231F20"/>
<path fill-rule="evenodd" clip-rule="evenodd" d="M17.8443 34.7044L18.366 33.7945L18.2356 33.6646L17.7139 34.5744L17.8443 34.7044Z" fill="#231F20"/>
<path fill-rule="evenodd" clip-rule="evenodd" d="M18.3661 34.8343C18.2357 34.8343 18.3661 34.7043 18.4965 34.4443C18.6269 34.1844 18.627 34.1844 18.7574 34.1844C18.8878 34.1844 18.7574 34.3144 18.6269 34.5743C18.4965 34.8343 18.4965 34.9643 18.3661 34.8343ZM18.3661 34.9643C18.6269 35.0942 18.7574 34.9643 18.8878 34.7043C19.0182 34.4443 19.1487 34.3144 18.8878 34.0544C18.627 33.9244 18.4965 34.0544 18.3661 34.3144C18.1052 34.5743 17.9748 34.8343 18.3661 34.9643Z" fill="#231F20"/>
<path fill-rule="evenodd" clip-rule="evenodd" d="M9.62736 34.7048L9.49692 34.5748L9.23607 34.7048L9.10564 34.4448L9.3665 34.3148V34.1849L9.10564 34.3148L8.97522 34.1849L9.23607 33.9249V33.7949L8.71436 34.0549L9.10564 34.9647L9.62736 34.7048Z" fill="#231F20"/>
<path fill-rule="evenodd" clip-rule="evenodd" d="M10.2796 34.1843C10.1492 33.9243 9.75793 34.0543 9.75793 33.9243C9.75793 33.9243 9.75793 33.7944 9.88836 33.7944C9.88836 33.7944 10.0188 33.7944 10.0188 33.9243H10.1492C10.1492 33.6644 10.0188 33.6644 9.75793 33.7944C9.49708 33.9243 9.49707 34.0543 9.49707 34.1843C9.6275 34.4443 10.0188 34.3143 10.0188 34.4443V34.5742C9.88836 34.5742 9.88836 34.5742 9.88836 34.4443L9.75793 34.5742C9.75793 34.7042 9.88836 34.8342 10.1492 34.7042C10.1492 34.5742 10.4101 34.4443 10.2796 34.1843Z" fill="#231F20"/>
<path fill-rule="evenodd" clip-rule="evenodd" d="M10.2795 33.5353V33.6652H10.5404L10.6708 34.4451H10.8012L10.6708 33.5353H10.9317V33.4053L10.2795 33.5353Z" fill="#231F20"/>
<path fill-rule="evenodd" clip-rule="evenodd" d="M11.3231 34.3151V34.0552H11.584L11.7144 34.3151H11.9753L11.584 33.4053H11.1927L11.0623 34.4451L11.3231 34.3151ZM11.4535 33.9252H11.3231V33.5353L11.4535 33.9252Z" fill="#231F20"/>
<path fill-rule="evenodd" clip-rule="evenodd" d="M12.236 33.405C12.4968 33.405 12.4968 33.535 12.4968 33.7949C12.4968 34.0549 12.4968 34.1849 12.3664 34.1849H12.236V33.405ZM11.9751 34.1849H12.236C12.6272 34.1849 12.6272 33.7949 12.6272 33.6649C12.6272 33.405 12.6272 33.145 12.3664 33.145H11.9751V34.1849Z" fill="#231F20"/>
<path fill-rule="evenodd" clip-rule="evenodd" d="M13.1489 34.1851C13.0185 34.1851 13.0185 34.0552 13.0185 33.7952C13.0185 33.5353 13.0185 33.4053 13.1489 33.4053C13.2793 33.4053 13.2793 33.5353 13.1489 33.7952C13.2793 34.0552 13.2793 34.1851 13.1489 34.1851ZM13.1489 34.3151C13.5402 34.3151 13.5402 34.0552 13.5402 33.9252C13.5402 33.6652 13.5402 33.4053 13.2793 33.4053C12.8881 33.4053 12.8881 33.5353 12.8881 33.7952C12.7576 34.0552 12.7576 34.3151 13.1489 34.3151Z" fill="#231F20"/>
<path fill-rule="evenodd" clip-rule="evenodd" d="M14.4535 33.6647C14.7144 33.6647 14.584 33.9246 14.584 34.0546C14.4535 34.3145 14.4535 34.3145 14.3231 34.3145H14.1927L14.4535 33.6647ZM14.0623 34.4445L14.3231 34.5745C14.7144 34.7045 14.7144 34.3145 14.7144 34.1846C14.8448 33.9246 14.8448 33.6647 14.584 33.6647L14.3231 33.5347L14.0623 34.4445Z" fill="#231F20"/>
<path fill-rule="evenodd" clip-rule="evenodd" d="M15.2358 34.7047C15.1054 34.7047 15.1054 34.5747 15.2358 34.3147C15.3663 34.0548 15.3663 34.0548 15.4967 34.0548C15.6271 34.0548 15.6271 34.1848 15.4967 34.4447C15.3663 34.5747 15.3663 34.7047 15.2358 34.7047ZM15.1054 34.8347C15.3663 34.9646 15.4967 34.7047 15.6271 34.4447C15.7576 34.1848 15.7576 33.9248 15.4967 33.7948C15.2358 33.6648 15.1054 33.9248 14.975 34.1848C14.975 34.4447 14.8446 34.7047 15.1054 34.8347Z" fill="#231F20"/>
<path fill-rule="evenodd" clip-rule="evenodd" d="M19.54 6.62868L18.1053 5.71882L16.6706 6.62868L17.1923 5.06892L15.7576 4.02909L17.5836 3.89911L18.1053 2.33936L18.627 3.89911L20.453 4.02909L19.0183 5.06892L19.54 6.62868Z" fill="white"/>
<rect width="38.0851" height="21.3166" fill="black" fill-opacity="0" transform="translate(36.887 12.4785)"/>
<path d="M47.4517 16.3782L48.756 12.7388H47.843L46.93 15.2084L46.017 12.7388H45.104L46.4083 16.3782H47.4517Z" fill="#231F20"/>
<path d="M62.0596 28.2061V33.4052H62.7117H63.6247V28.2061H62.7117H62.0596Z" fill="#231F20"/>
<path d="M44.3213 19.7573V24.9565H44.9734H46.0169V19.7573H44.9734H44.3213Z" fill="#231F20"/>
<path d="M43.017 16.3779C43.6691 16.3779 44.0604 16.2479 44.4517 15.858C44.843 15.468 44.9734 15.0781 44.9734 14.4282C44.9734 13.7783 44.843 13.3884 44.4517 12.9984C44.0604 12.6085 43.6691 12.4785 43.017 12.4785C42.3648 12.4785 41.9735 12.6085 41.5823 12.9984C41.191 13.3884 41.0605 13.7783 41.0605 14.4282C41.0605 14.9481 41.191 15.468 41.5823 15.858C41.9735 16.2479 42.3648 16.3779 43.017 16.3779ZM42.104 13.9083C42.104 13.7783 42.2344 13.6483 42.3648 13.5183C42.4953 13.3884 42.4953 13.3884 42.6257 13.2584C42.7561 13.2584 42.8865 13.2584 43.017 13.2584C43.1474 13.2584 43.2778 13.2584 43.4083 13.3884C43.5387 13.3884 43.6691 13.5183 43.6691 13.6483C43.7995 13.7783 43.7995 13.9083 43.93 14.0383C43.93 14.1682 44.0604 14.4282 44.0604 14.5582C44.0604 14.8181 44.0604 14.9481 43.93 15.0781C43.93 15.2081 43.7995 15.3381 43.6691 15.468C43.5387 15.598 43.5387 15.598 43.4083 15.728C43.2778 15.728 43.1474 15.858 43.017 15.858C42.8865 15.858 42.7561 15.858 42.6257 15.728C42.4953 15.728 42.3648 15.598 42.3648 15.468C42.2344 15.3381 42.2344 15.2081 42.104 15.0781C42.104 14.9481 41.9735 14.6882 41.9735 14.5582C42.104 14.2982 42.104 14.1682 42.104 13.9083Z" fill="#231F20"/>
<path d="M57.6251 13.7786L58.0164 14.2985L59.1902 16.3782H60.1032V12.7388H59.3207V14.8184L58.0164 12.7388H56.8425V16.3782H57.6251V13.7786Z" fill="#231F20"/>
<path d="M38.9739 16.3779C39.2347 16.3779 39.4956 16.3779 39.7565 16.2479C39.8869 16.2479 39.8869 16.2479 40.0173 16.2479C40.1477 16.2479 40.2782 16.1179 40.4086 16.1179V14.2982H39.8869H38.5826V14.9481H39.3652V15.728H39.2347H39.1043C38.713 15.728 38.3217 15.598 38.1913 15.468C37.9305 15.2081 37.9305 14.9481 37.9305 14.5582C37.9305 14.2982 37.9305 14.1682 38.0609 14.0383C38.0609 13.9083 38.1913 13.7783 38.3218 13.6483C38.4522 13.5183 38.5826 13.5183 38.713 13.3884C38.8435 13.3884 38.9739 13.2584 39.1043 13.2584C39.2347 13.2584 39.3652 13.2584 39.4956 13.2584C39.626 13.2584 39.7565 13.3884 39.8869 13.3884C39.8869 13.3884 40.0173 13.3884 40.0173 13.5183C40.0173 13.5183 40.1477 13.5183 40.1477 13.6483C40.2782 13.6483 40.2782 13.7783 40.4086 13.7783H40.539V12.8685C40.4086 12.7385 40.2782 12.7385 40.1477 12.7385C40.0173 12.7385 39.8869 12.7385 39.8869 12.6085C39.626 12.6085 39.4956 12.4785 39.2347 12.4785C38.5826 12.4785 38.0609 12.6085 37.8 12.9984C37.4088 13.3884 37.2783 13.7783 37.2783 14.4282C37.2783 15.0781 37.4088 15.468 37.8 15.858C37.8 16.2479 38.3218 16.3779 38.9739 16.3779Z" fill="#231F20"/>
<path d="M71.9721 16.2478C72.2329 16.3778 72.6242 16.5078 72.8851 16.5078C73.5372 16.5078 73.9285 16.3778 74.3198 15.9879C74.7111 15.5979 74.8415 15.208 74.8415 14.5581C74.8415 13.9082 74.7111 13.5183 74.3198 13.1283C73.9285 12.7384 73.5372 12.6084 72.8851 12.6084C72.4938 12.6084 72.2329 12.7384 71.9721 12.8684C71.8416 12.9983 71.7112 12.9983 71.5808 13.1283C71.1895 13.5183 71.0591 13.9082 71.0591 14.5581C71.0591 15.078 71.1895 15.5979 71.5808 15.9879C71.7112 15.9879 71.8416 16.1178 71.9721 16.2478ZM72.1025 13.9082C72.1025 13.7782 72.2329 13.6482 72.3634 13.5183C72.4938 13.3883 72.4938 13.3883 72.6242 13.2583C72.7546 13.2583 72.8851 13.2583 73.0155 13.2583C73.1459 13.2583 73.2764 13.2583 73.4068 13.3883C73.5372 13.3883 73.6676 13.5183 73.6676 13.6482C73.7981 13.7782 73.7981 13.9082 73.9285 14.0382C73.9285 14.1681 74.0589 14.4281 74.0589 14.5581C74.0589 14.818 74.0589 14.948 73.9285 15.078C73.9285 15.208 73.7981 15.338 73.6676 15.4679C73.5372 15.5979 73.5372 15.5979 73.4068 15.7279C73.2764 15.7279 73.1459 15.8579 73.0155 15.8579C72.8851 15.8579 72.7546 15.8579 72.6242 15.7279C72.4938 15.7279 72.3634 15.5979 72.3634 15.4679C72.2329 15.338 72.2329 15.208 72.1025 15.078C72.1025 14.948 71.9721 14.6881 71.9721 14.5581C72.1025 14.2981 72.1025 14.1681 72.1025 13.9082Z" fill="#231F20"/>
<path d="M55.5381 21.1872C55.4077 21.5771 55.4077 21.967 55.4077 22.357C55.4077 23.1369 55.5381 23.7868 55.9294 24.3067C56.3207 24.8266 56.8424 25.0865 57.4946 25.0865C57.7554 25.0865 57.8859 25.0866 58.1467 24.9566C58.2771 24.9566 58.2771 24.9566 58.4076 24.8266C58.6684 24.6966 58.9293 24.5666 59.1901 24.3067V24.8266H60.8857V17.6777H59.1901V19.8874C58.9293 19.7574 58.7989 19.7574 58.538 19.6274C58.4076 19.6274 58.2771 19.4974 58.1467 19.4974C58.0163 19.4974 57.8859 19.4974 57.8859 19.4974C57.625 19.4974 57.2337 19.4974 56.9729 19.6274C56.712 19.7574 56.4511 19.8874 56.1903 20.1473C55.799 20.5373 55.6686 20.7972 55.5381 21.1872ZM57.3641 21.1872C57.4946 20.9272 57.7554 20.7972 58.0163 20.7972C58.1467 20.7972 58.2771 20.7972 58.4076 20.7972C58.538 20.7972 58.6684 20.7972 58.7988 20.7972C58.9293 20.7972 59.0597 20.7972 59.1901 20.9272V23.5268C59.0597 23.6568 58.9293 23.6568 58.7988 23.7868C58.6684 23.7868 58.4076 23.9167 58.2771 23.9167H58.1467C57.8859 23.9167 57.625 23.7868 57.3641 23.5268C57.2337 23.2668 57.1033 22.8769 57.1033 22.357C56.9728 21.8371 57.1033 21.4471 57.3641 21.1872Z" fill="#231F20"/>
<path d="M73.0156 28.2061C72.7547 28.0762 72.3634 28.0762 72.1026 28.0762C71.1896 28.0762 70.5374 28.3361 70.0157 28.856C69.494 29.376 69.2332 30.0259 69.2332 30.9357C69.2332 31.8456 69.494 32.4955 70.0157 33.0154C70.5374 33.5353 71.1896 33.7953 72.1026 33.7953C72.4939 33.7953 72.7547 33.7953 73.0156 33.6653C73.4069 33.5353 73.7981 33.4053 74.1894 33.0154C74.7111 32.4955 74.972 31.8456 74.972 30.9357C74.972 30.0259 74.7111 29.376 74.1894 28.856C73.7981 28.4661 73.4069 28.3361 73.0156 28.2061ZM73.0156 31.5856C73.0156 31.7156 73.0156 31.7156 72.8852 31.8456C72.8852 31.9755 72.7547 31.9755 72.7547 32.1055C72.6243 32.2355 72.4939 32.3655 72.3634 32.3655C72.233 32.3655 72.1026 32.4955 71.9721 32.4955C71.8417 32.4955 71.7113 32.4955 71.4504 32.3655C71.32 32.3655 71.1896 32.2355 71.0592 32.1055C70.9287 31.9755 70.9287 31.8456 70.7983 31.5856C70.7983 31.3256 70.6679 31.0657 70.6679 30.8057C70.6679 30.5458 70.6679 30.2858 70.7983 30.0259C70.7983 29.7659 70.9287 29.6359 71.0592 29.5059C71.1896 29.376 71.32 29.246 71.4504 29.246C71.5809 29.246 71.7113 29.246 71.8417 29.246C71.9721 29.246 72.1026 29.246 72.233 29.376C72.3634 29.376 72.4939 29.5059 72.6243 29.6359C72.6243 29.7659 72.7547 29.7659 72.7547 29.8959C72.7547 30.0259 72.7547 30.0259 72.8852 30.1558C72.8852 30.4158 73.0156 30.6758 73.0156 30.9357C73.146 31.1957 73.146 31.4556 73.0156 31.5856Z" fill="#231F20"/>
<path d="M52.0168 16.3782V15.5983H50.3212V14.6885H51.8863V14.0386H50.3212V13.3887H52.0168V12.7388H49.9299H49.4082V16.3782H49.9299H52.0168Z" fill="#231F20"/>
<path d="M44.3213 18.9775H44.9734H46.0169V17.6777H44.9734H44.3213V18.9775Z" fill="#231F20"/>
<path d="M56.4512 16.3776L55.2774 14.8179C55.5383 14.6879 55.6687 14.5579 55.7991 14.4279C55.9295 14.2979 55.9295 14.038 55.9295 13.778C55.9295 13.5181 55.9295 13.3881 55.7991 13.2581C55.6687 13.1281 55.6687 12.9981 55.4078 12.9981C55.2774 12.8682 55.147 12.8682 55.0165 12.8682C54.8861 12.8682 54.6253 12.8682 54.4948 12.8682H54.3644H52.9297V16.5076H53.8427V15.2078H54.234L54.3644 15.3378L55.2774 16.5076H56.4512V16.3776ZM54.8861 14.038L54.7557 14.168C54.6253 14.168 54.6253 14.2979 54.4948 14.2979H54.3644C54.234 14.2979 54.234 14.2979 54.1035 14.2979H53.8427V13.2581H54.234C54.3644 13.2581 54.3644 13.2581 54.4948 13.2581C54.4948 13.2581 54.4948 13.2581 54.6253 13.2581C54.7557 13.2581 54.7557 13.2581 54.8861 13.2581C55.0165 13.2581 55.0165 13.3881 55.0165 13.3881C55.0165 13.5181 55.0165 13.5181 55.0165 13.648C55.0165 13.908 54.8861 14.038 54.8861 14.038Z" fill="#231F20"/>
<path d="M67.1463 24.5667V23.2669H67.0158C66.8854 23.3968 66.6245 23.5268 66.2333 23.6568C65.842 23.7868 65.5811 23.7868 65.1898 23.7868C64.929 23.7868 64.6681 23.7868 64.5377 23.7868C64.2768 23.7868 64.1464 23.6568 63.8856 23.5268C63.6247 23.2669 63.4943 23.0069 63.3638 22.617H64.4073H67.1463V22.097C67.1463 21.3172 66.8854 20.6673 66.4941 20.2773C66.1028 19.8874 65.4507 19.6274 64.5377 19.6274H64.4073C63.7551 19.6274 63.103 19.8874 62.5813 20.1474C62.4508 20.1474 62.4508 20.2773 62.3204 20.2773C61.7987 20.7973 61.5378 21.4471 61.5378 22.357C61.5378 23.2669 61.7987 23.9168 62.3204 24.3067L62.4508 24.4367C62.8421 24.6966 63.4943 24.9566 64.2768 24.9566C64.4073 24.9566 64.5377 24.9566 64.7985 24.9566C65.1898 24.9566 65.5811 24.9566 65.842 24.8266C66.3637 24.8266 66.755 24.8266 67.1463 24.5667ZM63.7551 20.7973C63.8856 20.6673 64.1464 20.5373 64.5377 20.5373C64.929 20.5373 65.1898 20.6673 65.3203 20.7973C65.4507 20.9272 65.5811 21.1872 65.5811 21.5771H64.5377H63.4943C63.4943 21.3172 63.6247 21.0572 63.7551 20.7973Z" fill="#231F20"/>
<path d="M58.147 28.0762H58.0166C57.234 28.0762 56.5819 28.3361 56.0602 28.856C55.5384 29.376 55.2776 30.0259 55.2776 30.9357C55.2776 31.8456 55.5384 32.4955 56.0602 32.8854C56.5819 33.2753 57.234 33.5353 58.0166 33.5353C58.147 33.5353 58.2774 33.5353 58.5383 33.5353C58.9296 33.5353 59.3209 33.5353 59.5817 33.4053C59.973 33.2753 60.2339 33.2753 60.6251 33.0154V31.7156H60.4947C60.3643 31.8456 60.1034 31.9755 59.7121 32.1055C59.3209 32.2355 59.06 32.2355 58.6687 32.2355C58.4079 32.2355 58.147 32.2355 58.0166 32.2355C57.7557 32.2355 57.6253 32.1055 57.3644 31.9756C57.1036 31.7156 56.9732 31.4556 56.8427 31.0657H57.8862H60.6251V30.5458C60.6251 29.7659 60.3643 29.116 59.973 28.7261C59.7121 28.2062 59.06 28.0762 58.147 28.0762ZM58.0166 30.1558H56.9732C56.9732 29.7659 57.1036 29.5059 57.3644 29.376C57.4949 29.246 57.7557 29.116 58.147 29.116C58.5383 29.116 58.7991 29.246 58.9296 29.376C59.06 29.5059 59.1904 29.7659 59.1904 30.1558H58.0166Z" fill="#231F20"/>
<path d="M37.9304 26.5161V27.8159H39.4955V30.5455C39.4955 30.8054 39.4955 31.0654 39.4955 31.1954C39.4955 31.3253 39.4955 31.5853 39.3651 31.7153C39.2347 31.8453 39.1043 31.9752 38.9738 32.1052C38.8434 32.2352 38.5825 32.2352 38.1912 32.2352C37.9304 32.2352 37.8 32.2352 37.5391 32.1052C37.4087 32.1052 37.2783 31.9752 37.0174 31.9752H36.887V33.405C37.1478 33.405 37.4087 33.535 37.6695 33.535C37.9304 33.535 38.1912 33.535 38.5825 33.535C39.1042 33.535 39.4955 33.535 39.7564 33.405C39.7564 33.405 39.7564 33.405 39.8868 33.405C40.1477 33.275 40.4085 33.1451 40.6694 33.0151C40.9302 32.8851 41.0607 32.6251 41.1911 32.3652C41.3215 32.1052 41.3215 31.8453 41.3215 31.4553V26.6461H39.8868H37.9304V26.5161Z" fill="#231F20"/>
<path d="M62.7118 16.3779C63.3639 16.3779 63.7552 16.2479 64.1465 15.858C64.2769 15.728 64.4074 15.468 64.5378 15.2081C64.6682 14.9481 64.6682 14.6882 64.6682 14.4282C64.6682 14.1682 64.6682 13.9083 64.5378 13.6483C64.4074 13.3884 64.2769 13.2584 64.1465 12.9984C63.7552 12.6085 63.3639 12.4785 62.7118 12.4785C62.0597 12.4785 61.6684 12.6085 61.2771 12.9984C60.8858 13.3884 60.7554 13.7783 60.7554 14.4282C60.7554 14.9481 60.8858 15.468 61.2771 15.858C61.6684 16.2479 62.1901 16.3779 62.7118 16.3779ZM62.0597 15.468C61.9292 15.3381 61.9292 15.2081 61.7988 15.0781C61.7988 14.9481 61.6684 14.6882 61.6684 14.5582C61.6684 14.2982 61.6684 14.1682 61.7988 14.0383C61.7988 13.9083 61.9292 13.7783 62.0597 13.6483C62.1901 13.5183 62.1901 13.5183 62.3205 13.3884C62.4509 13.3884 62.5814 13.3884 62.7118 13.3884C62.8422 13.3884 62.9727 13.3884 63.1031 13.5183C63.2335 13.5183 63.3639 13.6483 63.3639 13.7783C63.4944 13.9083 63.4944 14.0383 63.6248 14.1682C63.6248 14.2982 63.7552 14.5582 63.7552 14.6882C63.7552 14.9481 63.7552 15.0781 63.6248 15.2081C63.6248 15.3381 63.4944 15.468 63.3639 15.598C63.2335 15.728 63.2335 15.728 63.1031 15.858C62.9727 15.858 62.8422 15.988 62.7118 15.988C62.5814 15.988 62.4509 15.988 62.3205 15.858C62.3205 15.598 62.1901 15.598 62.0597 15.468Z" fill="#231F20"/>
<path d="M52.408 28.0762C52.0167 28.0762 51.7558 28.0762 51.495 28.2061C51.2341 28.3361 50.9733 28.4661 50.582 28.7261V28.2061H49.7994H49.0168V33.4053H49.9298H50.7124V29.7659C50.8428 29.6359 51.1037 29.6359 51.2341 29.5059C51.3646 29.5059 51.495 29.376 51.7558 29.376C52.0167 29.376 52.1471 29.376 52.2776 29.5059C52.408 29.5059 52.5384 29.6359 52.5384 29.7659C52.5384 29.8959 52.6688 30.0259 52.6688 30.2858C52.6688 30.5458 52.6688 30.6758 52.6688 30.9357V33.5353H54.3644V30.1558C54.3644 29.5059 54.234 28.986 53.8427 28.7261C53.4514 28.2062 52.9297 28.0762 52.408 28.0762Z" fill="#231F20"/>
<path d="M61.9292 26.2563V27.4262H62.7118H63.7552V26.2563H62.7118H61.9292Z" fill="#231F20"/>
<path d="M43.7998 24.9569L43.0173 23.917L41.4521 21.9673C41.8434 21.7074 42.2347 21.4474 42.4956 21.1875C42.7564 20.9275 42.8869 20.4076 42.8869 19.8877C42.8869 19.4977 42.7564 19.2378 42.626 18.9778C42.4956 18.7179 42.2347 18.5879 41.9738 18.3279C41.713 18.198 41.4521 18.068 41.1913 18.068C40.9304 18.068 40.5391 17.938 40.1478 17.938H39.887H37.0176V24.8269H38.8436V22.3573H39.6261L39.887 22.6172L41.5826 24.8269H43.0173H43.7998V24.9569ZM40.9304 20.6676C40.9304 20.7975 40.8 20.9275 40.6696 20.9275C40.5391 21.0575 40.4087 21.0575 40.1478 21.0575C40.0174 21.0575 40.0174 21.0575 39.887 21.0575C39.7566 21.0575 39.6261 21.0575 39.3653 21.0575H38.8436V19.2378H39.4957C39.6261 19.2378 39.7566 19.2378 39.887 19.2378H40.0174C40.1479 19.2378 40.2783 19.2378 40.4087 19.3678C40.5391 19.4977 40.6696 19.4977 40.8 19.6277C40.9304 19.7577 40.9304 19.8877 40.9304 20.0177C40.9304 20.4076 40.9304 20.5376 40.9304 20.6676Z" fill="#231F20"/>
<path d="M70.2768 15.4683C70.4072 15.2084 70.5377 14.9484 70.5377 14.5585C70.5377 14.1685 70.4072 13.9086 70.2768 13.6486C70.1464 13.3887 69.8855 13.1287 69.6247 12.9987C69.4943 12.8687 69.2334 12.8687 69.103 12.7388C68.9725 12.7388 68.8421 12.7388 68.7117 12.7388C68.5812 12.7388 68.4508 12.7388 68.3204 12.7388H67.0161V16.3782H68.3204C68.4508 16.3782 68.5812 16.3782 68.7117 16.3782C68.8421 16.3782 68.9725 16.3782 69.103 16.3782C69.3638 16.3782 69.4942 16.2482 69.7551 16.1182C70.016 15.8583 70.1464 15.7283 70.2768 15.4683ZM69.4942 15.0784C69.3638 15.2084 69.2334 15.3384 69.103 15.4683C68.9725 15.4683 68.9725 15.5983 68.8421 15.5983C68.7117 15.5983 68.5813 15.5983 68.3204 15.5983H68.0595V13.2587H68.3204C68.5813 13.2587 68.7117 13.2587 68.7117 13.2587C68.7117 13.2587 68.7117 13.2587 68.8421 13.2587C68.9725 13.2587 68.9725 13.2587 69.103 13.3887C69.2334 13.5186 69.4942 13.6486 69.4942 13.7786C69.6247 13.9086 69.6247 14.1685 69.6247 14.4285C69.6247 14.6885 69.4942 14.9484 69.4942 15.0784Z" fill="#231F20"/>
<path d="M46.93 28.4661C46.5387 28.2062 45.8866 28.0762 44.9736 28.0762H44.8431C44.4518 28.0762 44.0606 28.0762 43.6693 28.2061C43.4084 28.2061 43.1476 28.3361 43.0171 28.3361H42.8867V29.6359H43.0171C43.1476 29.6359 43.4084 29.5059 43.6693 29.376C43.9301 29.246 44.3214 29.246 44.5823 29.246C44.7127 29.246 44.8431 29.246 45.104 29.246C45.3648 29.246 45.4953 29.376 45.6257 29.376C45.8866 29.5059 46.017 29.6359 46.017 30.0259C45.7561 30.0259 45.3648 30.0259 45.104 30.1558C44.9736 30.1558 44.7127 30.1558 44.5823 30.1558C44.0606 30.1558 43.7997 30.2858 43.4084 30.4158C43.278 30.4158 43.1476 30.5458 43.0171 30.6758C42.8867 30.8057 42.7563 30.9357 42.6258 31.0657C42.4954 31.3257 42.365 31.5856 42.365 31.9756C42.365 32.4955 42.4954 32.8854 42.8867 33.1454L43.0171 33.2753C43.278 33.5353 43.6693 33.6653 44.191 33.6653C44.4518 33.6653 44.5823 33.6653 44.7127 33.6653C44.8431 33.6653 44.9736 33.6653 44.9736 33.5353C45.104 33.5353 45.104 33.5353 45.2344 33.4053C45.3648 33.4053 45.4953 33.2753 45.6257 33.1454C45.7561 33.0154 45.8865 33.0154 46.017 32.8854V33.4053H47.7125V29.8959C47.5821 29.246 47.3213 28.856 46.93 28.4661ZM45.8866 32.1055C45.7561 32.2355 45.6257 32.3655 45.4953 32.3655C45.3648 32.3655 45.2344 32.4955 44.9736 32.4955C44.7127 32.4955 44.5823 32.4955 44.4518 32.4955C44.3214 32.4955 44.3214 32.3655 44.191 32.3655C44.0606 32.3655 44.0606 32.2355 44.0606 32.1055C44.0606 31.9755 44.0606 31.9755 44.0606 31.8456C44.0606 31.7156 44.0606 31.5856 44.191 31.4556C44.3214 31.3257 44.4518 31.3257 44.5823 31.1957C44.7127 31.1957 44.8431 31.1957 44.9736 31.0657H45.104C45.3648 31.0657 45.6257 31.0657 45.8866 30.9357V32.1055Z" fill="#231F20"/>
<path d="M52.0168 24.3064C52.5385 23.7865 52.7994 23.1366 52.7994 22.2267C52.7994 21.3169 52.5385 20.667 52.0168 20.1471C51.4951 19.6271 50.843 19.3672 49.93 19.3672C49.017 19.3672 48.3648 19.6271 47.8431 20.1471C47.3214 20.667 47.0605 21.3169 47.0605 22.2267C47.0605 23.1366 47.3214 23.7865 47.8431 24.3064C48.3648 24.8263 49.017 25.0863 49.93 25.0863C50.843 25.0863 51.4951 24.8263 52.0168 24.3064ZM49.1474 23.5265C49.017 23.3965 49.017 23.2666 48.8865 23.0066C48.8865 22.7466 48.7561 22.4867 48.7561 22.2267C48.7561 21.9668 48.7561 21.7068 48.8865 21.4469C48.8865 21.1869 49.017 21.0569 49.1474 20.9269C49.2778 20.797 49.4083 20.667 49.5387 20.667C49.6691 20.667 49.7995 20.537 49.93 20.537C50.0604 20.537 50.1908 20.537 50.3213 20.667C50.4517 20.667 50.5821 20.797 50.7125 20.9269C50.843 21.0569 50.843 21.1869 50.9734 21.4469C50.9734 21.7068 51.1038 21.9668 51.1038 22.2267C51.1038 22.6167 51.1038 22.8766 50.9734 23.0066C50.9734 23.1366 50.843 23.3965 50.7125 23.5265C50.5821 23.6565 50.4517 23.7865 50.3213 23.7865C50.1908 23.7865 50.0604 23.9165 49.93 23.9165C49.7995 23.9165 49.6691 23.9165 49.4083 23.7865C49.2778 23.7865 49.1474 23.6565 49.1474 23.5265Z" fill="#231F20"/>
<path d="M68.581 28.2061C68.4505 28.2061 68.4505 28.2061 68.3201 28.2061C68.0592 28.2061 67.7984 28.2061 67.5375 28.336C67.2767 28.466 66.8854 28.596 66.6245 28.9859V28.2061H64.929V33.4052H66.6245V29.8958C66.8854 29.7658 67.0158 29.7658 67.2767 29.7658C67.4071 29.7658 67.668 29.7658 67.9288 29.7658C68.0592 29.7658 68.1897 29.7658 68.3201 29.7658C68.4505 29.7658 68.5809 29.7658 68.7114 29.7658H68.8418V28.2061C68.7114 28.2061 68.581 28.2061 68.581 28.2061Z" fill="#231F20"/>
</svg>
