<svg width="81" height="21" viewBox="0 0 81 21" fill="none" xmlns="http://www.w3.org/2000/svg">
<rect width="80.4478" height="20.3179" fill="black" fill-opacity="0" transform="translate(0.239746)"/>
<rect width="80.4478" height="20.3179" fill="black" fill-opacity="0" transform="translate(0.239746)"/>
<path fill-rule="evenodd" clip-rule="evenodd" d="M37.8257 13.3667C37.6938 13.3667 37.6938 13.3667 37.8257 13.3667C37.6938 13.3667 37.6938 13.3667 37.5619 13.3667C37.2981 13.3667 37.1663 13.3667 37.0344 13.5004C36.9025 13.634 36.7706 13.7677 36.6387 13.9014L36.7706 13.5004H36.2431C36.2431 13.634 36.2431 13.634 36.2431 13.7677C36.2431 13.9014 36.2431 13.9014 36.2431 14.035L35.7156 16.4411H36.2431L36.5069 15.1044C36.5069 14.8371 36.6387 14.7034 36.9025 14.4361C37.0344 14.1687 37.2981 14.035 37.5619 14.035C37.5619 14.035 37.6938 14.035 37.8257 14.035V13.3667Z" fill="white"/>
<path fill-rule="evenodd" clip-rule="evenodd" d="M23.4509 13.3667H23.3191C22.9234 13.3667 22.6596 13.634 22.3959 13.9014C22.1321 14.3024 22.0002 14.5697 22.0002 15.1044C22.0002 15.5054 22.1321 15.9064 22.3959 16.0401C22.6596 16.1737 22.9234 16.3074 23.3191 16.3074C23.4509 16.3074 23.5828 16.3074 23.7147 16.3074C23.8466 16.3074 23.9785 16.3074 24.1104 16.1738L24.2422 15.6391C24.1103 15.6391 23.9785 15.7727 23.8466 15.7727C23.7147 15.7727 23.5828 15.7727 23.4509 15.7727C23.1872 15.7727 23.0553 15.7727 22.9234 15.6391C22.7915 15.5054 22.6597 15.3717 22.6597 15.1044V14.9707H23.4509H24.6379C24.6379 14.8371 24.6379 14.7034 24.6379 14.7034C24.6379 14.7034 24.6379 14.5697 24.6379 14.4361C24.6379 14.1687 24.506 13.9014 24.3741 13.634C23.9785 13.3667 23.7147 13.3667 23.4509 13.3667ZM23.9785 14.4361H23.3191H22.6597C22.6597 14.1687 22.7915 14.035 22.9234 13.9014C23.0553 13.7677 23.1872 13.7677 23.3191 13.634H23.4509C23.5828 13.634 23.8466 13.634 23.8466 13.7677C23.9785 13.9014 23.9785 14.035 23.9785 14.1687V14.4361Z" fill="white"/>
<path fill-rule="evenodd" clip-rule="evenodd" d="M20.022 12.8325V12.2979H19.8901H17.1206V12.8325H18.3075L17.5163 16.1743H18.0438L18.8351 12.8325H19.8901H20.022Z" fill="white"/>
<path fill-rule="evenodd" clip-rule="evenodd" d="M21.6044 13.3667C21.3406 13.3667 21.2088 13.3667 21.0769 13.5004C20.945 13.634 20.8131 13.7677 20.6812 13.9014L20.8131 13.5004H20.2856C20.2856 13.634 20.2856 13.634 20.2856 13.7677C20.2856 13.9014 20.2856 13.9014 20.2856 14.035L19.8899 15.6391L19.7581 16.3074H19.8899H20.2856L20.5494 14.9707C20.5494 14.7034 20.6812 14.5697 20.945 14.3024C21.0769 14.035 21.3406 13.9014 21.6044 13.9014C21.6044 13.9014 21.7363 13.9014 21.8682 13.9014L22.0001 13.5004C21.8682 13.3667 21.7363 13.3667 21.6044 13.3667C21.7363 13.3667 21.7363 13.3667 21.6044 13.3667Z" fill="white"/>
<path fill-rule="evenodd" clip-rule="evenodd" d="M39.6723 13.367C39.5404 13.367 39.4085 13.367 39.2766 13.367C39.0129 13.367 38.881 13.5006 38.7491 13.6343L39.1447 12.0303H38.6172L37.8259 16.0403H38.3535L38.4853 15.6393C38.6172 15.773 38.6172 15.9067 38.7491 16.0403C38.881 16.174 39.1447 16.174 39.4085 16.174C39.8042 16.174 40.1998 16.0403 40.3317 15.6393C40.5954 15.2383 40.7273 14.8373 40.7273 14.3026C40.7273 14.0353 40.5954 13.768 40.4636 13.5006C40.1998 13.367 40.0679 13.367 39.6723 13.367ZM39.936 15.372C39.8042 15.6393 39.6723 15.773 39.4085 15.773H39.2766C39.0129 15.773 38.881 15.6393 38.7491 15.5057C38.6172 15.372 38.6172 15.2383 38.6172 14.971C38.6172 14.57 38.7491 14.3026 38.881 14.0353C39.0129 13.768 39.1447 13.6343 39.4085 13.6343H39.5404C39.6723 13.6343 39.936 13.6343 39.936 13.768C40.0679 13.9016 40.0679 14.0353 40.0679 14.3026C40.1998 14.8373 40.0679 15.1047 39.936 15.372Z" fill="white"/>
<path fill-rule="evenodd" clip-rule="evenodd" d="M28.5944 13.5001C28.3306 13.6338 28.3306 13.9011 28.3306 14.1685C28.3306 14.4358 28.4625 14.5695 28.8581 14.8368C29.1219 15.1042 29.3857 15.2378 29.3857 15.3715C29.3857 15.5052 29.3857 15.6388 29.2538 15.6388C29.1219 15.7725 28.99 15.7725 28.8581 15.7725C28.7263 15.7725 28.5944 15.7725 28.5944 15.7725C28.4625 15.7725 28.3306 15.6388 28.3306 15.6388L28.1987 16.0398C28.3306 16.0398 28.4625 16.1735 28.5944 16.1735C28.7263 16.1735 28.8581 16.1735 28.99 16.1735C29.2538 16.1735 29.5175 16.0398 29.6494 15.9062C29.9132 15.7725 29.9132 15.5052 29.9132 15.2378C29.9132 14.9705 29.7813 14.7031 29.3857 14.4358C29.1219 14.1685 28.8581 14.0348 28.8581 13.9011C28.8581 13.7675 28.8581 13.6338 28.99 13.6338C29.1219 13.6338 29.2538 13.5001 29.3857 13.5001C29.5176 13.5001 29.5175 13.5001 29.6494 13.5001C29.7813 13.5001 29.7813 13.5001 29.9132 13.6338L30.0451 13.2328C29.7813 13.0991 29.5176 13.0991 29.3857 13.0991C29.1219 13.3665 28.8581 13.3665 28.5944 13.5001Z" fill="white"/>
<path fill-rule="evenodd" clip-rule="evenodd" d="M27.4074 13.5002C27.2755 13.3666 27.0117 13.2329 26.748 13.2329C26.4842 13.2329 26.3523 13.2329 26.2204 13.3666C26.0885 13.5002 25.9567 13.6339 25.8248 13.7676L25.9567 13.3666H25.4291C25.4291 13.5002 25.4291 13.5002 25.4291 13.6339C25.4291 13.7676 25.4291 13.7676 25.4291 13.9013L24.9016 16.3073H25.4291L25.6929 14.8369C25.6929 14.5696 25.8248 14.4359 26.0885 14.1686C26.2204 13.9013 26.4842 13.7676 26.748 13.7676C26.8798 13.7676 27.0117 13.7676 27.1436 13.9013C27.2755 14.0349 27.2755 14.1686 27.2755 14.3023V14.5696L26.8798 16.1736H27.4074L27.6711 14.7033C27.6711 14.5696 27.6711 14.4359 27.6711 14.4359C27.6711 14.4359 27.6711 14.3023 27.6711 14.1686C27.6711 13.9013 27.6711 13.6339 27.4074 13.5002Z" fill="white"/>
<path fill-rule="evenodd" clip-rule="evenodd" d="M34.6608 14.302C34.5289 14.703 34.3971 15.104 34.2652 15.3714C34.1333 15.6387 33.8695 15.7724 33.4739 15.7724C33.2101 15.7724 33.0782 15.7724 32.8145 15.6387C32.6826 15.5051 32.5507 15.3714 32.5507 15.104C32.5507 14.9704 32.5507 14.9704 32.5507 14.703L33.0783 12.4307H32.5507L32.1551 14.302C32.1551 14.4357 32.1551 14.5694 32.0232 14.703C32.0232 14.8367 32.0232 15.104 32.0232 15.104C32.0232 15.3714 32.1551 15.6387 32.287 15.9061C32.5507 16.1734 32.8145 16.3071 33.342 16.3071C33.7377 16.3071 34.1333 16.1734 34.3971 15.9061C34.6608 15.6387 34.9246 15.2377 34.9246 14.703L35.4521 12.4307H34.9246L34.6608 14.302Z" fill="white"/>
<path fill-rule="evenodd" clip-rule="evenodd" d="M49.0359 13.3667H48.904C48.5084 13.3667 48.1127 13.5004 47.9808 13.9014C47.7171 14.1687 47.5852 14.5697 47.5852 15.1044C47.5852 15.5054 47.7171 15.7727 47.9808 16.0401C48.2446 16.3074 48.5084 16.3074 48.904 16.3074H49.0359C49.4315 16.3074 49.8272 16.1737 49.9591 15.7727C50.2228 15.5054 50.3547 15.1044 50.3547 14.5697C50.3547 14.1687 50.2228 13.9014 49.9591 13.634C49.6953 13.3667 49.4315 13.3667 49.0359 13.3667ZM49.4315 15.3717C49.2997 15.6391 49.0359 15.7727 48.904 15.7727H48.7721C48.5084 15.7727 48.3765 15.6391 48.2446 15.5054C48.1127 15.3717 48.1127 15.1044 48.1127 14.9707C48.1127 14.7034 48.2446 14.3024 48.3765 14.035C48.5084 13.7677 48.7721 13.634 48.904 13.634H49.0359C49.2997 13.634 49.4316 13.7677 49.5634 13.9014C49.6953 14.035 49.6953 14.3024 49.6953 14.4361C49.6953 14.8371 49.5634 15.1044 49.4315 15.3717Z" fill="white"/>
<path fill-rule="evenodd" clip-rule="evenodd" d="M43.2332 13.5002C42.9694 13.3666 42.7056 13.2329 42.4419 13.2329H42.31H42.1781C42.0462 13.2329 41.9143 13.2329 41.7825 13.3666L41.6506 13.9013C41.7825 13.7676 41.9143 13.7676 42.0462 13.7676C42.1781 13.7676 42.1781 13.7676 42.31 13.7676H42.4419C42.7056 13.7676 42.8375 13.7676 42.9694 13.9013C43.1013 14.0349 43.1013 14.1686 43.1013 14.3023V14.4359H42.7056C42.5737 14.4359 42.4419 14.4359 42.31 14.4359C42.0462 14.4359 41.7824 14.5696 41.5187 14.7033C41.2549 14.8369 41.123 15.1043 41.123 15.5053C41.123 15.7726 41.2549 15.9063 41.3868 16.04C41.5187 16.1736 41.7825 16.1736 42.0462 16.1736C42.1781 16.1736 42.31 16.1736 42.4419 16.1736C42.4419 16.1736 42.5737 16.1736 42.5737 16.04C42.7056 15.9063 42.8375 15.7726 42.9694 15.639L42.8375 16.04H43.365C43.365 15.9063 43.365 15.639 43.4969 15.3716C43.4969 15.1043 43.6288 14.8369 43.6288 14.5696C43.6288 14.3023 43.7607 14.1686 43.7607 14.0349C43.4969 13.9013 43.4969 13.6339 43.2332 13.5002ZM42.5737 15.5053C42.4419 15.639 42.31 15.7726 42.1781 15.7726C42.0462 15.7726 42.0462 15.7726 41.9143 15.7726C41.7825 15.7726 41.6506 15.7726 41.6506 15.639C41.5187 15.5053 41.5187 15.5053 41.5187 15.3716C41.5187 15.1043 41.6506 14.9706 41.7825 14.8369C41.9143 14.8369 42.0462 14.7033 42.1781 14.7033C42.31 14.7033 42.31 14.7033 42.4419 14.7033H42.8375C42.8375 15.1043 42.8375 15.3716 42.5737 15.5053Z" fill="white"/>
<path fill-rule="evenodd" clip-rule="evenodd" d="M51.1461 13.5001C50.8824 13.6338 50.8824 13.9011 50.8824 14.1685C50.8824 14.4358 51.0143 14.5695 51.4099 14.8368C51.6737 15.1042 51.9374 15.2378 51.9374 15.3715C51.9374 15.5052 51.9374 15.6388 51.8055 15.6388C51.6737 15.7725 51.5418 15.7725 51.4099 15.7725C51.278 15.7725 51.1461 15.7725 51.1461 15.7725C51.0143 15.7725 50.8824 15.6388 50.8824 15.6388L50.7505 16.0398C50.8824 16.0398 51.0143 16.1735 51.1461 16.1735C51.278 16.1735 51.4099 16.1735 51.5418 16.1735C51.8056 16.1735 52.0693 16.0398 52.2012 15.9062C52.465 15.7725 52.465 15.5052 52.465 15.2378C52.465 14.9705 52.3331 14.7031 51.9374 14.4358C51.6737 14.1685 51.4099 14.0348 51.4099 13.9011C51.4099 13.7675 51.4099 13.6338 51.5418 13.6338C51.6737 13.6338 51.8055 13.5001 51.9374 13.5001C52.0693 13.5001 52.0693 13.5001 52.2012 13.5001C52.3331 13.5001 52.3331 13.5001 52.465 13.6338L52.5968 13.2328C52.3331 13.0991 52.0693 13.0991 51.9374 13.0991C51.6737 13.3665 51.4099 13.3665 51.1461 13.5001Z" fill="white"/>
<path fill-rule="evenodd" clip-rule="evenodd" d="M46.6623 13.5002C46.5304 13.3666 46.2666 13.2329 46.0028 13.2329C45.7391 13.2329 45.6072 13.2329 45.4753 13.3666C45.3434 13.5002 45.2116 13.6339 45.0797 13.7676L45.2116 13.3666H44.684C44.684 13.5002 44.684 13.5002 44.684 13.6339C44.684 13.7676 44.684 13.7676 44.684 13.9013L44.1565 16.3073H44.684L44.9478 14.8369C44.9478 14.5696 45.0797 14.4359 45.3434 14.1686C45.4753 13.9013 45.7391 13.7676 46.0028 13.7676C46.1347 13.7676 46.2666 13.7676 46.3985 13.9013C46.5304 14.0349 46.5304 14.1686 46.5304 14.3023V14.5696L46.1347 16.1736H46.6623L46.926 14.7033C46.926 14.5696 46.926 14.4359 46.926 14.4359C46.926 14.4359 46.926 14.3023 46.926 14.1686C46.926 13.9013 46.7941 13.6339 46.6623 13.5002Z" fill="white"/>
<path fill-rule="evenodd" clip-rule="evenodd" d="M67.8949 0C67.2355 0.401007 66.1805 0.802014 65.3892 2.00504H71.0601L71.8514 0.668345H80.2918L80.6874 0H67.8949Z" fill="white"/>
<path fill-rule="evenodd" clip-rule="evenodd" d="M64.0703 4.81265H69.2137L70.005 3.47596H78.4454L78.8411 2.80762H64.8616C64.7297 3.34229 64.3341 4.14431 64.0703 4.81265Z" fill="white"/>
<path fill-rule="evenodd" clip-rule="evenodd" d="M63.2793 7.75259H67.3676L68.1589 6.4159H76.5994L76.995 5.74756H63.8068C63.6749 6.28223 63.5431 6.95058 63.2793 7.75259Z" fill="white"/>
<path fill-rule="evenodd" clip-rule="evenodd" d="M62.3559 9.75803C61.9603 10.4264 61.6965 10.6937 61.6965 10.6937H65.5211L66.3124 9.35703H74.7528L75.1485 8.68868H62.8835C63.0154 8.55501 62.6197 9.22336 62.3559 9.75803Z" fill="white"/>
<path fill-rule="evenodd" clip-rule="evenodd" d="M59.4545 20.3178L62.7516 14.9711H71.192L71.5877 14.3027H57.4763L59.4545 20.3178Z" fill="white"/>
<path fill-rule="evenodd" clip-rule="evenodd" d="M58.7949 13.5006H63.6745L64.5977 12.164H73.0382L73.4338 11.4956H61.0369C60.1137 12.4313 59.3224 13.0996 58.7949 13.5006Z" fill="white"/>
<path fill-rule="evenodd" clip-rule="evenodd" d="M9.07591 5.74722C8.94403 6.14823 8.81215 6.41557 8.68027 6.68291C8.54839 6.95024 8.28462 7.08391 7.88897 7.08391C7.75709 7.08391 7.62522 7.08391 7.49333 6.95024C7.36145 6.81658 7.36145 6.68291 7.36145 6.54924C7.36145 6.41557 7.36145 6.2819 7.36145 6.14823C7.36145 6.01456 7.36145 5.88089 7.49333 5.61355L7.88897 3.74219H6.83393L6.43828 5.74722C6.43828 5.88089 6.3064 6.14823 6.3064 6.2819C6.3064 6.41557 6.3064 6.54924 6.3064 6.68291C6.3064 7.08391 6.43828 7.35125 6.70205 7.61859C6.96581 7.88593 7.22957 8.0196 7.62521 8.0196C7.88898 8.0196 8.02086 8.0196 8.28462 7.88593C8.41651 7.75226 8.68027 7.61859 8.81215 7.48492L8.68027 7.88593H9.73532L9.8672 7.35125L10.6585 3.87586H9.60344L9.07591 5.74722Z" fill="white"/>
<path fill-rule="evenodd" clip-rule="evenodd" d="M19.4947 7.48492C19.8903 7.75226 20.286 7.88593 20.9454 7.88593H21.0773C21.2092 7.88593 21.4729 7.88593 21.6048 7.88593C21.8686 7.88593 22.0004 7.75226 22.2642 7.75226L22.3961 6.95024C22.1323 7.08391 22.0004 7.08391 21.7367 7.21758C21.4729 7.21758 21.341 7.35125 21.0773 7.35125C21.0773 7.35125 21.0773 7.35125 20.9454 7.35125C20.6816 7.35125 20.4179 7.21758 20.1541 7.08391C20.0222 6.95024 19.8903 6.68291 19.8903 6.2819H20.9454H22.7917C22.9236 6.01456 22.9236 5.61355 22.9236 5.34621C22.9236 4.81154 22.7917 4.41053 22.528 4.14319C22.2642 3.87586 21.8686 3.74219 21.341 3.74219C21.2092 3.74219 21.2092 3.74219 21.0773 3.74219C20.5497 3.74219 20.1541 4.00953 19.7585 4.41053C19.3628 4.94521 19.099 5.47988 19.099 6.14823C18.9672 6.68291 19.2309 7.08391 19.4947 7.48492ZM20.5498 4.67787C20.6816 4.5442 20.8135 4.5442 21.0773 4.41053C21.2092 4.41053 21.2092 4.41053 21.341 4.41053C21.7367 4.41053 22.0004 4.67787 22.0004 5.07888V5.34621H21.0773H20.1541C20.286 5.07888 20.4179 4.81154 20.5498 4.67787Z" fill="white"/>
<path fill-rule="evenodd" clip-rule="evenodd" d="M2.61361 3.60914C2.08609 3.60914 1.69045 3.74281 1.42668 3.87648C1.03104 4.14381 0.899155 4.41115 0.899155 4.81216C0.899155 5.21316 1.16292 5.4805 1.55856 5.74784C1.95421 6.01518 2.21797 6.28252 2.21797 6.41619C2.21797 6.54986 2.08609 6.68352 1.9542 6.81719C1.82232 6.95086 1.69045 6.95086 1.42668 6.95086C1.2948 6.95086 1.16292 6.95086 1.03103 6.95086C0.899153 6.95086 0.767269 6.81719 0.503506 6.68352L0.239746 7.48554C0.371628 7.61921 0.635393 7.61921 0.767275 7.61921C0.899157 7.61921 1.16292 7.61921 1.42668 7.61921C1.95421 7.61921 2.34986 7.48554 2.7455 7.35187C3.14115 7.08453 3.27302 6.81719 3.27302 6.28252C3.27302 5.88151 3.00926 5.61417 2.61361 5.21317C2.21797 4.94583 1.9542 4.67849 1.9542 4.54482C1.9542 4.41115 2.08609 4.27748 2.21797 4.27748C2.34985 4.27748 2.48174 4.14381 2.7455 4.14381C2.87738 4.14381 3.00926 4.14381 3.14114 4.14381C3.27302 4.14381 3.40491 4.27748 3.53679 4.27748L3.80055 3.47547C3.53679 3.47547 3.4049 3.3418 3.27302 3.3418C2.87738 3.60914 2.74549 3.60914 2.61361 3.60914Z" fill="white"/>
<path fill-rule="evenodd" clip-rule="evenodd" d="M15.1422 3.47559C15.0103 3.47559 14.7465 3.47559 14.6146 3.60926C14.3509 3.74292 14.0871 3.87659 13.9552 4.14393L14.0871 3.60926H13.1639C13.1639 3.74292 13.1639 3.87659 13.1639 3.87659C13.1639 4.01026 13.1639 4.01026 13.1639 4.14393L12.1089 9.35702H13.1639L13.6915 7.08465C13.8233 7.35199 13.9552 7.48566 14.0871 7.61933C14.3509 7.753 14.4828 7.753 14.7465 7.753C14.7465 7.753 14.7465 7.753 14.8784 7.753C15.5378 7.753 15.9335 7.48566 16.3291 6.95098C16.7247 6.41631 16.8566 5.88163 16.8566 5.07962C16.8566 4.54494 16.7247 4.14393 16.461 3.87659C16.0653 3.60926 15.6697 3.47559 15.1422 3.47559ZM15.2741 6.28264C15.1422 6.54997 14.8784 6.81731 14.6146 6.81731C14.4828 6.81731 14.4828 6.81731 14.3509 6.81731C14.0871 6.81731 13.9552 6.68364 13.8233 6.54998C13.6915 6.41631 13.6915 6.14897 13.6915 5.88163C13.6915 5.48062 13.8234 5.07961 13.9552 4.81228C14.0871 4.54494 14.3509 4.41127 14.6146 4.2776H14.7465C15.0103 4.2776 15.1422 4.41127 15.2741 4.54494C15.4059 4.67861 15.4059 4.94595 15.4059 5.21329C15.5378 5.61429 15.5378 6.0153 15.2741 6.28264Z" fill="white"/>
<path fill-rule="evenodd" clip-rule="evenodd" d="M27.9349 3.60926C27.803 3.60926 27.803 3.60926 27.6711 3.60926C27.4074 3.60926 27.1436 3.74293 27.0117 3.87659C26.748 4.01026 26.6161 4.2776 26.4842 4.41127L26.6161 3.60926H25.561V4.2776L24.9016 7.753H25.9567L26.3523 5.88163C26.4842 5.48062 26.6161 5.21328 26.748 4.94595C27.0117 4.67861 27.2755 4.54494 27.5392 4.54494C27.6711 4.54494 27.803 4.54494 27.9349 4.54494L28.1987 3.47559C28.0668 3.60926 27.9349 3.60926 27.9349 3.60926Z" fill="white"/>
<path fill-rule="evenodd" clip-rule="evenodd" d="M36.1112 3.60938H34.2649L32.8142 6.5501L32.4185 3.60938H30.8359L31.4953 7.88679H33.4736L36.1112 3.60938Z" fill="white"/>
<path fill-rule="evenodd" clip-rule="evenodd" d="M41.3869 3.60938H39.6725L38.6174 7.88679H40.3319L41.3869 3.60938Z" fill="white"/>
<path fill-rule="evenodd" clip-rule="evenodd" d="M46.5302 5.2134L46.794 7.88679H48.5084L47.7171 3.60938H45.8708L43.2332 7.88679H45.0795L46.5302 5.2134Z" fill="white"/>
<path fill-rule="evenodd" clip-rule="evenodd" d="M61.5646 5.08003C62.2241 4.27802 62.7516 3.34234 63.411 2.54032C63.8066 2.13931 64.0704 1.60464 64.466 1.20363C64.8617 0.802624 65.5211 0.401615 66.1805 0.134277H52.5967L55.3662 8.15442C56.685 8.28809 57.872 7.75341 59.1908 7.08507C59.9821 6.55039 60.7734 5.88205 61.5646 5.08003Z" fill="white"/>
</svg>
