<svg width="40" height="38" viewBox="0 0 40 38" fill="none" xmlns="http://www.w3.org/2000/svg">
<rect width="38.6414" height="37.828" fill="black" fill-opacity="0" transform="translate(0.558105)"/>
<rect width="38.2456" height="25.7981" fill="black" fill-opacity="0" transform="translate(0.558105)"/>
<path d="M11.7681 3.47588H8.33913V25.3976H3.98703V3.47588H0.558105V0.000488281H11.7681V3.47588Z" fill="white"/>
<path d="M24.9562 25.3971H20.6042L20.3404 21.9217H17.7027L17.439 25.3971H13.8782L17.1752 0H21.7911L24.9562 25.3971ZM19.8129 18.3127L19.0216 8.15381L17.9665 18.3127H19.8129Z" fill="white"/>
<path d="M38.8038 20.4514C38.8038 23.9268 36.6937 25.7981 33.3966 25.7981C30.0996 25.7981 28.1213 24.0604 28.1213 20.4514V0H32.4734V20.986C32.4734 21.9217 33.001 22.4564 33.6604 22.4564C34.3198 22.4564 34.5835 21.9217 34.5835 20.986V0H38.6719V20.4514H38.8038Z" fill="white"/>
<rect width="38.5093" height="11.2283" fill="black" fill-opacity="0" transform="translate(0.690186 26.5996)"/>
<path d="M2.27277 33.1492H2.009V35.8226H0.690186V28.0698H2.27277C3.4597 28.0698 3.98723 28.7382 3.98723 30.4759C3.98723 32.4809 3.19594 33.1492 2.27277 33.1492ZM2.14088 29.1392H2.009V31.9462H2.14088C2.40465 31.9462 2.66841 31.6789 2.66841 30.4759C2.66841 29.4065 2.40465 29.1392 2.14088 29.1392Z" fill="white"/>
<path d="M7.15181 35.9569C7.15181 35.8232 7.01993 35.6896 7.01993 35.5559C7.01993 34.8876 7.01993 34.6202 7.01993 34.0855C7.01993 32.8825 6.88805 32.7489 6.62428 32.7489H6.4924V35.9569H5.17358V28.2041H6.88805C7.94311 28.2041 8.47063 28.8724 8.47063 30.2091C8.47063 31.2785 8.33875 31.8132 7.67934 32.2142C8.20687 32.6152 8.33875 33.5509 8.33875 33.9519V34.4865C8.33875 35.1549 8.33875 35.5559 8.47063 35.8232H7.15181V35.9569ZM6.62428 29.1398H6.4924V31.5458H6.62428C6.88805 31.5458 7.15181 31.2785 7.15181 30.2091C7.15181 29.2735 6.88805 29.1398 6.62428 29.1398Z" fill="white"/>
<path d="M12.9548 34.219C12.9548 35.5557 12.1635 35.9567 11.3722 35.9567C10.449 35.9567 9.65771 35.422 9.65771 34.219V29.6742C9.65771 28.4712 10.449 27.9365 11.3722 27.9365C12.2954 27.9365 12.9548 28.3375 12.9548 29.6742V34.219ZM11.6359 29.4069C11.6359 29.1395 11.5041 29.0059 11.3722 29.0059C11.1084 29.0059 10.9765 29.1395 10.9765 29.4069V34.4863C10.9765 34.7536 11.1084 34.8873 11.3722 34.8873C11.6359 34.8873 11.6359 34.7536 11.6359 34.4863V29.4069Z" fill="white"/>
<path d="M17.5708 34.2186C17.5708 35.4216 16.9114 35.8226 15.8563 35.8226H14.1418V28.0698H15.7244C16.7795 28.0698 17.4389 28.4708 17.4389 29.8075V34.2186H17.5708ZM16.252 29.6739C16.252 29.2728 16.1201 29.1392 15.8563 29.1392H15.5925V34.7533H15.8563C16.1201 34.7533 16.252 34.6196 16.252 34.2186V29.6739Z" fill="white"/>
<path d="M22.0551 34.3523C22.0551 35.4216 21.3956 35.9563 20.4725 35.9563C19.4174 35.9563 18.8899 35.4216 18.8899 34.3523V28.0698H20.2087V34.4859C20.2087 34.7533 20.3406 34.8869 20.6044 34.8869C20.8681 34.8869 20.8681 34.7533 20.8681 34.4859V28.0698H22.1869V34.3523H22.0551Z" fill="white"/>
<path d="M25.0877 35.9565V36.0902C25.6152 36.0902 26.1427 36.3576 26.1427 36.8922C26.1427 37.5606 25.4833 37.8279 24.5601 37.8279V37.4269C25.0877 37.4269 25.4833 37.1596 25.4833 36.8922C25.4833 36.7586 25.2195 36.6249 24.8239 36.6249L24.692 36.4912L24.9558 35.8229C24.1645 35.6892 23.637 35.1545 23.637 34.2188V29.5404C23.637 28.4711 24.2964 27.8027 25.2196 27.8027C26.1427 27.8027 26.8021 28.2037 26.8021 29.5404C26.8021 29.9414 26.8021 30.3424 26.6702 30.6098L25.6152 30.4761C25.6152 30.2088 25.7471 29.9414 25.7471 29.6741C25.7471 28.8721 25.6152 28.8721 25.3514 28.8721C25.0877 28.8721 24.9558 29.0058 24.9558 29.4068V34.4862C24.9558 34.8872 25.0877 35.0209 25.3514 35.0209C25.6152 35.0209 25.7471 34.8872 25.7471 34.0852C25.7471 33.8178 25.7471 33.5505 25.6152 33.2832L26.6702 33.1495C26.6702 33.4168 26.8021 33.8178 26.8021 34.2188C26.4065 35.5555 25.879 35.9565 25.0877 35.9565Z" fill="white"/>
<path d="M30.8908 34.2187C30.8908 35.5554 30.0995 35.9564 29.3082 35.9564C28.385 35.9564 27.5938 35.4218 27.5938 34.2187V29.674C27.5938 28.471 28.385 27.9363 29.3082 27.9363C30.2314 27.9363 30.8908 28.3373 30.8908 29.674V34.2187ZM30.627 26.7333C30.4952 27.4016 30.3633 27.8026 29.7039 27.8026C29.572 27.8026 29.4401 27.8026 29.3082 27.669C29.1763 27.669 29.0444 27.5353 29.0444 27.5353C28.9126 27.5353 28.9126 27.4016 28.7807 27.4016C28.6488 27.4016 28.6488 27.5353 28.5169 27.669H27.8575C27.8575 27.0006 28.2532 26.5996 28.7807 26.5996C28.9126 26.5996 29.0445 26.5996 29.1763 26.7333C29.3082 26.7333 29.3082 26.8669 29.4401 26.8669C29.572 26.8669 29.7039 27.0006 29.7039 27.0006C29.8357 27.0006 29.9676 26.867 29.9676 26.7333H30.627ZM29.572 29.4067C29.572 29.1393 29.4401 29.0057 29.3082 29.0057C29.0445 29.0057 28.9126 29.1393 28.9126 29.4067V34.4861C28.9126 34.7534 29.0445 34.8871 29.3082 34.8871C29.572 34.8871 29.572 34.7534 29.572 34.4861V29.4067Z" fill="white"/>
<path d="M34.8469 35.8226H32.2092V28.0698H34.8469V29.1392H33.528V31.2779H34.715V32.3472H33.528V34.7533H34.8469V35.8226Z" fill="white"/>
<path d="M39.0675 34.219C39.0675 35.422 38.4081 35.9567 37.4849 35.9567C36.4298 35.9567 36.0342 35.2883 36.0342 34.219C36.0342 33.818 36.0342 33.417 36.1661 33.1496L37.2211 33.2833C37.2211 33.5506 37.0892 33.818 37.0892 34.0853C37.0892 34.7536 37.2211 34.8873 37.4849 34.8873C37.7486 34.8873 37.8805 34.7536 37.8805 34.219V33.9516C37.8805 33.417 37.7486 32.8823 37.0892 32.0803C36.4298 31.2783 36.1661 30.6099 36.1661 29.8079V29.6742C36.1661 28.6049 36.5617 27.9365 37.7486 27.9365C38.8037 27.9365 39.1993 28.6049 39.1993 29.6742C39.1993 30.0752 39.1993 30.3426 39.0675 30.6099L38.0124 30.4762C38.0124 30.2089 38.0124 30.2089 38.0124 29.8079C38.0124 29.1395 37.8805 29.0059 37.7486 29.0059C37.4849 29.0059 37.4849 29.1395 37.4849 29.6742V29.8079C37.4849 30.2089 37.6168 30.7436 38.1443 31.2782C38.8037 32.0803 39.1993 33.016 39.1993 34.0853V34.219H39.0675Z" fill="white"/>
</svg>
